ArcticonsSans.ufo
<glyph name="exclam" format="2">
  <advance width="270"/>
  <unicode hex="0021"/>
  <outline>
    <contour>
      <point x="210" y="75" type="curve" smooth="yes"/>
      <point x="210" y="116"/>
      <point x="176" y="150"/>
      <point x="135" y="150" type="curve" smooth="yes"/>
      <point x="93" y="150"/>
      <point x="60" y="116"/>
      <point x="60" y="75" type="curve" smooth="yes"/>
      <point x="60" y="34"/>
      <point x="93" y="0"/>
      <point x="135" y="0" type="curve" smooth="yes"/>
      <point x="176" y="0"/>
      <point x="210" y="34"/>
    </contour>
    <contour>
      <point x="135" y="849" type="move"/>
      <point x="135" y="265" type="line"/>
    </contour>
  </outline>
</glyph>
<glyph name="numbersign" format="2">
  <advance width="726"/>
  <unicode hex="0023"/>
  <outline>
    <contour>
      <point x="119" y="59" type="curve" smooth="yes"/>
      <point x="250" y="804" type="line" smooth="yes"/>
      <point x="254" y="830"/>
      <point x="281" y="849"/>
      <point x="308" y="844" type="curve" smooth="yes"/>
      <point x="334" y="840"/>
      <point x="353" y="813"/>
      <point x="348" y="786" type="curve" smooth="yes"/>
      <point x="217" y="41" type="line" smooth="yes"/>
      <point x="213" y="15"/>
      <point x="186" y="-4"/>
      <point x="159" y="1" type="curve" smooth="yes"/>
      <point x="133" y="5"/>
      <point x="114" y="32"/>
    </contour>
    <contour>
      <point x="379" y="59" type="curve" smooth="yes"/>
      <point x="510" y="804" type="line" smooth="yes"/>
      <point x="514" y="830"/>
      <point x="541" y="849"/>
      <point x="568" y="844" type="curve" smooth="yes"/>
      <point x="594" y="840"/>
      <point x="613" y="813"/>
      <point x="608" y="786" type="curve" smooth="yes"/>
      <point x="477" y="41" type="line" smooth="yes"/>
      <point x="473" y="15"/>
      <point x="446" y="-4"/>
      <point x="419" y="1" type="curve" smooth="yes"/>
      <point x="393" y="5"/>
      <point x="374" y="32"/>
    </contour>
    <contour>
      <point x="100" y="315" type="curve" smooth="yes"/>
      <point x="570" y="315" type="line" smooth="yes"/>
      <point x="597" y="315"/>
      <point x="620" y="292"/>
      <point x="620" y="265" type="curve" smooth="yes"/>
      <point x="620" y="238"/>
      <point x="597" y="215"/>
      <point x="570" y="215" type="curve" smooth="yes"/>
      <point x="100" y="215" type="line" smooth="yes"/>
      <point x="73" y="215"/>
      <point x="50" y="238"/>
      <point x="50" y="265" type="curve" smooth="yes"/>
      <point x="50" y="292"/>
      <point x="73" y="315"/>
    </contour>
    <contour>
      <point x="156" y="630" type="curve" smooth="yes"/>
      <point x="626" y="630" type="line" smooth="yes"/>
      <point x="653" y="630"/>
      <point x="676" y="607"/>
      <point x="676" y="580" type="curve" smooth="yes"/>
      <point x="676" y="553"/>
      <point x="653" y="530"/>
      <point x="626" y="530" type="curve" smooth="yes"/>
      <point x="156" y="530" type="line" smooth="yes"/>
      <point x="129" y="530"/>
      <point x="106" y="553"/>
      <point x="106" y="580" type="curve" smooth="yes"/>
      <point x="106" y="607"/>
      <point x="129" y="630"/>
    </contour>
  </outline>
</glyph>
<glyph name="dollar" format="2">
  <advance width="730"/>
  <unicode hex="0024"/>
  <outline>
    <contour>
      <point x="115" y="137" type="move"/>
      <point x="165" y="73"/>
      <point x="226" y="50"/>
      <point x="312" y="50" type="curve" smooth="yes"/>
      <point x="430" y="50" type="line" smooth="yes"/>
      <point x="540" y="50"/>
      <point x="630" y="139"/>
      <point x="630" y="250" type="curve" smooth="yes"/>
      <point x="630" y="360"/>
      <point x="540" y="450"/>
      <point x="430" y="450" type="curve" smooth="yes"/>
      <point x="299" y="450" type="line" smooth="yes"/>
      <point x="189" y="450"/>
      <point x="100" y="539"/>
      <point x="100" y="650" type="curve" smooth="yes"/>
      <point x="100" y="760"/>
      <point x="189" y="850"/>
      <point x="299" y="850" type="curve" smooth="yes"/>
      <point x="418" y="850" type="line" smooth="yes"/>
      <point x="503" y="850"/>
      <point x="565" y="826"/>
      <point x="614" y="762" type="curve"/>
    </contour>
    <contour>
      <point x="365" y="-50" type="move"/>
      <point x="365" y="950" type="line"/>
    </contour>
  </outline>
</glyph>
<glyph name="percent" format="2">
  <advance width="900"/>
  <unicode hex="0025"/>
  <outline>
    <contour>
      <point x="100" y="700" type="curve" smooth="yes"/>
      <point x="100" y="617"/>
      <point x="167" y="550"/>
      <point x="250" y="550" type="curve" smooth="yes"/>
      <point x="333" y="550"/>
      <point x="400" y="617"/>
      <point x="400" y="700" type="curve" smooth="yes"/>
      <point x="400" y="783"/>
      <point x="333" y="850"/>
      <point x="250" y="850" type="curve" smooth="yes"/>
      <point x="167" y="850"/>
      <point x="100" y="783"/>
    </contour>
    <contour>
      <point x="500" y="200" type="curve" smooth="yes"/>
      <point x="500" y="117"/>
      <point x="567" y="50"/>
      <point x="650" y="50" type="curve" smooth="yes"/>
      <point x="733" y="50"/>
      <point x="800" y="117"/>
      <point x="800" y="200" type="curve" smooth="yes"/>
      <point x="800" y="283"/>
      <point x="733" y="350"/>
      <point x="650" y="350" type="curve" smooth="yes"/>
      <point x="567" y="350"/>
      <point x="500" y="283"/>
    </contour>
    <contour>
      <point x="190" y="50" type="move"/>
      <point x="710" y="850" type="line"/>
    </contour>
  </outline>
</glyph>
<glyph name="ampersand" format="2">
  <advance width="885"/>
  <unicode hex="0026"/>
  <outline>
    <contour>
      <point x="785" y="50" type="move"/>
      <point x="718" y="50" type="line" smooth="yes"/>
      <point x="673" y="50"/>
      <point x="631" y="71"/>
      <point x="605" y="108" type="curve" smooth="yes"/>
      <point x="327" y="489" type="line" smooth="yes"/>
      <point x="292" y="536"/>
      <point x="229" y="598"/>
      <point x="229" y="689" type="curve" smooth="yes"/>
      <point x="229" y="775"/>
      <point x="299" y="850"/>
      <point x="396" y="850" type="curve" smooth="yes"/>
      <point x="491" y="850"/>
      <point x="558" y="775"/>
      <point x="558" y="689" type="curve" smooth="yes"/>
      <point x="558" y="598"/>
      <point x="484" y="519"/>
      <point x="348" y="494" type="curve" smooth="yes"/>
      <point x="195" y="465"/>
      <point x="100" y="381"/>
      <point x="100" y="243" type="curve" smooth="yes"/>
      <point x="100" y="132"/>
      <point x="170" y="50"/>
      <point x="311" y="50" type="curve" smooth="yes"/>
      <point x="495" y="50"/>
      <point x="604" y="225"/>
      <point x="764" y="440" type="curve"/>
    </contour>
  </outline>
</glyph>
<glyph name="quotesingle" format="2">
  <advance width="160"/>
  <unicode hex="0027"/>
  <outline>
    <contour>
      <point x="30" y="630" type="curve" smooth="yes"/>
      <point x="30" y="850" type="line" smooth="yes"/>
      <point x="30" y="877"/>
      <point x="53" y="900"/>
      <point x="80" y="900" type="curve" smooth="yes"/>
      <point x="107" y="900"/>
      <point x="130" y="877"/>
      <point x="130" y="850" type="curve" smooth="yes"/>
      <point x="130" y="630" type="line" smooth="yes"/>
      <point x="130" y="603"/>
      <point x="107" y="580"/>
      <point x="80" y="580" type="curve" smooth="yes"/>
      <point x="53" y="580"/>
      <point x="30" y="603"/>
    </contour>
  </outline>
</glyph>
<glyph name="parenright" format="2">
  <advance width="400"/>
  <unicode hex="0029"/>
  <outline>
    <contour>
      <point x="133" y="887" type="curve" smooth="yes"/>
      <point x="133" y="887"/>
      <point x="350" y="696"/>
      <point x="350" y="370" type="curve" smooth="yes"/>
      <point x="350" y="43"/>
      <point x="133" y="-147"/>
      <point x="133" y="-147" type="curve" smooth="yes"/>
      <point x="113" y="-165"/>
      <point x="81" y="-163"/>
      <point x="63" y="-143" type="curve" smooth="yes"/>
      <point x="45" y="-123"/>
      <point x="47" y="-91"/>
      <point x="67" y="-73" type="curve" smooth="yes"/>
      <point x="67" y="-73"/>
      <point x="250" y="91"/>
      <point x="250" y="370" type="curve" smooth="yes"/>
      <point x="250" y="648"/>
      <point x="67" y="813"/>
      <point x="67" y="813" type="curve" smooth="yes"/>
      <point x="47" y="831"/>
      <point x="45" y="863"/>
      <point x="63" y="883" type="curve" smooth="yes"/>
      <point x="81" y="903"/>
      <point x="113" y="905"/>
    </contour>
  </outline>
</glyph>
<glyph name="asterisk" format="2">
  <advance width="477"/>
  <unicode hex="002A"/>
  <outline>
    <contour>
      <point x="288" y="850" type="curve" smooth="yes"/>
      <point x="288" y="530" type="line" smooth="yes"/>
      <point x="288" y="503"/>
      <point x="265" y="480"/>
      <point x="238" y="480" type="curve" smooth="yes"/>
      <point x="211" y="480"/>
      <point x="188" y="503"/>
      <point x="188" y="530" type="curve" smooth="yes"/>
      <point x="188" y="850" type="line" smooth="yes"/>
      <point x="188" y="877"/>
      <point x="211" y="900"/>
      <point x="238" y="900" type="curve" smooth="yes"/>
      <point x="265" y="900"/>
      <point x="288" y="877"/>
    </contour>
    <contour>
      <point x="125" y="813" type="curve" smooth="yes"/>
      <point x="402" y="653" type="line" smooth="yes"/>
      <point x="425" y="640"/>
      <point x="434" y="608"/>
      <point x="420" y="585" type="curve" smooth="yes"/>
      <point x="407" y="562"/>
      <point x="375" y="553"/>
      <point x="352" y="567" type="curve" smooth="yes"/>
      <point x="75" y="727" type="line" smooth="yes"/>
      <point x="52" y="740"/>
      <point x="43" y="772"/>
      <point x="57" y="795" type="curve" smooth="yes"/>
      <point x="70" y="818"/>
      <point x="102" y="827"/>
    </contour>
    <contour>
      <point x="75" y="653" type="curve" smooth="yes"/>
      <point x="352" y="813" type="line" smooth="yes"/>
      <point x="375" y="827"/>
      <point x="407" y="818"/>
      <point x="420" y="795" type="curve" smooth="yes"/>
      <point x="434" y="772"/>
      <point x="425" y="740"/>
      <point x="402" y="727" type="curve" smooth="yes"/>
      <point x="125" y="567" type="line" smooth="yes"/>
      <point x="102" y="553"/>
      <point x="70" y="562"/>
      <point x="57" y="585" type="curve" smooth="yes"/>
      <point x="43" y="608"/>
      <point x="52" y="640"/>
    </contour>
  </outline>
</glyph>
<glyph name="plus" format="2">
  <advance width="700"/>
  <unicode hex="002B"/>
  <outline>
    <contour>
      <point x="150" y="365" type="curve" smooth="yes"/>
      <point x="550" y="365" type="line" smooth="yes"/>
      <point x="577" y="365"/>
      <point x="600" y="342"/>
      <point x="600" y="315" type="curve" smooth="yes"/>
      <point x="600" y="288"/>
      <point x="577" y="265"/>
      <point x="550" y="265" type="curve" smooth="yes"/>
      <point x="150" y="265" type="line" smooth="yes"/>
      <point x="123" y="265"/>
      <point x="100" y="288"/>
      <point x="100" y="315" type="curve" smooth="yes"/>
      <point x="100" y="342"/>
      <point x="123" y="365"/>
    </contour>
    <contour>
      <point x="400" y="515" type="curve" smooth="yes"/>
      <point x="400" y="115" type="line" smooth="yes"/>
      <point x="400" y="88"/>
      <point x="377" y="65"/>
      <point x="350" y="65" type="curve" smooth="yes"/>
      <point x="323" y="65"/>
      <point x="300" y="88"/>
      <point x="300" y="115" type="curve" smooth="yes"/>
      <point x="300" y="515" type="line" smooth="yes"/>
      <point x="300" y="542"/>
      <point x="323" y="565"/>
      <point x="350" y="565" type="curve" smooth="yes"/>
      <point x="377" y="565"/>
      <point x="400" y="542"/>
    </contour>
  </outline>
</glyph>
<glyph name="comma" format="2">
  <advance width="270"/>
  <unicode hex="002C"/>
  <outline>
    <contour>
      <point x="110" y="-99" type="move"/>
      <point x="160" y="-74"/>
      <point x="160" y="-25"/>
      <point x="160" y="0" type="curve" smooth="yes"/>
      <point x="160" y="66" type="line"/>
    </contour>
    <contour>
      <point x="210" y="75" type="curve" smooth="yes"/>
      <point x="210" y="117"/>
      <point x="177" y="150"/>
      <point x="135" y="150" type="curve" smooth="yes"/>
      <point x="94" y="150"/>
      <point x="60" y="117"/>
      <point x="60" y="75" type="curve" smooth="yes"/>
      <point x="60" y="34"/>
      <point x="94" y="0"/>
      <point x="135" y="0" type="curve" smooth="yes"/>
      <point x="177" y="0"/>
      <point x="210" y="34"/>
    </contour>
  </outline>
</glyph>
<glyph name="hyphen" format="2">
  <advance width="600"/>
  <unicode hex="002D"/>
  <outline>
    <contour>
      <point x="100" y="315" type="move"/>
      <point x="500" y="315" type="line"/>
    </contour>
  </outline>
</glyph>
<glyph name="period" format="2">
  <advance width="270"/>
  <unicode hex="002E"/>
  <outline>
    <contour>
      <point x="260" y="75" type="curve" smooth="yes"/>
      <point x="260" y="7"/>
      <point x="203" y="-50"/>
      <point x="135" y="-50" type="curve" smooth="yes"/>
      <point x="65" y="-50"/>
      <point x="10" y="7"/>
      <point x="10" y="75" type="curve" smooth="yes"/>
      <point x="10" y="143"/>
      <point x="65" y="200"/>
      <point x="135" y="200" type="curve" smooth="yes"/>
      <point x="203" y="200"/>
      <point x="260" y="143"/>
    </contour>
    <contour>
      <point x="160" y="75" type="curve" smooth="yes"/>
      <point x="160" y="89"/>
      <point x="149" y="100"/>
      <point x="135" y="100" type="curve" smooth="yes"/>
      <point x="121" y="100"/>
      <point x="110" y="89"/>
      <point x="110" y="75" type="curve" smooth="yes"/>
      <point x="110" y="61"/>
      <point x="121" y="50"/>
      <point x="135" y="50" type="curve" smooth="yes"/>
      <point x="149" y="50"/>
      <point x="160" y="61"/>
    </contour>
  </outline>
</glyph>
<glyph name="slash" format="2">
  <advance width="500"/>
  <unicode hex="002F"/>
  <outline>
    <contour>
      <point x="448" y="836" type="curve" smooth="yes"/>
      <point x="148" y="-179" type="line" smooth="yes"/>
      <point x="140" y="-205"/>
      <point x="112" y="-221"/>
      <point x="86" y="-213" type="curve" smooth="yes"/>
      <point x="60" y="-205"/>
      <point x="44" y="-177"/>
      <point x="52" y="-151" type="curve" smooth="yes"/>
      <point x="352" y="864" type="line" smooth="yes"/>
      <point x="360" y="890"/>
      <point x="388" y="906"/>
      <point x="414" y="898" type="curve" smooth="yes"/>
      <point x="440" y="890"/>
      <point x="456" y="862"/>
    </contour>
  </outline>
</glyph>
<glyph name="zero" format="2">
  <advance width="730"/>
  <unicode hex="0030"/>
  <outline>
    <contour>
      <point x="580" y="315" type="curve" smooth="yes"/>
      <point x="580" y="585" type="line" smooth="yes"/>
      <point x="580" y="703"/>
      <point x="483" y="800"/>
      <point x="365" y="800" type="curve" smooth="yes"/>
      <point x="247" y="800"/>
      <point x="150" y="703"/>
      <point x="150" y="585" type="curve" smooth="yes"/>
      <point x="150" y="315" type="line" smooth="yes"/>
      <point x="150" y="197"/>
      <point x="247" y="100"/>
      <point x="365" y="100" type="curve" smooth="yes"/>
      <point x="483" y="100"/>
      <point x="580" y="197"/>
    </contour>
    <contour>
      <point x="610" y="728" type="curve" smooth="yes"/>
      <point x="204" y="116" type="line" smooth="yes"/>
      <point x="189" y="94"/>
      <point x="157" y="87"/>
      <point x="134" y="102" type="curve" smooth="yes"/>
      <point x="112" y="117"/>
      <point x="105" y="149"/>
      <point x="120" y="172" type="curve" smooth="yes"/>
      <point x="526" y="784" type="line" smooth="yes"/>
      <point x="541" y="806"/>
      <point x="573" y="813"/>
      <point x="596" y="798" type="curve" smooth="yes"/>
      <point x="618" y="783"/>
      <point x="625" y="751"/>
    </contour>
    <contour>
      <point x="680" y="315" type="line" smooth="yes"/>
      <point x="680" y="141"/>
      <point x="539" y="0"/>
      <point x="365" y="0" type="curve" smooth="yes"/>
      <point x="191" y="0"/>
      <point x="50" y="141"/>
      <point x="50" y="315" type="curve" smooth="yes"/>
      <point x="50" y="585" type="line" smooth="yes"/>
      <point x="50" y="759"/>
      <point x="191" y="900"/>
      <point x="365" y="900" type="curve" smooth="yes"/>
      <point x="539" y="900"/>
      <point x="680" y="759"/>
      <point x="680" y="585" type="curve" smooth="yes"/>
    </contour>
  </outline>
</glyph>
<glyph name="one" format="2">
  <advance width="400"/>
  <unicode hex="0031"/>
  <outline>
    <contour>
      <point x="350" y="850" type="curve" smooth="yes"/>
      <point x="350" y="50" type="line" smooth="yes"/>
      <point x="350" y="23"/>
      <point x="327" y="0"/>
      <point x="300" y="0" type="curve" smooth="yes"/>
      <point x="273" y="0"/>
      <point x="250" y="23"/>
      <point x="250" y="50" type="curve" smooth="yes"/>
      <point x="250" y="850" type="line" smooth="yes"/>
      <point x="250" y="877"/>
      <point x="273" y="900"/>
      <point x="300" y="900" type="curve" smooth="yes"/>
      <point x="327" y="900"/>
      <point x="350" y="877"/>
    </contour>
    <contour>
      <point x="76" y="785" type="curve" smooth="yes"/>
      <point x="276" y="894" type="line" smooth="yes"/>
      <point x="300" y="907"/>
      <point x="331" y="898"/>
      <point x="344" y="874" type="curve" smooth="yes"/>
      <point x="357" y="850"/>
      <point x="348" y="819"/>
      <point x="324" y="806" type="curve" smooth="yes"/>
      <point x="124" y="697" type="line" smooth="yes"/>
      <point x="100" y="684"/>
      <point x="69" y="693"/>
      <point x="56" y="717" type="curve" smooth="yes"/>
      <point x="43" y="741"/>
      <point x="52" y="772"/>
    </contour>
  </outline>
</glyph>
<glyph name="two" format="2">
  <advance width="730"/>
  <unicode hex="0032"/>
  <outline>
    <contour>
      <point x="70" y="90" type="curve" smooth="yes"/>
      <point x="71" y="90"/>
      <point x="414" y="342"/>
      <point x="520" y="436" type="curve" smooth="yes"/>
      <point x="561" y="471"/>
      <point x="580" y="527"/>
      <point x="580" y="585" type="curve" smooth="yes"/>
      <point x="580" y="703"/>
      <point x="484" y="800"/>
      <point x="365" y="800" type="curve" smooth="yes"/>
      <point x="247" y="800"/>
      <point x="150" y="703"/>
      <point x="150" y="585" type="curve" smooth="yes"/>
      <point x="150" y="558"/>
      <point x="127" y="535"/>
      <point x="100" y="535" type="curve" smooth="yes"/>
      <point x="73" y="535"/>
      <point x="50" y="558"/>
      <point x="50" y="585" type="curve" smooth="yes"/>
      <point x="50" y="759"/>
      <point x="191" y="900"/>
      <point x="365" y="900" type="curve" smooth="yes"/>
      <point x="540" y="900"/>
      <point x="680" y="759"/>
      <point x="680" y="585" type="curve" smooth="yes"/>
      <point x="680" y="497"/>
      <point x="647" y="413"/>
      <point x="586" y="360" type="curve" smooth="yes"/>
      <point x="478" y="266"/>
      <point x="130" y="10"/>
      <point x="130" y="10" type="curve" smooth="yes"/>
      <point x="108" y="-6"/>
      <point x="76" y="-1"/>
      <point x="60" y="20" type="curve" smooth="yes"/>
      <point x="44" y="42"/>
      <point x="49" y="74"/>
    </contour>
    <contour>
      <point x="630" y="0" type="curve" smooth="yes"/>
      <point x="100" y="0" type="line" smooth="yes"/>
      <point x="73" y="0"/>
      <point x="50" y="23"/>
      <point x="50" y="50" type="curve" smooth="yes"/>
      <point x="50" y="77"/>
      <point x="73" y="100"/>
      <point x="100" y="100" type="curve" smooth="yes"/>
      <point x="630" y="100" type="line" smooth="yes"/>
      <point x="657" y="100"/>
      <point x="680" y="77"/>
      <point x="680" y="50" type="curve" smooth="yes"/>
      <point x="680" y="23"/>
      <point x="657" y="0"/>
    </contour>
  </outline>
</glyph>
<glyph name="three" format="2">
  <advance width="680"/>
  <unicode hex="0033"/>
  <outline>
    <contour>
      <point x="68" y="822" type="curve" smooth="yes"/>
      <point x="131" y="873"/>
      <point x="197" y="900"/>
      <point x="349" y="900" type="curve" smooth="yes"/>
      <point x="380" y="900" type="line" smooth="yes"/>
      <point x="519" y="900"/>
      <point x="630" y="788"/>
      <point x="630" y="650" type="curve" smooth="yes"/>
      <point x="630" y="513"/>
      <point x="519" y="400"/>
      <point x="380" y="400" type="curve" smooth="yes"/>
      <point x="353" y="400"/>
      <point x="330" y="423"/>
      <point x="330" y="450" type="curve" smooth="yes"/>
      <point x="330" y="477"/>
      <point x="353" y="500"/>
      <point x="380" y="500" type="curve" smooth="yes"/>
      <point x="463" y="500"/>
      <point x="530" y="568"/>
      <point x="530" y="650" type="curve" smooth="yes"/>
      <point x="530" y="733"/>
      <point x="463" y="800"/>
      <point x="380" y="800" type="curve" smooth="yes"/>
      <point x="349" y="800" type="line" smooth="yes"/>
      <point x="233" y="800"/>
      <point x="181" y="785"/>
      <point x="132" y="744" type="curve" smooth="yes"/>
      <point x="111" y="727"/>
      <point x="79" y="730"/>
      <point x="61" y="751" type="curve" smooth="yes"/>
      <point x="44" y="772"/>
      <point x="47" y="804"/>
    </contour>
    <contour>
      <point x="132" y="156" type="curve" smooth="yes"/>
      <point x="181" y="115"/>
      <point x="233" y="100"/>
      <point x="349" y="100" type="curve" smooth="yes"/>
      <point x="380" y="100" type="line" smooth="yes"/>
      <point x="463" y="100"/>
      <point x="530" y="168"/>
      <point x="530" y="250" type="curve" smooth="yes"/>
      <point x="530" y="333"/>
      <point x="463" y="400"/>
      <point x="380" y="400" type="curve" smooth="yes"/>
      <point x="353" y="400"/>
      <point x="330" y="423"/>
      <point x="330" y="450" type="curve" smooth="yes"/>
      <point x="330" y="477"/>
      <point x="353" y="500"/>
      <point x="380" y="500" type="curve" smooth="yes"/>
      <point x="519" y="500"/>
      <point x="630" y="388"/>
      <point x="630" y="250" type="curve" smooth="yes"/>
      <point x="630" y="113"/>
      <point x="519" y="0"/>
      <point x="380" y="0" type="curve" smooth="yes"/>
      <point x="349" y="0" type="line" smooth="yes"/>
      <point x="197" y="0"/>
      <point x="131" y="27"/>
      <point x="68" y="78" type="curve" smooth="yes"/>
      <point x="47" y="96"/>
      <point x="44" y="128"/>
      <point x="61" y="149" type="curve" smooth="yes"/>
      <point x="79" y="170"/>
      <point x="111" y="173"/>
    </contour>
    <contour>
      <point x="227" y="500" type="curve" smooth="yes"/>
      <point x="381" y="500" type="line" smooth="yes"/>
      <point x="408" y="500"/>
      <point x="431" y="477"/>
      <point x="431" y="450" type="curve" smooth="yes"/>
      <point x="431" y="423"/>
      <point x="408" y="400"/>
      <point x="381" y="400" type="curve" smooth="yes"/>
      <point x="227" y="400" type="line" smooth="yes"/>
      <point x="200" y="400"/>
      <point x="177" y="423"/>
      <point x="177" y="450" type="curve" smooth="yes"/>
      <point x="177" y="477"/>
      <point x="200" y="500"/>
    </contour>
  </outline>
</glyph>
<glyph name="four" format="2">
  <advance width="730"/>
  <unicode hex="0034"/>
  <outline>
    <contour>
      <point x="529" y="850" type="move"/>
      <point x="100" y="313" type="line"/>
    </contour>
    <contour>
      <point x="100" y="313" type="move"/>
      <point x="630" y="313" type="line"/>
    </contour>
    <contour>
      <point x="529" y="50" type="move"/>
      <point x="529" y="850" type="line"/>
    </contour>
  </outline>
</glyph>
<glyph name="five" format="2">
  <advance width="690"/>
  <unicode hex="0035"/>
  <outline>
    <contour>
      <point x="132" y="156" type="curve" smooth="yes"/>
      <point x="180" y="116"/>
      <point x="227" y="100"/>
      <point x="343" y="100" type="curve" smooth="yes"/>
      <point x="365" y="100" type="line" smooth="yes"/>
      <point x="462" y="100"/>
      <point x="540" y="179"/>
      <point x="540" y="275" type="curve" smooth="yes"/>
      <point x="540" y="371"/>
      <point x="462" y="450"/>
      <point x="365" y="450" type="curve" smooth="yes"/>
      <point x="100" y="450" type="line" smooth="yes"/>
      <point x="73" y="450"/>
      <point x="50" y="473"/>
      <point x="50" y="500" type="curve" smooth="yes"/>
      <point x="50" y="527"/>
      <point x="73" y="550"/>
      <point x="100" y="550" type="curve" smooth="yes"/>
      <point x="365" y="550" type="line" smooth="yes"/>
      <point x="518" y="550"/>
      <point x="640" y="427"/>
      <point x="640" y="275" type="curve" smooth="yes"/>
      <point x="640" y="123"/>
      <point x="518" y="0"/>
      <point x="365" y="0" type="curve" smooth="yes"/>
      <point x="343" y="0" type="line" smooth="yes"/>
      <point x="191" y="0"/>
      <point x="132" y="26"/>
      <point x="68" y="78" type="curve" smooth="yes"/>
      <point x="47" y="96"/>
      <point x="44" y="128"/>
      <point x="61" y="149" type="curve" smooth="yes"/>
      <point x="79" y="170"/>
      <point x="111" y="173"/>
    </contour>
    <contour>
      <point x="100" y="900" type="curve" smooth="yes"/>
      <point x="590" y="900" type="line" smooth="yes"/>
      <point x="617" y="900"/>
      <point x="640" y="877"/>
      <point x="640" y="850" type="curve" smooth="yes"/>
      <point x="640" y="823"/>
      <point x="617" y="800"/>
      <point x="590" y="800" type="curve" smooth="yes"/>
      <point x="100" y="800" type="line" smooth="yes"/>
      <point x="73" y="800"/>
      <point x="50" y="823"/>
      <point x="50" y="850" type="curve" smooth="yes"/>
      <point x="50" y="877"/>
      <point x="73" y="900"/>
    </contour>
    <contour>
      <point x="50" y="500" type="curve" smooth="yes"/>
      <point x="50" y="850" type="line" smooth="yes"/>
      <point x="50" y="877"/>
      <point x="73" y="900"/>
      <point x="100" y="900" type="curve" smooth="yes"/>
      <point x="127" y="900"/>
      <point x="150" y="877"/>
      <point x="150" y="850" type="curve" smooth="yes"/>
      <point x="150" y="500" type="line" smooth="yes"/>
      <point x="150" y="473"/>
      <point x="127" y="450"/>
      <point x="100" y="450" type="curve" smooth="yes"/>
      <point x="73" y="450"/>
      <point x="50" y="473"/>
    </contour>
  </outline>
</glyph>
<glyph name="six" format="2">
  <advance width="730"/>
  <unicode hex="0036"/>
  <outline>
    <contour>
      <point x="630" y="315" type="curve" smooth="yes"/>
      <point x="630" y="169"/>
      <point x="512" y="50"/>
      <point x="365" y="50" type="curve" smooth="yes"/>
      <point x="219" y="50"/>
      <point x="100" y="169"/>
      <point x="100" y="315" type="curve" smooth="yes"/>
      <point x="100" y="461"/>
      <point x="219" y="580"/>
      <point x="365" y="580" type="curve" smooth="yes"/>
      <point x="512" y="580"/>
      <point x="630" y="461"/>
    </contour>
    <contour>
      <point x="607" y="752" type="move"/>
      <point x="563" y="810"/>
      <point x="496" y="850"/>
      <point x="384" y="850" type="curve" smooth="yes"/>
      <point x="365" y="850" type="line" smooth="yes"/>
      <point x="219" y="850"/>
      <point x="100" y="731"/>
      <point x="100" y="585" type="curve" smooth="yes"/>
      <point x="100" y="315" type="line"/>
    </contour>
  </outline>
</glyph>
<glyph name="seven" format="2">
  <advance width="710"/>
  <unicode hex="0037"/>
  <outline>
    <contour>
      <point x="630" y="850" type="move"/>
      <point x="100" y="850" type="line"/>
    </contour>
    <contour>
      <point x="200" y="50" type="move"/>
      <point x="630" y="850" type="line"/>
    </contour>
  </outline>
</glyph>
<glyph name="eight" format="2">
  <advance width="730"/>
  <unicode hex="0038"/>
  <outline>
    <contour>
      <point x="430" y="450" type="move"/>
      <point x="541" y="450"/>
      <point x="630" y="360"/>
      <point x="630" y="250" type="curve" smooth="yes"/>
      <point x="630" y="140"/>
      <point x="541" y="50"/>
      <point x="430" y="50" type="curve" smooth="yes"/>
      <point x="300" y="50" type="line" smooth="yes"/>
      <point x="190" y="50"/>
      <point x="100" y="140"/>
      <point x="100" y="250" type="curve" smooth="yes"/>
      <point x="100" y="360"/>
      <point x="190" y="450"/>
      <point x="300" y="450" type="curve"/>
    </contour>
    <contour>
      <point x="300" y="450" type="move"/>
      <point x="190" y="450"/>
      <point x="100" y="540"/>
      <point x="100" y="650" type="curve" smooth="yes"/>
      <point x="100" y="760"/>
      <point x="190" y="850"/>
      <point x="300" y="850" type="curve" smooth="yes"/>
      <point x="430" y="850" type="line" smooth="yes"/>
      <point x="541" y="850"/>
      <point x="630" y="760"/>
      <point x="630" y="650" type="curve" smooth="yes"/>
      <point x="630" y="540"/>
      <point x="541" y="450"/>
      <point x="430" y="450" type="curve"/>
    </contour>
    <contour>
      <point x="300" y="450" type="move"/>
      <point x="430" y="450" type="line"/>
    </contour>
  </outline>
</glyph>
<glyph name="nine" format="2">
  <advance width="730"/>
  <unicode hex="0039"/>
  <outline>
    <contour>
      <point x="100" y="585" type="curve" smooth="yes"/>
      <point x="100" y="731"/>
      <point x="219" y="850"/>
      <point x="365" y="850" type="curve" smooth="yes"/>
      <point x="512" y="850"/>
      <point x="630" y="731"/>
      <point x="630" y="585" type="curve" smooth="yes"/>
      <point x="630" y="439"/>
      <point x="512" y="320"/>
      <point x="365" y="320" type="curve" smooth="yes"/>
      <point x="219" y="320"/>
      <point x="100" y="439"/>
    </contour>
    <contour>
      <point x="124" y="148" type="move"/>
      <point x="168" y="90"/>
      <point x="235" y="50"/>
      <point x="347" y="50" type="curve" smooth="yes"/>
      <point x="365" y="50" type="line" smooth="yes"/>
      <point x="512" y="50"/>
      <point x="630" y="169"/>
      <point x="630" y="315" type="curve" smooth="yes"/>
      <point x="630" y="585" type="line"/>
    </contour>
  </outline>
</glyph>
<glyph name="colon" format="2">
  <advance width="270"/>
  <unicode hex="003A"/>
  <outline>
    <contour>
      <point x="260" y="75" type="curve" smooth="yes"/>
      <point x="260" y="7"/>
      <point x="203" y="-50"/>
      <point x="135" y="-50" type="curve" smooth="yes"/>
      <point x="65" y="-50"/>
      <point x="10" y="7"/>
      <point x="10" y="75" type="curve" smooth="yes"/>
      <point x="10" y="143"/>
      <point x="65" y="200"/>
      <point x="135" y="200" type="curve" smooth="yes"/>
      <point x="203" y="200"/>
      <point x="260" y="143"/>
    </contour>
    <contour>
      <point x="260" y="579" type="curve" smooth="yes"/>
      <point x="260" y="511"/>
      <point x="203" y="454"/>
      <point x="135" y="454" type="curve" smooth="yes"/>
      <point x="65" y="454"/>
      <point x="10" y="511"/>
      <point x="10" y="579" type="curve" smooth="yes"/>
      <point x="10" y="647"/>
      <point x="65" y="704"/>
      <point x="135" y="704" type="curve" smooth="yes"/>
      <point x="203" y="704"/>
      <point x="260" y="647"/>
    </contour>
    <contour>
      <point x="160" y="75" type="curve" smooth="yes"/>
      <point x="160" y="89"/>
      <point x="149" y="100"/>
      <point x="135" y="100" type="curve" smooth="yes"/>
      <point x="121" y="100"/>
      <point x="110" y="89"/>
      <point x="110" y="75" type="curve" smooth="yes"/>
      <point x="110" y="61"/>
      <point x="121" y="50"/>
      <point x="135" y="50" type="curve" smooth="yes"/>
      <point x="149" y="50"/>
      <point x="160" y="61"/>
    </contour>
    <contour>
      <point x="160" y="579" type="curve" smooth="yes"/>
      <point x="160" y="593"/>
      <point x="149" y="604"/>
      <point x="135" y="604" type="curve" smooth="yes"/>
      <point x="121" y="604"/>
      <point x="110" y="593"/>
      <point x="110" y="579" type="curve" smooth="yes"/>
      <point x="110" y="565"/>
      <point x="121" y="554"/>
      <point x="135" y="554" type="curve" smooth="yes"/>
      <point x="149" y="554"/>
      <point x="160" y="565"/>
    </contour>
  </outline>
</glyph>
<glyph name="semicolon" format="2">
  <advance width="270"/>
  <unicode hex="003B"/>
  <outline>
    <contour>
      <point x="110" y="-99" type="move"/>
      <point x="160" y="-74"/>
      <point x="160" y="-25"/>
      <point x="160" y="0" type="curve" smooth="yes"/>
      <point x="160" y="66" type="line"/>
    </contour>
    <contour>
      <point x="210" y="75" type="curve" smooth="yes"/>
      <point x="210" y="117"/>
      <point x="177" y="150"/>
      <point x="135" y="150" type="curve" smooth="yes"/>
      <point x="94" y="150"/>
      <point x="60" y="117"/>
      <point x="60" y="75" type="curve" smooth="yes"/>
      <point x="60" y="34"/>
      <point x="94" y="0"/>
      <point x="135" y="0" type="curve" smooth="yes"/>
      <point x="177" y="0"/>
      <point x="210" y="34"/>
    </contour>
    <contour>
      <point x="210" y="579" type="curve" smooth="yes"/>
      <point x="210" y="620"/>
      <point x="176" y="654"/>
      <point x="135" y="654" type="curve" smooth="yes"/>
      <point x="93" y="654"/>
      <point x="60" y="620"/>
      <point x="60" y="579" type="curve" smooth="yes"/>
      <point x="60" y="538"/>
      <point x="93" y="504"/>
      <point x="135" y="504" type="curve" smooth="yes"/>
      <point x="176" y="504"/>
      <point x="210" y="538"/>
    </contour>
  </outline>
</glyph>
<glyph name="equal" format="2">
  <advance width="700"/>
  <unicode hex="003D"/>
  <outline>
    <contour>
      <point x="100" y="165" type="move"/>
      <point x="600" y="165" type="line"/>
    </contour>
    <contour>
      <point x="100" y="465" type="move"/>
      <point x="600" y="465" type="line"/>
    </contour>
  </outline>
</glyph>
<glyph name="greater" format="2">
  <advance width="700"/>
  <unicode hex="003E"/>
  <outline>
    <contour>
      <point x="577" y="271" type="curve" smooth="yes"/>
      <point x="77" y="536" type="line" smooth="yes"/>
      <point x="53" y="548"/>
      <point x="43" y="580"/>
      <point x="56" y="603" type="curve" smooth="yes"/>
      <point x="68" y="627"/>
      <point x="100" y="637"/>
      <point x="123" y="624" type="curve" smooth="yes"/>
      <point x="623" y="359" type="line" smooth="yes"/>
      <point x="647" y="347"/>
      <point x="657" y="315"/>
      <point x="644" y="292" type="curve" smooth="yes"/>
      <point x="632" y="268"/>
      <point x="600" y="258"/>
    </contour>
    <contour>
      <point x="77" y="94" type="curve" smooth="yes"/>
      <point x="577" y="359" type="line" smooth="yes"/>
      <point x="600" y="372"/>
      <point x="632" y="362"/>
      <point x="644" y="338" type="curve" smooth="yes"/>
      <point x="657" y="315"/>
      <point x="647" y="283"/>
      <point x="623" y="271" type="curve" smooth="yes"/>
      <point x="123" y="6" type="line" smooth="yes"/>
      <point x="100" y="-7"/>
      <point x="68" y="3"/>
      <point x="56" y="27" type="curve" smooth="yes"/>
      <point x="43" y="50"/>
      <point x="53" y="82"/>
    </contour>
  </outline>
</glyph>
<glyph name="question" format="2">
  <advance width="640"/>
  <unicode hex="003F"/>
  <outline>
    <contour>
      <point x="319" y="265" type="move"/>
      <point x="319" y="280" type="line" smooth="yes"/>
      <point x="319" y="373"/>
      <point x="430" y="438"/>
      <point x="475" y="474" type="curve" smooth="yes"/>
      <point x="519" y="510"/>
      <point x="540" y="569"/>
      <point x="540" y="630" type="curve" smooth="yes"/>
      <point x="540" y="752"/>
      <point x="441" y="850"/>
      <point x="320" y="850" type="curve" smooth="yes"/>
      <point x="259" y="850"/>
      <point x="204" y="825"/>
      <point x="164" y="786" type="curve" smooth="yes"/>
      <point x="124" y="746"/>
      <point x="100" y="691"/>
      <point x="100" y="630" type="curve"/>
    </contour>
    <contour>
      <point x="395" y="75" type="curve" smooth="yes"/>
      <point x="395" y="116"/>
      <point x="361" y="150"/>
      <point x="320" y="150" type="curve" smooth="yes"/>
      <point x="278" y="150"/>
      <point x="245" y="116"/>
      <point x="245" y="75" type="curve" smooth="yes"/>
      <point x="245" y="34"/>
      <point x="278" y="0"/>
      <point x="320" y="0" type="curve" smooth="yes"/>
      <point x="361" y="0"/>
      <point x="395" y="34"/>
    </contour>
  </outline>
</glyph>
<glyph name="at" format="2">
  <advance width="1099"/>
  <unicode hex="0040"/>
  <outline>
    <contour>
      <point x="715" y="563" type="move"/>
      <point x="715" y="563"/>
      <point x="692" y="323"/>
      <point x="686" y="235" type="curve" smooth="yes"/>
      <point x="682" y="177"/>
      <point x="745" y="142"/>
      <point x="799" y="142" type="curve" smooth="yes"/>
      <point x="921" y="142"/>
      <point x="991" y="249"/>
      <point x="998" y="399" type="curve" smooth="yes"/>
      <point x="1014" y="706"/>
      <point x="826" y="850"/>
      <point x="570" y="850" type="curve" smooth="yes"/>
      <point x="324" y="850"/>
      <point x="126" y="659"/>
      <point x="102" y="399" type="curve" smooth="yes"/>
      <point x="83" y="182"/>
      <point x="201" y="-110"/>
      <point x="513" y="-110" type="curve" smooth="yes"/>
      <point x="624" y="-110"/>
      <point x="716" y="-96"/>
      <point x="787" y="-48" type="curve"/>
    </contour>
    <contour>
      <point x="693" y="323" type="move"/>
      <point x="686" y="242"/>
      <point x="615" y="177"/>
      <point x="535" y="177" type="curve" smooth="yes"/>
      <point x="454" y="177"/>
      <point x="394" y="242"/>
      <point x="401" y="323" type="curve" smooth="yes"/>
      <point x="409" y="417" type="line" smooth="yes"/>
      <point x="417" y="498"/>
      <point x="488" y="563"/>
      <point x="569" y="563" type="curve" smooth="yes"/>
      <point x="649" y="563"/>
      <point x="709" y="499"/>
      <point x="701" y="418" type="curve"/>
    </contour>
  </outline>
</glyph>
<glyph name="A" format="2">
  <advance width="730"/>
  <unicode hex="0041"/>
  <anchor x="365" y="50" name="bottom"/>
  <anchor x="680" y="0" name="ogonek"/>
  <anchor x="365" y="900" name="top"/>
  <outline>
    <contour>
      <point x="542" y="315" type="move"/>
      <point x="188" y="315" type="line"/>
    </contour>
    <contour>
      <point x="100" y="50" type="move"/>
      <point x="365" y="850" type="line"/>
    </contour>
    <contour>
      <point x="630" y="50" type="move"/>
      <point x="365" y="850" type="line"/>
    </contour>
  </outline>
</glyph>
<glyph name="B" format="2">
  <advance width="730"/>
  <unicode hex="0042"/>
  <anchor x="365" y="50" name="bottom"/>
  <anchor x="365" y="475" name="center"/>
  <anchor x="365" y="900" name="top"/>
  <outline>
    <contour>
      <point x="100" y="900" type="curve" smooth="yes"/>
      <point x="430" y="900" type="line" smooth="yes"/>
      <point x="569" y="900"/>
      <point x="680" y="788"/>
      <point x="680" y="650" type="curve" smooth="yes"/>
      <point x="680" y="513"/>
      <point x="569" y="400"/>
      <point x="430" y="400" type="curve" smooth="yes"/>
      <point x="403" y="400"/>
      <point x="380" y="423"/>
      <point x="380" y="450" type="curve" smooth="yes"/>
      <point x="380" y="477"/>
      <point x="403" y="500"/>
      <point x="430" y="500" type="curve" smooth="yes"/>
      <point x="513" y="500"/>
      <point x="580" y="568"/>
      <point x="580" y="650" type="curve" smooth="yes"/>
      <point x="580" y="733"/>
      <point x="513" y="800"/>
      <point x="430" y="800" type="curve" smooth="yes"/>
      <point x="100" y="800" type="line" smooth="yes"/>
      <point x="73" y="800"/>
      <point x="50" y="823"/>
      <point x="50" y="850" type="curve" smooth="yes"/>
      <point x="50" y="877"/>
      <point x="73" y="900"/>
    </contour>
    <contour>
      <point x="430" y="400" type="curve" smooth="yes"/>
      <point x="100" y="400" type="line" smooth="yes"/>
      <point x="73" y="400"/>
      <point x="50" y="423"/>
      <point x="50" y="450" type="curve" smooth="yes"/>
      <point x="50" y="477"/>
      <point x="73" y="500"/>
      <point x="100" y="500" type="curve" smooth="yes"/>
      <point x="430" y="500" type="line" smooth="yes"/>
      <point x="457" y="500"/>
      <point x="480" y="477"/>
      <point x="480" y="450" type="curve" smooth="yes"/>
      <point x="480" y="423"/>
      <point x="457" y="400"/>
    </contour>
    <contour>
      <point x="50" y="50" type="curve" smooth="yes"/>
      <point x="50" y="850" type="line" smooth="yes"/>
      <point x="50" y="877"/>
      <point x="73" y="900"/>
      <point x="100" y="900" type="curve" smooth="yes"/>
      <point x="127" y="900"/>
      <point x="150" y="877"/>
      <point x="150" y="850" type="curve" smooth="yes"/>
      <point x="150" y="50" type="line" smooth="yes"/>
      <point x="150" y="23"/>
      <point x="127" y="0"/>
      <point x="100" y="0" type="curve" smooth="yes"/>
      <point x="73" y="0"/>
      <point x="50" y="23"/>
    </contour>
    <contour>
      <point x="430" y="500" type="curve" smooth="yes"/>
      <point x="569" y="500"/>
      <point x="680" y="388"/>
      <point x="680" y="250" type="curve" smooth="yes"/>
      <point x="680" y="112"/>
      <point x="569" y="0"/>
      <point x="430" y="0" type="curve" smooth="yes"/>
      <point x="100" y="0" type="line" smooth="yes"/>
      <point x="73" y="0"/>
      <point x="50" y="23"/>
      <point x="50" y="50" type="curve" smooth="yes"/>
      <point x="50" y="77"/>
      <point x="73" y="100"/>
      <point x="100" y="100" type="curve" smooth="yes"/>
      <point x="430" y="100" type="line" smooth="yes"/>
      <point x="513" y="100"/>
      <point x="580" y="168"/>
      <point x="580" y="250" type="curve" smooth="yes"/>
      <point x="580" y="333"/>
      <point x="513" y="400"/>
      <point x="430" y="400" type="curve" smooth="yes"/>
      <point x="403" y="400"/>
      <point x="380" y="423"/>
      <point x="380" y="450" type="curve" smooth="yes"/>
      <point x="380" y="477"/>
      <point x="403" y="500"/>
    </contour>
  </outline>
</glyph>
<glyph name="C" format="2">
  <advance width="730"/>
  <unicode hex="0043"/>
  <anchor x="365" y="0" name="bottom"/>
  <anchor x="365" y="900" name="top"/>
  <outline>
    <contour>
      <point x="630" y="318" type="move"/>
      <point x="630" y="315" type="line" smooth="yes"/>
      <point x="630" y="169"/>
      <point x="512" y="50"/>
      <point x="365" y="50" type="curve" smooth="yes"/>
      <point x="219" y="50"/>
      <point x="100" y="169"/>
      <point x="100" y="315" type="curve" smooth="yes"/>
      <point x="100" y="585" type="line" smooth="yes"/>
      <point x="100" y="731"/>
      <point x="219" y="850"/>
      <point x="365" y="850" type="curve" smooth="yes"/>
      <point x="512" y="850"/>
      <point x="630" y="731"/>
      <point x="630" y="585" type="curve" smooth="yes"/>
      <point x="630" y="582" type="line"/>
    </contour>
  </outline>
</glyph>
<glyph name="D" format="2">
  <advance width="730"/>
  <unicode hex="0044"/>
  <anchor x="280" y="50" name="bottom"/>
  <anchor x="365" y="475" name="center"/>
  <anchor x="280" y="900" name="top"/>
  <outline>
    <contour>
      <point x="100" y="850" type="move"/>
      <point x="280" y="850" type="line" smooth="yes"/>
      <point x="473" y="850"/>
      <point x="630" y="694"/>
      <point x="630" y="500" type="curve" smooth="yes"/>
      <point x="630" y="400" type="line" smooth="yes"/>
      <point x="630" y="207"/>
      <point x="473" y="50"/>
      <point x="280" y="50" type="curve" smooth="yes"/>
      <point x="100" y="50" type="line"/>
    </contour>
    <contour>
      <point x="100" y="50" type="move"/>
      <point x="100" y="850" type="line"/>
    </contour>
  </outline>
</glyph>
<glyph name="F" format="2">
  <advance width="600"/>
  <unicode hex="0046"/>
  <anchor x="300" y="50" name="bottom"/>
  <anchor x="300" y="900" name="top"/>
  <outline>
    <contour>
      <point x="100" y="450" type="move"/>
      <point x="360" y="450" type="line"/>
    </contour>
    <contour>
      <point x="100" y="50" type="move"/>
      <point x="100" y="850" type="line"/>
    </contour>
    <contour>
      <point x="100" y="850" type="move"/>
      <point x="500" y="850" type="line"/>
    </contour>
  </outline>
</glyph>
<glyph name="G" format="2">
  <advance width="730"/>
  <unicode hex="0047"/>
  <anchor x="365" y="50" name="bottom"/>
  <anchor x="365" y="900" name="top"/>
  <outline>
    <contour>
      <point x="680" y="315" type="curve" smooth="yes"/>
      <point x="680" y="141"/>
      <point x="539" y="0"/>
      <point x="365" y="0" type="curve" smooth="yes"/>
      <point x="190" y="0"/>
      <point x="50" y="141"/>
      <point x="50" y="315" type="curve" smooth="yes"/>
      <point x="50" y="585" type="line" smooth="yes"/>
      <point x="50" y="760"/>
      <point x="190" y="900"/>
      <point x="365" y="900" type="curve" smooth="yes"/>
      <point x="539" y="900"/>
      <point x="680" y="760"/>
      <point x="680" y="585" type="curve" smooth="yes"/>
      <point x="680" y="558"/>
      <point x="657" y="535"/>
      <point x="630" y="535" type="curve" smooth="yes"/>
      <point x="603" y="535"/>
      <point x="580" y="558"/>
      <point x="580" y="585" type="curve" smooth="yes"/>
      <point x="580" y="704"/>
      <point x="483" y="800"/>
      <point x="365" y="800" type="curve" smooth="yes"/>
      <point x="246" y="800"/>
      <point x="150" y="704"/>
      <point x="150" y="585" type="curve" smooth="yes"/>
      <point x="150" y="315" type="line" smooth="yes"/>
      <point x="150" y="197"/>
      <point x="246" y="100"/>
      <point x="365" y="100" type="curve" smooth="yes"/>
      <point x="483" y="100"/>
      <point x="580" y="197"/>
      <point x="580" y="315" type="curve" smooth="yes"/>
      <point x="580" y="342"/>
      <point x="603" y="365"/>
      <point x="630" y="365" type="curve" smooth="yes"/>
      <point x="657" y="365"/>
      <point x="680" y="342"/>
    </contour>
    <contour>
      <point x="365" y="365" type="curve" smooth="yes"/>
      <point x="630" y="365" type="line" smooth="yes"/>
      <point x="657" y="365"/>
      <point x="680" y="342"/>
      <point x="680" y="315" type="curve" smooth="yes"/>
      <point x="680" y="288"/>
      <point x="657" y="265"/>
      <point x="630" y="265" type="curve" smooth="yes"/>
      <point x="365" y="265" type="line" smooth="yes"/>
      <point x="338" y="265"/>
      <point x="315" y="288"/>
      <point x="315" y="315" type="curve" smooth="yes"/>
      <point x="315" y="342"/>
      <point x="338" y="365"/>
    </contour>
  </outline>
</glyph>
<glyph name="H" format="2">
  <advance width="710"/>
  <unicode hex="0048"/>
  <anchor x="355" y="0" name="bottom"/>
  <anchor x="355" y="475" name="center"/>
  <anchor x="355" y="900" name="top"/>
  <anchor x="20" y="900" name="topleft"/>
  <outline>
    <contour>
      <point x="150" y="850" type="curve" smooth="yes"/>
      <point x="150" y="50" type="line" smooth="yes"/>
      <point x="150" y="23"/>
      <point x="127" y="0"/>
      <point x="100" y="0" type="curve" smooth="yes"/>
      <point x="73" y="0"/>
      <point x="50" y="23"/>
      <point x="50" y="50" type="curve" smooth="yes"/>
      <point x="50" y="850" type="line" smooth="yes"/>
      <point x="50" y="877"/>
      <point x="73" y="900"/>
      <point x="100" y="900" type="curve" smooth="yes"/>
      <point x="127" y="900"/>
      <point x="150" y="877"/>
    </contour>
    <contour>
      <point x="660" y="850" type="curve" smooth="yes"/>
      <point x="660" y="50" type="line" smooth="yes"/>
      <point x="660" y="23"/>
      <point x="637" y="0"/>
      <point x="610" y="0" type="curve" smooth="yes"/>
      <point x="583" y="0"/>
      <point x="560" y="23"/>
      <point x="560" y="50" type="curve" smooth="yes"/>
      <point x="560" y="850" type="line" smooth="yes"/>
      <point x="560" y="877"/>
      <point x="583" y="900"/>
      <point x="610" y="900" type="curve" smooth="yes"/>
      <point x="637" y="900"/>
      <point x="660" y="877"/>
    </contour>
    <contour>
      <point x="100" y="502" type="curve" smooth="yes"/>
      <point x="610" y="502" type="line" smooth="yes"/>
      <point x="637" y="502"/>
      <point x="660" y="479"/>
      <point x="660" y="452" type="curve" smooth="yes"/>
      <point x="660" y="425"/>
      <point x="637" y="402"/>
      <point x="610" y="402" type="curve" smooth="yes"/>
      <point x="100" y="402" type="line" smooth="yes"/>
      <point x="73" y="402"/>
      <point x="50" y="425"/>
      <point x="50" y="452" type="curve" smooth="yes"/>
      <point x="50" y="479"/>
      <point x="73" y="502"/>
    </contour>
  </outline>
</glyph>
<glyph name="I" format="2">
  <advance width="200"/>
  <unicode hex="0049"/>
  <anchor x="100" y="50" name="bottom"/>
  <anchor x="150" y="0" name="ogonek"/>
  <anchor x="100" y="900" name="top"/>
  <anchor x="10" y="900" name="topleft"/>
  <outline>
    <contour>
      <point x="100" y="850" type="move"/>
      <point x="100" y="50" type="line"/>
    </contour>
  </outline>
</glyph>
<glyph name="J" format="2">
  <advance width="600"/>
  <unicode hex="004A"/>
  <anchor x="300" y="50" name="bottom"/>
  <anchor x="500" y="900" name="top"/>
  <outline>
    <contour>
      <point x="100" y="316" type="move"/>
      <point x="100" y="250" type="line" smooth="yes"/>
      <point x="100" y="140"/>
      <point x="190" y="50"/>
      <point x="300" y="50" type="curve" smooth="yes"/>
      <point x="411" y="50"/>
      <point x="500" y="140"/>
      <point x="500" y="250" type="curve" smooth="yes"/>
      <point x="500" y="850" type="line"/>
    </contour>
  </outline>
</glyph>
<glyph name="K" format="2">
  <advance width="630"/>
  <unicode hex="004B"/>
  <anchor x="315" y="0" name="bottom"/>
  <anchor x="315" y="900" name="top"/>
  <outline>
    <contour>
      <point x="150" y="850" type="curve" smooth="yes"/>
      <point x="150" y="50" type="line" smooth="yes"/>
      <point x="150" y="23"/>
      <point x="127" y="0"/>
      <point x="100" y="0" type="curve" smooth="yes"/>
      <point x="73" y="0"/>
      <point x="50" y="23"/>
      <point x="50" y="50" type="curve" smooth="yes"/>
      <point x="50" y="850" type="line" smooth="yes"/>
      <point x="50" y="877"/>
      <point x="73" y="900"/>
      <point x="100" y="900" type="curve" smooth="yes"/>
      <point x="127" y="900"/>
      <point x="150" y="877"/>
    </contour>
    <contour>
      <point x="61" y="360" type="curve" smooth="yes"/>
      <point x="491" y="879" type="line" smooth="yes"/>
      <point x="509" y="900"/>
      <point x="541" y="903"/>
      <point x="562" y="886" type="curve" smooth="yes"/>
      <point x="583" y="868"/>
      <point x="586" y="836"/>
      <point x="569" y="815" type="curve" smooth="yes"/>
      <point x="139" y="296" type="line" smooth="yes"/>
      <point x="121" y="275"/>
      <point x="89" y="272"/>
      <point x="68" y="289" type="curve" smooth="yes"/>
      <point x="47" y="307"/>
      <point x="44" y="339"/>
    </contour>
    <contour>
      <point x="491" y="18" type="curve" smooth="yes"/>
      <point x="162" y="418" type="line" smooth="yes"/>
      <point x="145" y="439"/>
      <point x="148" y="471"/>
      <point x="169" y="489" type="curve" smooth="yes"/>
      <point x="190" y="506"/>
      <point x="222" y="503"/>
      <point x="240" y="482" type="curve" smooth="yes"/>
      <point x="569" y="82" type="line" smooth="yes"/>
      <point x="586" y="61"/>
      <point x="583" y="29"/>
      <point x="562" y="11" type="curve" smooth="yes"/>
      <point x="541" y="-6"/>
      <point x="509" y="-3"/>
    </contour>
  </outline>
</glyph>
<glyph name="L" format="2">
  <advance width="600"/>
  <unicode hex="004C"/>
  <anchor x="300" y="0" name="bottom"/>
  <anchor x="500" y="0" name="bottom_right"/>
  <anchor x="300" y="450" name="center"/>
  <anchor x="100" y="900" name="top"/>
  <anchor x="300" y="630" name="topright"/>
  <outline>
    <contour>
      <point x="150" y="850" type="curve" smooth="yes"/>
      <point x="150" y="50" type="line" smooth="yes"/>
      <point x="150" y="23"/>
      <point x="127" y="0"/>
      <point x="100" y="0" type="curve" smooth="yes"/>
      <point x="73" y="0"/>
      <point x="50" y="23"/>
      <point x="50" y="50" type="curve" smooth="yes"/>
      <point x="50" y="850" type="line" smooth="yes"/>
      <point x="50" y="877"/>
      <point x="73" y="900"/>
      <point x="100" y="900" type="curve" smooth="yes"/>
      <point x="127" y="900"/>
      <point x="150" y="877"/>
    </contour>
    <contour>
      <point x="100" y="100" type="curve" smooth="yes"/>
      <point x="500" y="100" type="line" smooth="yes"/>
      <point x="527" y="100"/>
      <point x="550" y="77"/>
      <point x="550" y="50" type="curve" smooth="yes"/>
      <point x="550" y="23"/>
      <point x="527" y="0"/>
      <point x="500" y="0" type="curve" smooth="yes"/>
      <point x="100" y="0" type="line" smooth="yes"/>
      <point x="73" y="0"/>
      <point x="50" y="23"/>
      <point x="50" y="50" type="curve" smooth="yes"/>
      <point x="50" y="77"/>
      <point x="73" y="100"/>
    </contour>
  </outline>
</glyph>
<glyph name="M" format="2">
  <advance width="1000"/>
  <unicode hex="004D"/>
  <anchor x="500" y="50" name="bottom"/>
  <anchor x="500" y="900" name="top"/>
  <outline>
    <contour>
      <point x="455" y="72" type="curve" smooth="yes"/>
      <point x="855" y="871" type="line" smooth="yes"/>
      <point x="867" y="896"/>
      <point x="898" y="906"/>
      <point x="922" y="894" type="curve" smooth="yes"/>
      <point x="947" y="882"/>
      <point x="957" y="851"/>
      <point x="945" y="827" type="curve" smooth="yes"/>
      <point x="545" y="28" type="line" smooth="yes"/>
      <point x="533" y="3"/>
      <point x="502" y="-7"/>
      <point x="478" y="5" type="curve" smooth="yes"/>
      <point x="453" y="17"/>
      <point x="443" y="48"/>
    </contour>
    <contour>
      <point x="50" y="51" type="curve" smooth="yes"/>
      <point x="50" y="850" type="line" smooth="yes"/>
      <point x="50" y="877"/>
      <point x="73" y="900"/>
      <point x="100" y="900" type="curve" smooth="yes"/>
      <point x="127" y="900"/>
      <point x="150" y="877"/>
      <point x="150" y="850" type="curve" smooth="yes"/>
      <point x="150" y="51" type="line" smooth="yes"/>
      <point x="150" y="24"/>
      <point x="127" y="1"/>
      <point x="100" y="1" type="curve" smooth="yes"/>
      <point x="73" y="1"/>
      <point x="50" y="24"/>
    </contour>
    <contour>
      <point x="950" y="849" type="curve" smooth="yes"/>
      <point x="950" y="50" type="line" smooth="yes"/>
      <point x="950" y="23"/>
      <point x="927" y="0"/>
      <point x="900" y="0" type="curve" smooth="yes"/>
      <point x="873" y="0"/>
      <point x="850" y="23"/>
      <point x="850" y="50" type="curve" smooth="yes"/>
      <point x="850" y="849" type="line" smooth="yes"/>
      <point x="850" y="876"/>
      <point x="873" y="899"/>
      <point x="900" y="899" type="curve" smooth="yes"/>
      <point x="927" y="899"/>
      <point x="950" y="876"/>
    </contour>
    <contour>
      <point x="145" y="872" type="curve" smooth="yes"/>
      <point x="545" y="72" type="line" smooth="yes"/>
      <point x="557" y="48"/>
      <point x="547" y="17"/>
      <point x="522" y="5" type="curve" smooth="yes"/>
      <point x="498" y="-7"/>
      <point x="467" y="3"/>
      <point x="455" y="28" type="curve" smooth="yes"/>
      <point x="55" y="828" type="line" smooth="yes"/>
      <point x="43" y="852"/>
      <point x="53" y="883"/>
      <point x="78" y="895" type="curve" smooth="yes"/>
      <point x="102" y="907"/>
      <point x="133" y="897"/>
    </contour>
  </outline>
</glyph>
<glyph name="N" format="2">
  <advance width="730"/>
  <unicode hex="004E"/>
  <anchor x="365" y="0" name="bottom"/>
  <anchor x="365" y="900" name="top"/>
  <outline>
    <contour>
      <point x="100" y="850" type="move"/>
      <point x="630" y="50" type="line"/>
    </contour>
    <contour>
      <point x="630" y="50" type="move"/>
      <point x="630" y="850" type="line"/>
    </contour>
    <contour>
      <point x="100" y="50" type="move"/>
      <point x="100" y="850" type="line"/>
    </contour>
  </outline>
</glyph>
<glyph name="O" format="2">
  <advance width="730"/>
  <unicode hex="004F"/>
  <anchor x="365" y="50" name="bottom"/>
  <anchor x="365" y="475" name="center"/>
  <anchor x="528" y="125" name="ogonek"/>
  <anchor x="365" y="900" name="top"/>
  <anchor x="20" y="900" name="topleft"/>
  <anchor x="710" y="900" name="topright"/>
  <outline>
    <contour>
      <point x="630" y="315" type="line" smooth="yes"/>
      <point x="630" y="169"/>
      <point x="511" y="50"/>
      <point x="365" y="50" type="curve" smooth="yes"/>
      <point x="219" y="50"/>
      <point x="100" y="169"/>
      <point x="100" y="315" type="curve" smooth="yes"/>
      <point x="100" y="585" type="line" smooth="yes"/>
      <point x="100" y="731"/>
      <point x="219" y="850"/>
      <point x="365" y="850" type="curve" smooth="yes"/>
      <point x="511" y="850"/>
      <point x="630" y="731"/>
      <point x="630" y="585" type="curve" smooth="yes"/>
    </contour>
  </outline>
</glyph>
<glyph name="P" format="2">
  <advance width="730"/>
  <unicode hex="0050"/>
  <anchor x="365" y="50" name="bottom"/>
  <anchor x="365" y="900" name="top"/>
  <outline>
    <contour>
      <point x="50" y="50" type="curve" smooth="yes"/>
      <point x="50" y="850" type="line" smooth="yes"/>
      <point x="50" y="877"/>
      <point x="73" y="900"/>
      <point x="100" y="900" type="curve" smooth="yes"/>
      <point x="127" y="900"/>
      <point x="150" y="877"/>
      <point x="150" y="850" type="curve" smooth="yes"/>
      <point x="150" y="50" type="line" smooth="yes"/>
      <point x="150" y="23"/>
      <point x="127" y="0"/>
      <point x="100" y="0" type="curve" smooth="yes"/>
      <point x="73" y="0"/>
      <point x="50" y="23"/>
    </contour>
    <contour>
      <point x="100" y="370" type="curve" smooth="yes"/>
      <point x="365" y="370" type="line" smooth="yes"/>
      <point x="483" y="370"/>
      <point x="580" y="467"/>
      <point x="580" y="585" type="curve" smooth="yes"/>
      <point x="580" y="703"/>
      <point x="483" y="800"/>
      <point x="365" y="800" type="curve" smooth="yes"/>
      <point x="100" y="800" type="line" smooth="yes"/>
      <point x="73" y="800"/>
      <point x="50" y="823"/>
      <point x="50" y="850" type="curve" smooth="yes"/>
      <point x="50" y="877"/>
      <point x="73" y="900"/>
      <point x="100" y="900" type="curve" smooth="yes"/>
      <point x="365" y="900" type="line" smooth="yes"/>
      <point x="539" y="900"/>
      <point x="680" y="759"/>
      <point x="680" y="585" type="curve" smooth="yes"/>
      <point x="680" y="411"/>
      <point x="539" y="270"/>
      <point x="365" y="270" type="curve" smooth="yes"/>
      <point x="100" y="270" type="line" smooth="yes"/>
      <point x="73" y="270"/>
      <point x="50" y="293"/>
      <point x="50" y="320" type="curve" smooth="yes"/>
      <point x="50" y="347"/>
      <point x="73" y="370"/>
    </contour>
  </outline>
</glyph>
<glyph name="Q" format="2">
  <advance width="730"/>
  <unicode hex="0051"/>
  <anchor x="365" y="50" name="bottom"/>
  <anchor x="365" y="900" name="top"/>
  <outline>
    <contour>
      <point x="580" y="315" type="curve" smooth="yes"/>
      <point x="580" y="585" type="line" smooth="yes"/>
      <point x="580" y="703"/>
      <point x="483" y="800"/>
      <point x="365" y="800" type="curve" smooth="yes"/>
      <point x="247" y="800"/>
      <point x="150" y="703"/>
      <point x="150" y="585" type="curve" smooth="yes"/>
      <point x="150" y="315" type="line" smooth="yes"/>
      <point x="150" y="197"/>
      <point x="247" y="100"/>
      <point x="365" y="100" type="curve" smooth="yes"/>
      <point x="483" y="100"/>
      <point x="580" y="197"/>
    </contour>
    <contour>
      <point x="595" y="14" type="curve" smooth="yes"/>
      <point x="330" y="276" type="line" smooth="yes"/>
      <point x="311" y="295"/>
      <point x="310" y="328"/>
      <point x="329" y="347" type="curve" smooth="yes"/>
      <point x="348" y="366"/>
      <point x="381" y="367"/>
      <point x="400" y="348" type="curve" smooth="yes"/>
      <point x="665" y="86" type="line" smooth="yes"/>
      <point x="684" y="67"/>
      <point x="685" y="34"/>
      <point x="666" y="15" type="curve" smooth="yes"/>
      <point x="647" y="-4"/>
      <point x="614" y="-5"/>
    </contour>
    <contour>
      <point x="680" y="315" type="line" smooth="yes"/>
      <point x="680" y="141"/>
      <point x="539" y="0"/>
      <point x="365" y="0" type="curve" smooth="yes"/>
      <point x="191" y="0"/>
      <point x="50" y="141"/>
      <point x="50" y="315" type="curve" smooth="yes"/>
      <point x="50" y="585" type="line" smooth="yes"/>
      <point x="50" y="759"/>
      <point x="191" y="900"/>
      <point x="365" y="900" type="curve" smooth="yes"/>
      <point x="539" y="900"/>
      <point x="680" y="759"/>
      <point x="680" y="585" type="curve" smooth="yes"/>
    </contour>
  </outline>
</glyph>
<glyph name="R" format="2">
  <advance width="730"/>
  <unicode hex="0052"/>
  <anchor x="365" y="0" name="bottom"/>
  <anchor x="365" y="900" name="top"/>
  <outline>
    <contour>
      <point x="390" y="355" type="curve" smooth="yes"/>
      <point x="659" y="85" type="line" smooth="yes"/>
      <point x="678" y="66"/>
      <point x="678" y="34"/>
      <point x="659" y="15" type="curve" smooth="yes"/>
      <point x="640" y="-4"/>
      <point x="608" y="-4"/>
      <point x="589" y="15" type="curve" smooth="yes"/>
      <point x="320" y="285" type="line" smooth="yes"/>
      <point x="301" y="304"/>
      <point x="301" y="336"/>
      <point x="320" y="355" type="curve" smooth="yes"/>
      <point x="339" y="374"/>
      <point x="371" y="374"/>
    </contour>
    <contour>
      <point x="50" y="50" type="curve" smooth="yes"/>
      <point x="50" y="850" type="line" smooth="yes"/>
      <point x="50" y="877"/>
      <point x="73" y="900"/>
      <point x="100" y="900" type="curve" smooth="yes"/>
      <point x="127" y="900"/>
      <point x="150" y="877"/>
      <point x="150" y="850" type="curve" smooth="yes"/>
      <point x="150" y="50" type="line" smooth="yes"/>
      <point x="150" y="23"/>
      <point x="127" y="0"/>
      <point x="100" y="0" type="curve" smooth="yes"/>
      <point x="73" y="0"/>
      <point x="50" y="23"/>
    </contour>
    <contour>
      <point x="100" y="370" type="curve" smooth="yes"/>
      <point x="365" y="370" type="line" smooth="yes"/>
      <point x="483" y="370"/>
      <point x="580" y="467"/>
      <point x="580" y="585" type="curve" smooth="yes"/>
      <point x="580" y="703"/>
      <point x="483" y="800"/>
      <point x="365" y="800" type="curve" smooth="yes"/>
      <point x="100" y="800" type="line" smooth="yes"/>
      <point x="73" y="800"/>
      <point x="50" y="823"/>
      <point x="50" y="850" type="curve" smooth="yes"/>
      <point x="50" y="877"/>
      <point x="73" y="900"/>
      <point x="100" y="900" type="curve" smooth="yes"/>
      <point x="365" y="900" type="line" smooth="yes"/>
      <point x="539" y="900"/>
      <point x="680" y="759"/>
      <point x="680" y="585" type="curve" smooth="yes"/>
      <point x="680" y="411"/>
      <point x="539" y="270"/>
      <point x="365" y="270" type="curve" smooth="yes"/>
      <point x="100" y="270" type="line" smooth="yes"/>
      <point x="73" y="270"/>
      <point x="50" y="293"/>
      <point x="50" y="320" type="curve" smooth="yes"/>
      <point x="50" y="347"/>
      <point x="73" y="370"/>
    </contour>
  </outline>
</glyph>
<glyph name="S" format="2">
  <advance width="730"/>
  <unicode hex="0053"/>
  <anchor x="365" y="0" name="bottom"/>
  <anchor x="365" y="900" name="top"/>
  <outline>
    <contour>
      <point x="156" y="168" type="curve" smooth="yes"/>
      <point x="195" y="117"/>
      <point x="244" y="100"/>
      <point x="312" y="100" type="curve" smooth="yes"/>
      <point x="430" y="100" type="line" smooth="yes"/>
      <point x="513" y="100"/>
      <point x="580" y="167"/>
      <point x="580" y="250" type="curve" smooth="yes"/>
      <point x="580" y="333"/>
      <point x="513" y="400"/>
      <point x="430" y="400" type="curve" smooth="yes"/>
      <point x="300" y="400" type="line" smooth="yes"/>
      <point x="161" y="400"/>
      <point x="50" y="511"/>
      <point x="50" y="650" type="curve" smooth="yes"/>
      <point x="50" y="788"/>
      <point x="163" y="900"/>
      <point x="300" y="900" type="curve" smooth="yes"/>
      <point x="418" y="900" type="line" smooth="yes"/>
      <point x="522" y="900"/>
      <point x="595" y="869"/>
      <point x="654" y="792" type="curve" smooth="yes"/>
      <point x="670" y="771"/>
      <point x="666" y="739"/>
      <point x="644" y="722" type="curve" smooth="yes"/>
      <point x="623" y="706"/>
      <point x="591" y="710"/>
      <point x="574" y="732" type="curve" smooth="yes"/>
      <point x="535" y="783"/>
      <point x="486" y="800"/>
      <point x="418" y="800" type="curve" smooth="yes"/>
      <point x="300" y="800" type="line" smooth="yes"/>
      <point x="218" y="800"/>
      <point x="150" y="733"/>
      <point x="150" y="650" type="curve" smooth="yes"/>
      <point x="150" y="567"/>
      <point x="217" y="500"/>
      <point x="300" y="500" type="curve" smooth="yes"/>
      <point x="430" y="500" type="line" smooth="yes"/>
      <point x="569" y="500"/>
      <point x="680" y="389"/>
      <point x="680" y="250" type="curve" smooth="yes"/>
      <point x="680" y="111"/>
      <point x="569" y="0"/>
      <point x="430" y="0" type="curve" smooth="yes"/>
      <point x="312" y="0" type="line" smooth="yes"/>
      <point x="208" y="0"/>
      <point x="135" y="31"/>
      <point x="76" y="108" type="curve" smooth="yes"/>
      <point x="60" y="129"/>
      <point x="64" y="161"/>
      <point x="86" y="178" type="curve" smooth="yes"/>
      <point x="107" y="194"/>
      <point x="139" y="190"/>
    </contour>
  </outline>
</glyph>
<glyph name="T" format="2">
  <advance width="730"/>
  <unicode hex="0054"/>
  <anchor x="365" y="0" name="bottom"/>
  <anchor x="365" y="475" name="center"/>
  <anchor x="365" y="900" name="top"/>
  <outline>
    <contour>
      <point x="100" y="900" type="curve" smooth="yes"/>
      <point x="630" y="900" type="line" smooth="yes"/>
      <point x="657" y="900"/>
      <point x="680" y="877"/>
      <point x="680" y="850" type="curve" smooth="yes"/>
      <point x="680" y="823"/>
      <point x="657" y="800"/>
      <point x="630" y="800" type="curve" smooth="yes"/>
      <point x="100" y="800" type="line" smooth="yes"/>
      <point x="73" y="800"/>
      <point x="50" y="823"/>
      <point x="50" y="850" type="curve" smooth="yes"/>
      <point x="50" y="877"/>
      <point x="73" y="900"/>
    </contour>
    <contour>
      <point x="315" y="50" type="curve" smooth="yes"/>
      <point x="315" y="850" type="line" smooth="yes"/>
      <point x="315" y="877"/>
      <point x="338" y="900"/>
      <point x="365" y="900" type="curve" smooth="yes"/>
      <point x="392" y="900"/>
      <point x="415" y="877"/>
      <point x="415" y="850" type="curve" smooth="yes"/>
      <point x="415" y="50" type="line" smooth="yes"/>
      <point x="415" y="23"/>
      <point x="392" y="0"/>
      <point x="365" y="0" type="curve" smooth="yes"/>
      <point x="338" y="0"/>
      <point x="315" y="23"/>
    </contour>
  </outline>
</glyph>
<glyph name="U" format="2">
  <advance width="730"/>
  <unicode hex="0055"/>
  <anchor x="365" y="50" name="bottom"/>
  <anchor x="528" y="25" name="ogonek"/>
  <anchor x="365" y="900" name="top"/>
  <anchor x="581" y="900" name="top_viet"/>
  <outline>
    <contour>
      <point x="150" y="850" type="curve" smooth="yes"/>
      <point x="150" y="315" type="line" smooth="yes"/>
      <point x="150" y="197"/>
      <point x="247" y="100"/>
      <point x="365" y="100" type="curve" smooth="yes"/>
      <point x="483" y="100"/>
      <point x="580" y="197"/>
      <point x="580" y="315" type="curve" smooth="yes"/>
      <point x="580" y="850" type="line" smooth="yes"/>
      <point x="580" y="877"/>
      <point x="603" y="900"/>
      <point x="630" y="900" type="curve" smooth="yes"/>
      <point x="657" y="900"/>
      <point x="680" y="877"/>
      <point x="680" y="850" type="curve" smooth="yes"/>
      <point x="680" y="315" type="line" smooth="yes"/>
      <point x="680" y="141"/>
      <point x="539" y="0"/>
      <point x="365" y="0" type="curve" smooth="yes"/>
      <point x="191" y="0"/>
      <point x="50" y="141"/>
      <point x="50" y="315" type="curve" smooth="yes"/>
      <point x="50" y="850" type="line" smooth="yes"/>
      <point x="50" y="877"/>
      <point x="73" y="900"/>
      <point x="100" y="900" type="curve" smooth="yes"/>
      <point x="127" y="900"/>
      <point x="150" y="877"/>
    </contour>
  </outline>
</glyph>
<glyph name="V" format="2">
  <advance width="730"/>
  <unicode hex="0056"/>
  <anchor x="365" y="50" name="bottom"/>
  <anchor x="365" y="900" name="top"/>
  <outline>
    <contour>
      <point x="677" y="834" type="curve" smooth="yes"/>
      <point x="412" y="34" type="line" smooth="yes"/>
      <point x="404" y="9"/>
      <point x="375" y="-6"/>
      <point x="349" y="3" type="curve" smooth="yes"/>
      <point x="324" y="11"/>
      <point x="309" y="40"/>
      <point x="318" y="66" type="curve" smooth="yes"/>
      <point x="583" y="866" type="line" smooth="yes"/>
      <point x="591" y="891"/>
      <point x="620" y="906"/>
      <point x="646" y="897" type="curve" smooth="yes"/>
      <point x="671" y="889"/>
      <point x="686" y="860"/>
    </contour>
    <contour>
      <point x="318" y="34" type="curve" smooth="yes"/>
      <point x="53" y="834" type="line" smooth="yes"/>
      <point x="44" y="860"/>
      <point x="59" y="889"/>
      <point x="84" y="897" type="curve" smooth="yes"/>
      <point x="110" y="906"/>
      <point x="139" y="891"/>
      <point x="147" y="866" type="curve" smooth="yes"/>
      <point x="412" y="66" type="line" smooth="yes"/>
      <point x="421" y="40"/>
      <point x="406" y="11"/>
      <point x="381" y="3" type="curve" smooth="yes"/>
      <point x="355" y="-6"/>
      <point x="326" y="9"/>
    </contour>
  </outline>
</glyph>
<glyph name="W" format="2">
  <advance width="1000"/>
  <unicode hex="0057"/>
  <anchor x="500" y="50" name="bottom"/>
  <anchor x="500" y="900" name="top"/>
  <outline>
    <contour>
      <point x="949" y="838" type="curve" smooth="yes"/>
      <point x="749" y="38" type="line" smooth="yes"/>
      <point x="742" y="12"/>
      <point x="714" y="-5"/>
      <point x="688" y="1" type="curve" smooth="yes"/>
      <point x="662" y="8"/>
      <point x="645" y="36"/>
      <point x="651" y="62" type="curve" smooth="yes"/>
      <point x="851" y="862" type="line" smooth="yes"/>
      <point x="858" y="888"/>
      <point x="886" y="905"/>
      <point x="912" y="899" type="curve" smooth="yes"/>
      <point x="938" y="892"/>
      <point x="955" y="864"/>
    </contour>
    <contour>
      <point x="251" y="38" type="curve" smooth="yes"/>
      <point x="51" y="838" type="line" smooth="yes"/>
      <point x="45" y="864"/>
      <point x="62" y="892"/>
      <point x="88" y="899" type="curve" smooth="yes"/>
      <point x="114" y="905"/>
      <point x="142" y="888"/>
      <point x="149" y="862" type="curve" smooth="yes"/>
      <point x="349" y="62" type="line" smooth="yes"/>
      <point x="355" y="36"/>
      <point x="338" y="8"/>
      <point x="312" y="1" type="curve" smooth="yes"/>
      <point x="286" y="-5"/>
      <point x="258" y="12"/>
    </contour>
    <contour>
      <point x="549" y="838" type="curve" smooth="yes"/>
      <point x="349" y="38" type="line" smooth="yes"/>
      <point x="342" y="12"/>
      <point x="314" y="-5"/>
      <point x="288" y="1" type="curve" smooth="yes"/>
      <point x="262" y="8"/>
      <point x="245" y="36"/>
      <point x="251" y="62" type="curve" smooth="yes"/>
      <point x="451" y="862" type="line" smooth="yes"/>
      <point x="458" y="888"/>
      <point x="486" y="905"/>
      <point x="512" y="899" type="curve" smooth="yes"/>
      <point x="538" y="892"/>
      <point x="555" y="864"/>
    </contour>
    <contour>
      <point x="651" y="38" type="curve" smooth="yes"/>
      <point x="451" y="838" type="line" smooth="yes"/>
      <point x="445" y="864"/>
      <point x="462" y="892"/>
      <point x="488" y="899" type="curve" smooth="yes"/>
      <point x="514" y="905"/>
      <point x="542" y="888"/>
      <point x="549" y="862" type="curve" smooth="yes"/>
      <point x="749" y="62" type="line" smooth="yes"/>
      <point x="755" y="36"/>
      <point x="738" y="8"/>
      <point x="712" y="1" type="curve" smooth="yes"/>
      <point x="686" y="-5"/>
      <point x="658" y="12"/>
    </contour>
  </outline>
</glyph>
<glyph name="X" format="2">
  <advance width="730"/>
  <unicode hex="0058"/>
  <anchor x="365" y="50" name="bottom"/>
  <anchor x="365" y="900" name="top"/>
  <outline>
    <contour>
      <point x="142" y="878" type="curve" smooth="yes"/>
      <point x="672" y="78" type="line" smooth="yes"/>
      <point x="687" y="55"/>
      <point x="680" y="23"/>
      <point x="658" y="8" type="curve" smooth="yes"/>
      <point x="635" y="-7"/>
      <point x="603" y="0"/>
      <point x="588" y="22" type="curve" smooth="yes"/>
      <point x="58" y="822" type="line" smooth="yes"/>
      <point x="43" y="845"/>
      <point x="50" y="877"/>
      <point x="72" y="892" type="curve" smooth="yes"/>
      <point x="95" y="907"/>
      <point x="127" y="900"/>
    </contour>
    <contour>
      <point x="672" y="822" type="curve" smooth="yes"/>
      <point x="142" y="22" type="line" smooth="yes"/>
      <point x="127" y="0"/>
      <point x="95" y="-7"/>
      <point x="72" y="8" type="curve" smooth="yes"/>
      <point x="50" y="23"/>
      <point x="43" y="55"/>
      <point x="58" y="78" type="curve" smooth="yes"/>
      <point x="588" y="878" type="line" smooth="yes"/>
      <point x="603" y="900"/>
      <point x="635" y="907"/>
      <point x="658" y="892" type="curve" smooth="yes"/>
      <point x="680" y="877"/>
      <point x="687" y="845"/>
    </contour>
  </outline>
</glyph>
<glyph name="Y" format="2">
  <advance width="730"/>
  <unicode hex="0059"/>
  <anchor x="365" y="0" name="bottom"/>
  <anchor x="365" y="900" name="top"/>
  <anchor x="20" y="900" name="topleft"/>
  <outline>
    <contour>
      <point x="630" y="850" type="move"/>
      <point x="365" y="450" type="line"/>
    </contour>
    <contour>
      <point x="365" y="50" type="move"/>
      <point x="365" y="450" type="line"/>
    </contour>
    <contour>
      <point x="365" y="450" type="move"/>
      <point x="100" y="850" type="line"/>
    </contour>
  </outline>
</glyph>
<glyph name="Z" format="2">
  <advance width="730"/>
  <unicode hex="005A"/>
  <anchor x="365" y="0" name="bottom"/>
  <anchor x="365" y="475" name="center"/>
  <anchor x="365" y="900" name="top"/>
  <outline>
    <contour>
      <point x="672" y="822" type="curve" smooth="yes"/>
      <point x="142" y="22" type="line" smooth="yes"/>
      <point x="127" y="0"/>
      <point x="95" y="-7"/>
      <point x="72" y="8" type="curve" smooth="yes"/>
      <point x="50" y="23"/>
      <point x="43" y="55"/>
      <point x="58" y="78" type="curve" smooth="yes"/>
      <point x="588" y="878" type="line" smooth="yes"/>
      <point x="603" y="900"/>
      <point x="635" y="907"/>
      <point x="658" y="892" type="curve" smooth="yes"/>
      <point x="680" y="877"/>
      <point x="687" y="845"/>
    </contour>
    <contour>
      <point x="100" y="900" type="curve" smooth="yes"/>
      <point x="630" y="900" type="line" smooth="yes"/>
      <point x="657" y="900"/>
      <point x="680" y="877"/>
      <point x="680" y="850" type="curve" smooth="yes"/>
      <point x="680" y="823"/>
      <point x="657" y="800"/>
      <point x="630" y="800" type="curve" smooth="yes"/>
      <point x="100" y="800" type="line" smooth="yes"/>
      <point x="73" y="800"/>
      <point x="50" y="823"/>
      <point x="50" y="850" type="curve" smooth="yes"/>
      <point x="50" y="877"/>
      <point x="73" y="900"/>
    </contour>
    <contour>
      <point x="100" y="100" type="curve" smooth="yes"/>
      <point x="630" y="100" type="line" smooth="yes"/>
      <point x="657" y="100"/>
      <point x="680" y="77"/>
      <point x="680" y="50" type="curve" smooth="yes"/>
      <point x="680" y="23"/>
      <point x="657" y="0"/>
      <point x="630" y="0" type="curve" smooth="yes"/>
      <point x="100" y="0" type="line" smooth="yes"/>
      <point x="73" y="0"/>
      <point x="50" y="23"/>
      <point x="50" y="50" type="curve" smooth="yes"/>
      <point x="50" y="77"/>
      <point x="73" y="100"/>
    </contour>
  </outline>
</glyph>
<glyph name="bracketleft" format="2">
  <advance width="360"/>
  <unicode hex="005B"/>
  <outline>
    <contour>
      <point x="100" y="850" type="move"/>
      <point x="100" y="-110" type="line"/>
    </contour>
    <contour>
      <point x="100" y="-110" type="move"/>
      <point x="260" y="-110" type="line"/>
    </contour>
    <contour>
      <point x="260" y="850" type="move"/>
      <point x="100" y="850" type="line"/>
    </contour>
  </outline>
</glyph>
<glyph name="backslash" format="2">
  <advance width="500"/>
  <unicode hex="005C"/>
  <outline>
    <contour>
      <point x="100" y="850" type="move"/>
      <point x="400" y="-165" type="line"/>
    </contour>
  </outline>
</glyph>
<glyph name="asciicircum" format="2">
  <advance width="700"/>
  <unicode hex="005E"/>
  <outline>
    <contour>
      <point x="350" y="850" type="move"/>
      <point x="180" y="670" type="line"/>
    </contour>
    <contour>
      <point x="520" y="670" type="move"/>
      <point x="350" y="850" type="line"/>
    </contour>
  </outline>
</glyph>
<glyph name="underscore" format="2">
  <advance width="700"/>
  <unicode hex="005F"/>
  <outline>
    <contour>
      <point x="100" y="50" type="move"/>
      <point x="600" y="50" type="line"/>
    </contour>
  </outline>
</glyph>
<glyph name="b" format="2">
  <advance width="600"/>
  <unicode hex="0062"/>
  <anchor x="300" y="0" name="bottom"/>
  <anchor x="300" y="315" name="center"/>
  <anchor x="300" y="630" name="top"/>
  <outline>
    <contour>
      <point x="100" y="50" type="move"/>
      <point x="100" y="850" type="line"/>
    </contour>
    <contour>
      <point x="100" y="380" type="move"/>
      <point x="100" y="490"/>
      <point x="190" y="580"/>
      <point x="300" y="580" type="curve" smooth="yes"/>
      <point x="410" y="580"/>
      <point x="500" y="490"/>
      <point x="500" y="380" type="curve" smooth="yes"/>
      <point x="500" y="250" type="line" smooth="yes"/>
      <point x="500" y="140"/>
      <point x="410" y="50"/>
      <point x="300" y="50" type="curve" smooth="yes"/>
      <point x="190" y="50"/>
      <point x="100" y="140"/>
      <point x="100" y="250" type="curve"/>
    </contour>
  </outline>
</glyph>
<glyph name="c" format="2">
  <advance width="574"/>
  <unicode hex="0063"/>
  <anchor x="300" y="0" name="bottom"/>
  <anchor x="300" y="630" name="top"/>
  <outline>
    <contour>
      <point x="517" y="126" type="curve" smooth="yes"/>
      <point x="474" y="51"/>
      <point x="394" y="0"/>
      <point x="300" y="0" type="curve" smooth="yes"/>
      <point x="163" y="0"/>
      <point x="50" y="113"/>
      <point x="50" y="250" type="curve" smooth="yes"/>
      <point x="50" y="380" type="line" smooth="yes"/>
      <point x="50" y="518"/>
      <point x="163" y="630"/>
      <point x="300" y="630" type="curve" smooth="yes"/>
      <point x="392" y="630"/>
      <point x="474" y="580"/>
      <point x="517" y="505" type="curve" smooth="yes"/>
      <point x="531" y="482"/>
      <point x="523" y="450"/>
      <point x="499" y="437" type="curve" smooth="yes"/>
      <point x="476" y="423"/>
      <point x="444" y="431"/>
      <point x="431" y="455" type="curve" smooth="yes"/>
      <point x="404" y="500"/>
      <point x="356" y="530"/>
      <point x="300" y="530" type="curve" smooth="yes"/>
      <point x="218" y="530"/>
      <point x="150" y="463"/>
      <point x="150" y="380" type="curve" smooth="yes"/>
      <point x="150" y="250" type="line" smooth="yes"/>
      <point x="150" y="168"/>
      <point x="218" y="100"/>
      <point x="300" y="100" type="curve" smooth="yes"/>
      <point x="356" y="100"/>
      <point x="404" y="131"/>
      <point x="431" y="176" type="curve" smooth="yes"/>
      <point x="444" y="200"/>
      <point x="476" y="208"/>
      <point x="499" y="194" type="curve" smooth="yes"/>
      <point x="523" y="181"/>
      <point x="531" y="149"/>
    </contour>
  </outline>
</glyph>
<glyph name="d" format="2">
  <advance width="600"/>
  <unicode hex="0064"/>
  <anchor x="300" y="50" name="bottom"/>
  <anchor x="300" y="340" name="center"/>
  <anchor x="300" y="1015" name="top"/>
  <anchor x="645" y="630" name="topright"/>
  <outline>
    <contour>
      <point x="500" y="50" type="move"/>
      <point x="500" y="850" type="line"/>
    </contour>
    <contour>
      <point x="500" y="250" type="move"/>
      <point x="500" y="140"/>
      <point x="410" y="50"/>
      <point x="300" y="50" type="curve" smooth="yes"/>
      <point x="190" y="50"/>
      <point x="100" y="140"/>
      <point x="100" y="250" type="curve" smooth="yes"/>
      <point x="100" y="380" type="line" smooth="yes"/>
      <point x="100" y="490"/>
      <point x="190" y="580"/>
      <point x="300" y="580" type="curve" smooth="yes"/>
      <point x="410" y="580"/>
      <point x="500" y="490"/>
      <point x="500" y="380" type="curve"/>
    </contour>
  </outline>
</glyph>
<glyph name="e" format="2">
  <advance width="600"/>
  <unicode hex="0065"/>
  <anchor x="300" y="50" name="bottom"/>
  <anchor x="458" y="32" name="ogonek"/>
  <anchor x="300" y="630" name="top"/>
  <outline>
    <contour>
      <point x="100" y="365" type="curve" smooth="yes"/>
      <point x="500" y="365" type="line" smooth="yes"/>
      <point x="527" y="365"/>
      <point x="550" y="342"/>
      <point x="550" y="315" type="curve" smooth="yes"/>
      <point x="550" y="288"/>
      <point x="527" y="265"/>
      <point x="500" y="265" type="curve" smooth="yes"/>
      <point x="100" y="265" type="line" smooth="yes"/>
      <point x="73" y="265"/>
      <point x="50" y="288"/>
      <point x="50" y="315" type="curve" smooth="yes"/>
      <point x="50" y="342"/>
      <point x="73" y="365"/>
    </contour>
    <contour>
      <point x="516" y="126" type="curve" smooth="yes"/>
      <point x="471" y="49"/>
      <point x="392" y="0"/>
      <point x="300" y="0" type="curve" smooth="yes"/>
      <point x="163" y="0"/>
      <point x="50" y="113"/>
      <point x="50" y="250" type="curve" smooth="yes"/>
      <point x="50" y="380" type="line" smooth="yes"/>
      <point x="50" y="518"/>
      <point x="163" y="630"/>
      <point x="300" y="630" type="curve" smooth="yes"/>
      <point x="439" y="630"/>
      <point x="550" y="518"/>
      <point x="550" y="380" type="curve" smooth="yes"/>
      <point x="550" y="315" type="line" smooth="yes"/>
      <point x="550" y="288"/>
      <point x="527" y="265"/>
      <point x="500" y="265" type="curve" smooth="yes"/>
      <point x="473" y="265"/>
      <point x="450" y="288"/>
      <point x="450" y="315" type="curve" smooth="yes"/>
      <point x="450" y="380" type="line" smooth="yes"/>
      <point x="450" y="463"/>
      <point x="383" y="530"/>
      <point x="300" y="530" type="curve" smooth="yes"/>
      <point x="218" y="530"/>
      <point x="150" y="463"/>
      <point x="150" y="380" type="curve" smooth="yes"/>
      <point x="150" y="250" type="line" smooth="yes"/>
      <point x="150" y="168"/>
      <point x="218" y="100"/>
      <point x="300" y="100" type="curve" smooth="yes"/>
      <point x="356" y="100"/>
      <point x="403" y="131"/>
      <point x="430" y="176" type="curve" smooth="yes"/>
      <point x="444" y="200"/>
      <point x="475" y="208"/>
      <point x="498" y="194" type="curve" smooth="yes"/>
      <point x="522" y="180"/>
      <point x="530" y="149"/>
    </contour>
  </outline>
</glyph>
<glyph name="f" format="2">
  <advance width="589"/>
  <unicode hex="0066"/>
  <anchor x="300" y="0" name="bottom"/>
  <anchor x="300" y="1015" name="top"/>
  <outline>
    <contour>
      <point x="100" y="630" type="curve" smooth="yes"/>
      <point x="380" y="630" type="line" smooth="yes"/>
      <point x="407" y="630"/>
      <point x="430" y="607"/>
      <point x="430" y="580" type="curve" smooth="yes"/>
      <point x="430" y="553"/>
      <point x="407" y="530"/>
      <point x="380" y="530" type="curve" smooth="yes"/>
      <point x="100" y="530" type="line" smooth="yes"/>
      <point x="73" y="530"/>
      <point x="50" y="553"/>
      <point x="50" y="580" type="curve" smooth="yes"/>
      <point x="50" y="607"/>
      <point x="73" y="630"/>
    </contour>
    <contour>
      <point x="157" y="50" type="curve" smooth="yes"/>
      <point x="157" y="710" type="line" smooth="yes"/>
      <point x="157" y="815"/>
      <point x="243" y="900"/>
      <point x="347" y="900" type="curve" smooth="yes"/>
      <point x="437" y="900"/>
      <point x="490" y="871"/>
      <point x="529" y="821" type="curve" smooth="yes"/>
      <point x="545" y="800"/>
      <point x="541" y="768"/>
      <point x="519" y="751" type="curve" smooth="yes"/>
      <point x="498" y="735"/>
      <point x="466" y="739"/>
      <point x="449" y="761" type="curve" smooth="yes"/>
      <point x="428" y="789"/>
      <point x="395" y="800"/>
      <point x="347" y="800" type="curve" smooth="yes"/>
      <point x="298" y="800"/>
      <point x="257" y="760"/>
      <point x="257" y="710" type="curve" smooth="yes"/>
      <point x="257" y="50" type="line" smooth="yes"/>
      <point x="257" y="23"/>
      <point x="234" y="0"/>
      <point x="207" y="0" type="curve" smooth="yes"/>
      <point x="180" y="0"/>
      <point x="157" y="23"/>
    </contour>
  </outline>
</glyph>
<glyph name="g" format="2">
  <advance width="600"/>
  <unicode hex="0067"/>
  <anchor x="300" y="-270" name="bottom"/>
  <anchor x="300" y="630" name="top"/>
  <outline>
    <contour>
      <point x="500" y="580" type="move"/>
      <point x="500" y="-20" type="line" smooth="yes"/>
      <point x="500" y="-131"/>
      <point x="411" y="-220"/>
      <point x="300" y="-220" type="curve" smooth="yes"/>
      <point x="245" y="-220"/>
      <point x="195" y="-198"/>
      <point x="159" y="-162" type="curve"/>
    </contour>
    <contour>
      <point x="500" y="250" type="move"/>
      <point x="500" y="139"/>
      <point x="411" y="50"/>
      <point x="300" y="50" type="curve" smooth="yes"/>
      <point x="190" y="50"/>
      <point x="100" y="139"/>
      <point x="100" y="250" type="curve" smooth="yes"/>
      <point x="100" y="380" type="line" smooth="yes"/>
      <point x="100" y="490"/>
      <point x="190" y="580"/>
      <point x="300" y="580" type="curve" smooth="yes"/>
      <point x="411" y="580"/>
      <point x="500" y="490"/>
      <point x="500" y="380" type="curve"/>
    </contour>
  </outline>
</glyph>
<glyph name="h" format="2">
  <advance width="600"/>
  <unicode hex="0068"/>
  <anchor x="300" y="50" name="bottom"/>
  <anchor x="300" y="533" name="center"/>
  <anchor x="300" y="900" name="top"/>
  <outline>
    <contour>
      <point x="100" y="850" type="move"/>
      <point x="100" y="50" type="line"/>
    </contour>
    <contour>
      <point x="100" y="380" type="move"/>
      <point x="100" y="490"/>
      <point x="189" y="580"/>
      <point x="300" y="580" type="curve" smooth="yes"/>
      <point x="410" y="580"/>
      <point x="500" y="490"/>
      <point x="500" y="380" type="curve" smooth="yes"/>
      <point x="500" y="50" type="line"/>
    </contour>
  </outline>
</glyph>
<glyph name="k" format="2">
  <advance width="600"/>
  <unicode hex="006B"/>
  <anchor x="300" y="50" name="bottom"/>
  <anchor x="300" y="900" name="top"/>
  <outline>
    <contour>
      <point x="100" y="850" type="move"/>
      <point x="100" y="50" type="line"/>
    </contour>
    <contour>
      <point x="100" y="220" type="move"/>
      <point x="462" y="580" type="line"/>
    </contour>
    <contour>
      <point x="215" y="335" type="move"/>
      <point x="500" y="51" type="line"/>
    </contour>
  </outline>
</glyph>
<glyph name="l" format="2">
  <advance width="330"/>
  <unicode hex="006C"/>
  <anchor x="165" y="0" name="bottom"/>
  <anchor x="165" y="508" name="center"/>
  <anchor x="50" y="900" name="top"/>
  <anchor x="100" y="900" name="top_2"/>
  <anchor x="240" y="630" name="topright"/>
  <outline>
    <contour>
      <point x="150" y="850" type="curve" smooth="yes"/>
      <point x="150" y="150" type="line" smooth="yes"/>
      <point x="150" y="122"/>
      <point x="173" y="100"/>
      <point x="200" y="100" type="curve" smooth="yes"/>
      <point x="230" y="100" type="line" smooth="yes"/>
      <point x="257" y="100"/>
      <point x="280" y="77"/>
      <point x="280" y="50" type="curve" smooth="yes"/>
      <point x="280" y="23"/>
      <point x="257" y="0"/>
      <point x="230" y="0" type="curve" smooth="yes"/>
      <point x="200" y="0" type="line" smooth="yes"/>
      <point x="118" y="0"/>
      <point x="50" y="68"/>
      <point x="50" y="150" type="curve" smooth="yes"/>
      <point x="50" y="850" type="line" smooth="yes"/>
      <point x="50" y="877"/>
      <point x="73" y="900"/>
      <point x="100" y="900" type="curve" smooth="yes"/>
      <point x="127" y="900"/>
      <point x="150" y="877"/>
    </contour>
  </outline>
</glyph>
<glyph name="m" format="2">
  <advance width="1000"/>
  <unicode hex="006D"/>
  <anchor x="500" y="0" name="bottom"/>
  <anchor x="500" y="630" name="top"/>
  <outline>
    <contour>
      <point x="100" y="580" type="move"/>
      <point x="100" y="50" type="line"/>
    </contour>
    <contour>
      <point x="100" y="380" type="move"/>
      <point x="100" y="490"/>
      <point x="189" y="580"/>
      <point x="300" y="580" type="curve" smooth="yes"/>
      <point x="410" y="580"/>
      <point x="500" y="490"/>
      <point x="500" y="380" type="curve" smooth="yes"/>
      <point x="500" y="50" type="line"/>
    </contour>
    <contour>
      <point x="500" y="380" type="move"/>
      <point x="500" y="490"/>
      <point x="589" y="580"/>
      <point x="700" y="580" type="curve" smooth="yes"/>
      <point x="810" y="580"/>
      <point x="900" y="490"/>
      <point x="900" y="380" type="curve" smooth="yes"/>
      <point x="900" y="50" type="line"/>
    </contour>
  </outline>
</glyph>
<glyph name="n" format="2">
  <advance width="600"/>
  <unicode hex="006E"/>
  <anchor x="300" y="0" name="bottom"/>
  <anchor x="300" y="630" name="top"/>
  <outline>
    <contour>
      <point x="100" y="580" type="move"/>
      <point x="100" y="50" type="line"/>
    </contour>
    <contour>
      <point x="100" y="380" type="move"/>
      <point x="100" y="490"/>
      <point x="190" y="580"/>
      <point x="300" y="580" type="curve" smooth="yes"/>
      <point x="411" y="580"/>
      <point x="500" y="490"/>
      <point x="500" y="380" type="curve" smooth="yes"/>
      <point x="500" y="50" type="line"/>
    </contour>
  </outline>
</glyph>
<glyph name="o" format="2">
  <advance width="600"/>
  <unicode hex="006F"/>
  <anchor x="300" y="50" name="bottom"/>
  <anchor x="300" y="340" name="center"/>
  <anchor x="410" y="109" name="ogonek"/>
  <anchor x="300" y="630" name="top"/>
  <anchor x="580" y="630" name="topright"/>
  <outline>
    <contour>
      <point x="300" y="0" type="curve" smooth="yes"/>
      <point x="162" y="0"/>
      <point x="50" y="113"/>
      <point x="50" y="250" type="curve" smooth="yes"/>
      <point x="50" y="380" type="line" smooth="yes"/>
      <point x="50" y="518"/>
      <point x="163" y="630"/>
      <point x="300" y="630" type="curve" smooth="yes"/>
      <point x="438" y="630"/>
      <point x="550" y="518"/>
      <point x="550" y="380" type="curve" smooth="yes"/>
      <point x="550" y="250" type="line" smooth="yes"/>
      <point x="550" y="113"/>
      <point x="438" y="0"/>
    </contour>
    <contour>
      <point x="300" y="100" type="curve" smooth="yes"/>
      <point x="383" y="100"/>
      <point x="450" y="168"/>
      <point x="450" y="250" type="curve" smooth="yes"/>
      <point x="450" y="380" type="line" smooth="yes"/>
      <point x="450" y="463"/>
      <point x="383" y="530"/>
      <point x="300" y="530" type="curve" smooth="yes"/>
      <point x="218" y="530"/>
      <point x="150" y="463"/>
      <point x="150" y="380" type="curve" smooth="yes"/>
      <point x="150" y="250" type="line" smooth="yes"/>
      <point x="150" y="168"/>
      <point x="218" y="100"/>
    </contour>
  </outline>
</glyph>
<glyph name="p" format="2">
  <advance width="590"/>
  <unicode hex="0070"/>
  <anchor x="290" y="50" name="bottom"/>
  <anchor x="290" y="630" name="top"/>
  <outline>
    <contour>
      <point x="90" y="-220" type="move"/>
      <point x="90" y="580" type="line"/>
    </contour>
    <contour>
      <point x="90" y="380" type="move"/>
      <point x="90" y="490"/>
      <point x="180" y="580"/>
      <point x="290" y="580" type="curve" smooth="yes"/>
      <point x="400" y="580"/>
      <point x="490" y="490"/>
      <point x="490" y="380" type="curve" smooth="yes"/>
      <point x="490" y="250" type="line" smooth="yes"/>
      <point x="490" y="140"/>
      <point x="400" y="50"/>
      <point x="290" y="50" type="curve" smooth="yes"/>
      <point x="180" y="50"/>
      <point x="90" y="140"/>
      <point x="90" y="250" type="curve"/>
    </contour>
  </outline>
</glyph>
<glyph name="q" format="2">
  <advance width="600"/>
  <unicode hex="0071"/>
  <anchor x="300" y="0" name="bottom"/>
  <anchor x="300" y="630" name="top"/>
  <outline>
    <contour>
      <point x="500" y="-220" type="move"/>
      <point x="500" y="580" type="line"/>
    </contour>
    <contour>
      <point x="500" y="250" type="move"/>
      <point x="500" y="140"/>
      <point x="410" y="50"/>
      <point x="300" y="50" type="curve" smooth="yes"/>
      <point x="190" y="50"/>
      <point x="100" y="140"/>
      <point x="100" y="250" type="curve" smooth="yes"/>
      <point x="100" y="380" type="line" smooth="yes"/>
      <point x="100" y="490"/>
      <point x="190" y="580"/>
      <point x="300" y="580" type="curve" smooth="yes"/>
      <point x="410" y="580"/>
      <point x="500" y="490"/>
      <point x="500" y="380" type="curve"/>
    </contour>
  </outline>
</glyph>
<glyph name="r" format="2">
  <advance width="400"/>
  <unicode hex="0072"/>
  <anchor x="100" y="0" name="bottom"/>
  <anchor x="190" y="630" name="top"/>
  <outline>
    <contour>
      <point x="100" y="380" type="move"/>
      <point x="100" y="490"/>
      <point x="189" y="580"/>
      <point x="300" y="580" type="curve"/>
    </contour>
    <contour>
      <point x="100" y="580" type="move"/>
      <point x="100" y="50" type="line"/>
    </contour>
  </outline>
</glyph>
<glyph name="s" format="2">
  <advance width="554"/>
  <unicode hex="0073"/>
  <anchor x="277" y="0" name="bottom"/>
  <anchor x="277" y="630" name="top"/>
  <outline>
    <contour>
      <point x="144" y="133" type="curve" smooth="yes"/>
      <point x="174" y="108"/>
      <point x="206" y="100"/>
      <point x="277" y="100" type="curve" smooth="yes"/>
      <point x="322" y="100" type="line" smooth="yes"/>
      <point x="368" y="100"/>
      <point x="404" y="137"/>
      <point x="404" y="183" type="curve" smooth="yes"/>
      <point x="404" y="228"/>
      <point x="367" y="265"/>
      <point x="322" y="265" type="curve" smooth="yes"/>
      <point x="232" y="265" type="line" smooth="yes"/>
      <point x="132" y="265"/>
      <point x="50" y="346"/>
      <point x="50" y="448" type="curve" smooth="yes"/>
      <point x="50" y="549"/>
      <point x="131" y="630"/>
      <point x="232" y="630" type="curve" smooth="yes"/>
      <point x="277" y="630" type="line" smooth="yes"/>
      <point x="384" y="630"/>
      <point x="430" y="610"/>
      <point x="474" y="573" type="curve" smooth="yes"/>
      <point x="494" y="555"/>
      <point x="497" y="523"/>
      <point x="479" y="502" type="curve" smooth="yes"/>
      <point x="461" y="482"/>
      <point x="429" y="479"/>
      <point x="408" y="497" type="curve" smooth="yes"/>
      <point x="380" y="522"/>
      <point x="346" y="530"/>
      <point x="277" y="530" type="curve" smooth="yes"/>
      <point x="232" y="530" type="line" smooth="yes"/>
      <point x="187" y="530"/>
      <point x="150" y="493"/>
      <point x="150" y="448" type="curve" smooth="yes"/>
      <point x="150" y="402"/>
      <point x="186" y="365"/>
      <point x="232" y="365" type="curve" smooth="yes"/>
      <point x="322" y="365" type="line" smooth="yes"/>
      <point x="423" y="365"/>
      <point x="504" y="284"/>
      <point x="504" y="183" type="curve" smooth="yes"/>
      <point x="504" y="81"/>
      <point x="422" y="0"/>
      <point x="322" y="0" type="curve" smooth="yes"/>
      <point x="277" y="0" type="line" smooth="yes"/>
      <point x="170" y="0"/>
      <point x="124" y="20"/>
      <point x="80" y="57" type="curve" smooth="yes"/>
      <point x="59" y="74"/>
      <point x="56" y="106"/>
      <point x="74" y="127" type="curve" smooth="yes"/>
      <point x="91" y="148"/>
      <point x="123" y="151"/>
    </contour>
  </outline>
</glyph>
<glyph name="t" format="2">
  <advance width="435"/>
  <unicode hex="0074"/>
  <anchor x="218" y="0" name="bottom"/>
  <anchor x="335" y="0" name="bottom_2"/>
  <anchor x="218" y="315" name="center"/>
  <anchor x="205" y="630" name="top"/>
  <anchor x="205" y="745" name="top_2"/>
  <anchor x="353" y="615" name="topright"/>
  <outline>
    <contour>
      <point x="205" y="745" type="move"/>
      <point x="205" y="150" type="line" smooth="yes"/>
      <point x="205" y="95"/>
      <point x="250" y="50"/>
      <point x="305" y="50" type="curve" smooth="yes"/>
      <point x="335" y="50" type="line"/>
    </contour>
    <contour>
      <point x="100" y="580" type="move"/>
      <point x="310" y="580" type="line"/>
    </contour>
  </outline>
</glyph>
<glyph name="u" format="2">
  <advance width="600"/>
  <unicode hex="0075"/>
  <anchor x="300" y="50" name="bottom"/>
  <anchor x="549" y="0" name="ogonek"/>
  <anchor x="300" y="630" name="top"/>
  <anchor x="451" y="630" name="top_viet"/>
  <outline>
    <contour>
      <point x="500" y="580" type="move"/>
      <point x="500" y="50" type="line"/>
    </contour>
    <contour>
      <point x="500" y="250" type="move"/>
      <point x="500" y="140"/>
      <point x="410" y="50"/>
      <point x="300" y="50" type="curve" smooth="yes"/>
      <point x="189" y="50"/>
      <point x="100" y="140"/>
      <point x="100" y="250" type="curve" smooth="yes"/>
      <point x="100" y="580" type="line"/>
    </contour>
  </outline>
</glyph>
<glyph name="v" format="2">
  <advance width="600"/>
  <unicode hex="0076"/>
  <anchor x="300" y="50" name="bottom"/>
  <anchor x="300" y="630" name="top"/>
  <outline>
    <contour>
      <point x="547" y="562" type="curve" smooth="yes"/>
      <point x="347" y="32" type="line" smooth="yes"/>
      <point x="337" y="7"/>
      <point x="308" y="-6"/>
      <point x="282" y="3" type="curve" smooth="yes"/>
      <point x="257" y="13"/>
      <point x="244" y="42"/>
      <point x="253" y="68" type="curve" smooth="yes"/>
      <point x="453" y="598" type="line" smooth="yes"/>
      <point x="463" y="623"/>
      <point x="492" y="636"/>
      <point x="518" y="627" type="curve" smooth="yes"/>
      <point x="543" y="617"/>
      <point x="556" y="588"/>
    </contour>
    <contour>
      <point x="253" y="32" type="curve" smooth="yes"/>
      <point x="53" y="562" type="line" smooth="yes"/>
      <point x="44" y="588"/>
      <point x="57" y="617"/>
      <point x="82" y="627" type="curve" smooth="yes"/>
      <point x="108" y="636"/>
      <point x="137" y="623"/>
      <point x="147" y="598" type="curve" smooth="yes"/>
      <point x="347" y="68" type="line" smooth="yes"/>
      <point x="356" y="42"/>
      <point x="343" y="13"/>
      <point x="318" y="3" type="curve" smooth="yes"/>
      <point x="292" y="-6"/>
      <point x="263" y="7"/>
    </contour>
  </outline>
</glyph>
<glyph name="w" format="2">
  <advance width="860"/>
  <unicode hex="0077"/>
  <anchor x="430" y="50" name="bottom"/>
  <anchor x="430" y="630" name="top"/>
  <outline>
    <contour>
      <point x="430" y="580" type="move"/>
      <point x="265" y="50" type="line"/>
    </contour>
    <contour>
      <point x="760" y="580" type="move"/>
      <point x="595" y="50" type="line"/>
    </contour>
    <contour>
      <point x="595" y="50" type="move"/>
      <point x="430" y="580" type="line"/>
    </contour>
    <contour>
      <point x="265" y="50" type="move"/>
      <point x="100" y="580" type="line"/>
    </contour>
  </outline>
</glyph>
<glyph name="x" format="2">
  <advance width="600"/>
  <unicode hex="0078"/>
  <anchor x="300" y="50" name="bottom"/>
  <anchor x="300" y="630" name="top"/>
  <outline>
    <contour>
      <point x="540" y="550" type="curve" smooth="yes"/>
      <point x="140" y="20" type="line" smooth="yes"/>
      <point x="124" y="-2"/>
      <point x="91" y="-6"/>
      <point x="70" y="10" type="curve" smooth="yes"/>
      <point x="48" y="26"/>
      <point x="44" y="59"/>
      <point x="60" y="80" type="curve" smooth="yes"/>
      <point x="460" y="610" type="line" smooth="yes"/>
      <point x="476" y="632"/>
      <point x="509" y="636"/>
      <point x="530" y="620" type="curve" smooth="yes"/>
      <point x="552" y="604"/>
      <point x="556" y="571"/>
    </contour>
    <contour>
      <point x="460" y="20" type="curve" smooth="yes"/>
      <point x="60" y="550" type="line" smooth="yes"/>
      <point x="44" y="571"/>
      <point x="48" y="604"/>
      <point x="70" y="620" type="curve" smooth="yes"/>
      <point x="91" y="636"/>
      <point x="124" y="632"/>
      <point x="140" y="610" type="curve" smooth="yes"/>
      <point x="540" y="80" type="line" smooth="yes"/>
      <point x="556" y="59"/>
      <point x="552" y="26"/>
      <point x="530" y="10" type="curve" smooth="yes"/>
      <point x="509" y="-6"/>
      <point x="476" y="-2"/>
    </contour>
  </outline>
</glyph>
<glyph name="y" format="2">
  <advance width="600"/>
  <unicode hex="0079"/>
  <anchor x="300" y="-220" name="bottom"/>
  <anchor x="300" y="630" name="top"/>
  <outline>
    <contour>
      <point x="550" y="250" type="curve" smooth="yes"/>
      <point x="550" y="112"/>
      <point x="438" y="0"/>
      <point x="300" y="0" type="curve" smooth="yes"/>
      <point x="161" y="0"/>
      <point x="50" y="113"/>
      <point x="50" y="250" type="curve" smooth="yes"/>
      <point x="50" y="580" type="line" smooth="yes"/>
      <point x="50" y="607"/>
      <point x="73" y="630"/>
      <point x="100" y="630" type="curve" smooth="yes"/>
      <point x="127" y="630"/>
      <point x="150" y="607"/>
      <point x="150" y="580" type="curve" smooth="yes"/>
      <point x="150" y="250" type="line" smooth="yes"/>
      <point x="150" y="168"/>
      <point x="217" y="100"/>
      <point x="300" y="100" type="curve" smooth="yes"/>
      <point x="383" y="100"/>
      <point x="450" y="168"/>
      <point x="450" y="250" type="curve" smooth="yes"/>
      <point x="450" y="277"/>
      <point x="473" y="300"/>
      <point x="500" y="300" type="curve" smooth="yes"/>
      <point x="527" y="300"/>
      <point x="550" y="277"/>
    </contour>
    <contour>
      <point x="550" y="580" type="curve" smooth="yes"/>
      <point x="550" y="-20" type="line" smooth="yes"/>
      <point x="550" y="-158"/>
      <point x="438" y="-270"/>
      <point x="300" y="-270" type="curve" smooth="yes"/>
      <point x="231" y="-270"/>
      <point x="169" y="-243"/>
      <point x="123" y="-196" type="curve" smooth="yes"/>
      <point x="104" y="-177"/>
      <point x="104" y="-145"/>
      <point x="123" y="-126" type="curve" smooth="yes"/>
      <point x="142" y="-107"/>
      <point x="174" y="-107"/>
      <point x="193" y="-126" type="curve" smooth="yes"/>
      <point x="221" y="-153"/>
      <point x="259" y="-170"/>
      <point x="300" y="-170" type="curve" smooth="yes"/>
      <point x="383" y="-170"/>
      <point x="450" y="-102"/>
      <point x="450" y="-20" type="curve" smooth="yes"/>
      <point x="450" y="580" type="line" smooth="yes"/>
      <point x="450" y="607"/>
      <point x="473" y="630"/>
      <point x="500" y="630" type="curve" smooth="yes"/>
      <point x="527" y="630"/>
      <point x="550" y="607"/>
    </contour>
  </outline>
</glyph>
<glyph name="z" format="2">
  <advance width="600"/>
  <unicode hex="007A"/>
  <anchor x="300" y="50" name="bottom"/>
  <anchor x="300" y="340" name="center"/>
  <anchor x="300" y="630" name="top"/>
  <outline>
    <contour>
      <point x="500" y="580" type="move"/>
      <point x="100" y="50" type="line"/>
    </contour>
    <contour>
      <point x="100" y="50" type="move"/>
      <point x="500" y="50" type="line"/>
    </contour>
    <contour>
      <point x="100" y="580" type="move"/>
      <point x="500" y="580" type="line"/>
    </contour>
  </outline>
</glyph>
<glyph name="braceleft" format="2">
  <advance width="520"/>
  <unicode hex="007B"/>
  <outline>
    <contour>
      <point x="421" y="850" type="move"/>
      <point x="332" y="850"/>
      <point x="261" y="778"/>
      <point x="261" y="690" type="curve" smooth="yes"/>
      <point x="261" y="530" type="line" smooth="yes"/>
      <point x="261" y="442"/>
      <point x="189" y="370"/>
      <point x="101" y="370" type="curve"/>
    </contour>
    <contour>
      <point x="101" y="370" type="move"/>
      <point x="189" y="370"/>
      <point x="261" y="299"/>
      <point x="261" y="210" type="curve" smooth="yes"/>
      <point x="261" y="50" type="line" smooth="yes"/>
      <point x="261" y="-38"/>
      <point x="332" y="-110"/>
      <point x="421" y="-110" type="curve"/>
    </contour>
  </outline>
</glyph>
<glyph name="bar" format="2">
  <advance width="200"/>
  <unicode hex="007C"/>
  <outline>
    <contour>
      <point x="50" y="-271" type="curve" smooth="yes"/>
      <point x="50" y="1015" type="line" smooth="yes"/>
      <point x="50" y="1042"/>
      <point x="73" y="1065"/>
      <point x="100" y="1065" type="curve" smooth="yes"/>
      <point x="127" y="1065"/>
      <point x="150" y="1042"/>
      <point x="150" y="1015" type="curve" smooth="yes"/>
      <point x="150" y="-271" type="line" smooth="yes"/>
      <point x="150" y="-298"/>
      <point x="127" y="-321"/>
      <point x="100" y="-321" type="curve" smooth="yes"/>
      <point x="73" y="-321"/>
      <point x="50" y="-298"/>
    </contour>
  </outline>
</glyph>
<glyph name="cent" format="2">
  <advance width="574"/>
  <unicode hex="00A2"/>
  <outline>
    <contour>
      <point x="340" y="41" type="curve" smooth="yes"/>
      <point x="340" y="-50" type="line" smooth="yes"/>
      <point x="340" y="-77"/>
      <point x="317" y="-100"/>
      <point x="290" y="-100" type="curve" smooth="yes"/>
      <point x="263" y="-100"/>
      <point x="240" y="-77"/>
      <point x="240" y="-50" type="curve" smooth="yes"/>
      <point x="240" y="41" type="line" smooth="yes"/>
      <point x="240" y="68"/>
      <point x="263" y="91"/>
      <point x="290" y="91" type="curve" smooth="yes"/>
      <point x="317" y="91"/>
      <point x="340" y="68"/>
    </contour>
    <contour>
      <point x="340" y="680" type="curve" smooth="yes"/>
      <point x="340" y="592" type="line" smooth="yes"/>
      <point x="340" y="565"/>
      <point x="317" y="542"/>
      <point x="290" y="542" type="curve" smooth="yes"/>
      <point x="263" y="542"/>
      <point x="240" y="565"/>
      <point x="240" y="592" type="curve" smooth="yes"/>
      <point x="240" y="680" type="line" smooth="yes"/>
      <point x="240" y="707"/>
      <point x="263" y="730"/>
      <point x="290" y="730" type="curve" smooth="yes"/>
      <point x="317" y="730"/>
      <point x="340" y="707"/>
    </contour>
    <component base="c"/>
  </outline>
</glyph>
<glyph name="sterling" format="2">
  <advance width="730"/>
  <unicode hex="00A3"/>
  <outline>
    <contour>
      <point x="580" y="640" type="curve" smooth="yes"/>
      <point x="580" y="728"/>
      <point x="508" y="800"/>
      <point x="420" y="800" type="curve" smooth="yes"/>
      <point x="332" y="800"/>
      <point x="260" y="728"/>
      <point x="260" y="640" type="curve" smooth="yes"/>
      <point x="260" y="262" type="line" smooth="yes"/>
      <point x="260" y="208"/>
      <point x="242" y="155"/>
      <point x="209" y="111" type="curve" smooth="yes"/>
      <point x="140" y="20" type="line" smooth="yes"/>
      <point x="124" y="-2"/>
      <point x="91" y="-6"/>
      <point x="70" y="10" type="curve" smooth="yes"/>
      <point x="48" y="26"/>
      <point x="44" y="59"/>
      <point x="60" y="80" type="curve" smooth="yes"/>
      <point x="129" y="171" type="line" smooth="yes"/>
      <point x="148" y="197"/>
      <point x="160" y="230"/>
      <point x="160" y="262" type="curve" smooth="yes"/>
      <point x="160" y="640" type="line" smooth="yes"/>
      <point x="160" y="784"/>
      <point x="276" y="900"/>
      <point x="420" y="900" type="curve" smooth="yes"/>
      <point x="564" y="900"/>
      <point x="680" y="784"/>
      <point x="680" y="640" type="curve" smooth="yes"/>
      <point x="680" y="613"/>
      <point x="657" y="590"/>
      <point x="630" y="590" type="curve" smooth="yes"/>
      <point x="603" y="590"/>
      <point x="580" y="613"/>
    </contour>
    <contour>
      <point x="320" y="372" type="curve" smooth="yes"/>
      <point x="100" y="372" type="line" smooth="yes"/>
      <point x="73" y="372"/>
      <point x="50" y="395"/>
      <point x="50" y="422" type="curve" smooth="yes"/>
      <point x="50" y="449"/>
      <point x="73" y="472"/>
      <point x="100" y="472" type="curve" smooth="yes"/>
      <point x="320" y="472" type="line" smooth="yes"/>
      <point x="347" y="472"/>
      <point x="370" y="449"/>
      <point x="370" y="422" type="curve" smooth="yes"/>
      <point x="370" y="395"/>
      <point x="347" y="372"/>
    </contour>
    <contour>
      <point x="100" y="100" type="curve" smooth="yes"/>
      <point x="630" y="100" type="line" smooth="yes"/>
      <point x="657" y="100"/>
      <point x="680" y="77"/>
      <point x="680" y="50" type="curve" smooth="yes"/>
      <point x="680" y="23"/>
      <point x="657" y="0"/>
      <point x="630" y="0" type="curve" smooth="yes"/>
      <point x="100" y="0" type="line" smooth="yes"/>
      <point x="73" y="0"/>
      <point x="50" y="23"/>
      <point x="50" y="50" type="curve" smooth="yes"/>
      <point x="50" y="77"/>
      <point x="73" y="100"/>
    </contour>
  </outline>
</glyph>
<glyph name="currency" format="2">
  <advance width="730"/>
  <unicode hex="00A4"/>
  <outline>
    <contour>
      <point x="590" y="440" type="curve" smooth="yes"/>
      <point x="590" y="316"/>
      <point x="489" y="215"/>
      <point x="365" y="215" type="curve" smooth="yes"/>
      <point x="240" y="215"/>
      <point x="140" y="316"/>
      <point x="140" y="440" type="curve" smooth="yes"/>
      <point x="140" y="565"/>
      <point x="240" y="665"/>
      <point x="365" y="665" type="curve" smooth="yes"/>
      <point x="489" y="665"/>
      <point x="590" y="565"/>
    </contour>
    <contour>
      <point x="206" y="599" type="move"/>
      <point x="100" y="705" type="line"/>
    </contour>
    <contour>
      <point x="630" y="175" type="move"/>
      <point x="524" y="281" type="line"/>
    </contour>
    <contour>
      <point x="629" y="705" type="move"/>
      <point x="523" y="599" type="line"/>
    </contour>
    <contour>
      <point x="206" y="281" type="move"/>
      <point x="100" y="175" type="line"/>
    </contour>
  </outline>
</glyph>
<glyph name="yen" format="2">
  <advance width="730"/>
  <unicode hex="00A5"/>
  <outline>
    <contour>
      <point x="365" y="450" type="move"/>
      <point x="100" y="850" type="line"/>
    </contour>
    <contour>
      <point x="365" y="50" type="move"/>
      <point x="365" y="450" type="line"/>
    </contour>
    <contour>
      <point x="115" y="450" type="move"/>
      <point x="615" y="450" type="line"/>
    </contour>
    <contour>
      <point x="115" y="250" type="move"/>
      <point x="615" y="250" type="line"/>
    </contour>
    <contour>
      <point x="630" y="850" type="move"/>
      <point x="365" y="450" type="line"/>
    </contour>
  </outline>
</glyph>
<glyph name="brokenbar" format="2">
  <advance width="200"/>
  <unicode hex="00A6"/>
  <outline>
    <contour>
      <point x="51" y="560" type="curve" smooth="yes"/>
      <point x="50" y="1015" type="line" smooth="yes"/>
      <point x="50" y="1042"/>
      <point x="73" y="1065"/>
      <point x="100" y="1065" type="curve" smooth="yes"/>
      <point x="127" y="1065"/>
      <point x="150" y="1042"/>
      <point x="150" y="1015" type="curve" smooth="yes"/>
      <point x="151" y="560" type="line" smooth="yes"/>
      <point x="151" y="533"/>
      <point x="128" y="510"/>
      <point x="101" y="510" type="curve" smooth="yes"/>
      <point x="74" y="510"/>
      <point x="51" y="533"/>
    </contour>
    <contour>
      <point x="50" y="-270" type="curve" smooth="yes"/>
      <point x="50" y="185" type="line" smooth="yes"/>
      <point x="50" y="212"/>
      <point x="73" y="235"/>
      <point x="100" y="235" type="curve" smooth="yes"/>
      <point x="127" y="235"/>
      <point x="150" y="212"/>
      <point x="150" y="185" type="curve" smooth="yes"/>
      <point x="150" y="-270" type="line" smooth="yes"/>
      <point x="150" y="-297"/>
      <point x="127" y="-320"/>
      <point x="100" y="-320" type="curve" smooth="yes"/>
      <point x="73" y="-320"/>
      <point x="50" y="-297"/>
    </contour>
  </outline>
</glyph>
<glyph name="section" format="2">
  <advance width="554"/>
  <unicode hex="00A7"/>
  <outline>
    <contour identifier="ID0x32631e4a0">
      <point x="322" y="215" type="move"/>
      <point x="395" y="215"/>
      <point x="454" y="274"/>
      <point x="454" y="348" type="curve" smooth="yes"/>
      <point x="454" y="532"/>
      <point x="100" y="511"/>
      <point x="100" y="718" type="curve" smooth="yes"/>
      <point x="100" y="791"/>
      <point x="159" y="850"/>
      <point x="232" y="850" type="curve" smooth="yes"/>
      <point x="277" y="850" type="line" smooth="yes"/>
      <point x="365" y="850"/>
      <point x="405" y="836"/>
      <point x="441" y="805" type="curve"/>
    </contour>
    <contour>
      <point x="113" y="-43" type="move"/>
      <point x="149" y="-74"/>
      <point x="189" y="-88"/>
      <point x="277" y="-88" type="curve" smooth="yes"/>
      <point x="322" y="-88" type="line" smooth="yes"/>
      <point x="395" y="-88"/>
      <point x="454" y="-29"/>
      <point x="454" y="44" type="curve" smooth="yes"/>
      <point x="454" y="251"/>
      <point x="100" y="230"/>
      <point x="100" y="414" type="curve" smooth="yes"/>
      <point x="100" y="488"/>
      <point x="159" y="547"/>
      <point x="232" y="547" type="curve"/>
    </contour>
  </outline>
</glyph>
<glyph name="copyright" format="2">
  <advance width="1000"/>
  <unicode hex="00A9"/>
  <outline>
    <contour>
      <point x="150" y="450" type="curve" smooth="yes"/>
      <point x="150" y="257"/>
      <point x="307" y="100"/>
      <point x="500" y="100" type="curve" smooth="yes"/>
      <point x="693" y="100"/>
      <point x="850" y="257"/>
      <point x="850" y="450" type="curve" smooth="yes"/>
      <point x="850" y="643"/>
      <point x="693" y="800"/>
      <point x="500" y="800" type="curve" smooth="yes"/>
      <point x="307" y="800"/>
      <point x="150" y="643"/>
    </contour>
    <contour>
      <point x="670" y="305" type="curve" smooth="yes"/>
      <point x="635" y="246"/>
      <point x="572" y="207"/>
      <point x="500" y="207" type="curve" smooth="yes"/>
      <point x="391" y="207"/>
      <point x="304" y="294"/>
      <point x="304" y="403" type="curve" smooth="yes"/>
      <point x="304" y="497" type="line" smooth="yes"/>
      <point x="304" y="606"/>
      <point x="391" y="693"/>
      <point x="500" y="693" type="curve" smooth="yes"/>
      <point x="573" y="693"/>
      <point x="636" y="654"/>
      <point x="669" y="595" type="curve" smooth="yes"/>
      <point x="683" y="571"/>
      <point x="674" y="540"/>
      <point x="651" y="527" type="curve" smooth="yes"/>
      <point x="627" y="513"/>
      <point x="596" y="522"/>
      <point x="583" y="545" type="curve" smooth="yes"/>
      <point x="566" y="574"/>
      <point x="535" y="593"/>
      <point x="500" y="593" type="curve" smooth="yes"/>
      <point x="447" y="593"/>
      <point x="404" y="550"/>
      <point x="404" y="497" type="curve" smooth="yes"/>
      <point x="404" y="403" type="line" smooth="yes"/>
      <point x="404" y="350"/>
      <point x="447" y="307"/>
      <point x="500" y="307" type="curve" smooth="yes"/>
      <point x="536" y="307"/>
      <point x="567" y="326"/>
      <point x="584" y="355" type="curve" smooth="yes"/>
      <point x="598" y="379"/>
      <point x="629" y="387"/>
      <point x="652" y="373" type="curve" smooth="yes"/>
      <point x="676" y="359"/>
      <point x="684" y="328"/>
    </contour>
    <contour>
      <point x="50" y="450" type="curve" smooth="yes"/>
      <point x="50" y="699"/>
      <point x="251" y="900"/>
      <point x="500" y="900" type="curve" smooth="yes"/>
      <point x="749" y="900"/>
      <point x="950" y="699"/>
      <point x="950" y="450" type="curve" smooth="yes"/>
      <point x="950" y="201"/>
      <point x="749" y="0"/>
      <point x="500" y="0" type="curve" smooth="yes"/>
      <point x="251" y="0"/>
      <point x="50" y="201"/>
    </contour>
  </outline>
</glyph>
<glyph name="ordfeminine" format="2">
  <advance width="502"/>
  <unicode hex="00AA"/>
  <anchor x="251" y="272" name="bottom"/>
  <anchor x="491" y="282" name="ogonek"/>
  <anchor x="251" y="902" name="top"/>
  <outline>
    <contour identifier="ID0x136f40e30">
      <point x="402" y="450" type="move"/>
      <point x="402" y="850" type="line"/>
    </contour>
    <contour>
      <point x="402" y="601" type="move"/>
      <point x="402" y="518"/>
      <point x="334" y="450"/>
      <point x="251" y="450" type="curve" smooth="yes"/>
      <point x="167" y="450"/>
      <point x="100" y="518"/>
      <point x="100" y="601" type="curve" smooth="yes"/>
      <point x="100" y="699" type="line" smooth="yes"/>
      <point x="100" y="782"/>
      <point x="167" y="850"/>
      <point x="251" y="850" type="curve" smooth="yes"/>
      <point x="334" y="850"/>
      <point x="402" y="782"/>
      <point x="402" y="699" type="curve"/>
    </contour>
  </outline>
</glyph>
<glyph name="logicalnot" format="2">
  <advance width="700"/>
  <unicode hex="00AC"/>
  <outline>
    <contour>
      <point x="150" y="457" type="move"/>
      <point x="550" y="457" type="line"/>
    </contour>
    <contour>
      <point x="550" y="457" type="move"/>
      <point x="550" y="257" type="line"/>
    </contour>
  </outline>
</glyph>
<glyph name="registered" format="2">
  <advance width="1000"/>
  <unicode hex="00AE"/>
  <outline>
    <contour>
      <point x="372" y="643" type="move"/>
      <point x="498" y="643" type="line" smooth="yes"/>
      <point x="570" y="643"/>
      <point x="628" y="585"/>
      <point x="628" y="513" type="curve" smooth="yes"/>
      <point x="628" y="442"/>
      <point x="570" y="384"/>
      <point x="498" y="384" type="curve" smooth="yes"/>
      <point x="372" y="384" type="line"/>
    </contour>
    <contour>
      <point x="498" y="384" type="move"/>
      <point x="625" y="257" type="line"/>
    </contour>
    <contour>
      <point x="100" y="450" type="curve" smooth="yes"/>
      <point x="100" y="671"/>
      <point x="279" y="850"/>
      <point x="500" y="850" type="curve" smooth="yes"/>
      <point x="721" y="850"/>
      <point x="900" y="671"/>
      <point x="900" y="450" type="curve" smooth="yes"/>
      <point x="900" y="229"/>
      <point x="721" y="50"/>
      <point x="500" y="50" type="curve" smooth="yes"/>
      <point x="279" y="50"/>
      <point x="100" y="229"/>
    </contour>
    <contour>
      <point x="372" y="257" type="move"/>
      <point x="372" y="643" type="line"/>
    </contour>
  </outline>
</glyph>
<glyph name="degree" format="2">
  <advance width="370"/>
  <unicode hex="00B0"/>
  <outline>
    <contour>
      <point x="185" y="630" type="curve" smooth="yes"/>
      <point x="110" y="630"/>
      <point x="50" y="690"/>
      <point x="50" y="765" type="curve" smooth="yes"/>
      <point x="50" y="840"/>
      <point x="110" y="900"/>
      <point x="185" y="900" type="curve" smooth="yes"/>
      <point x="260" y="900"/>
      <point x="320" y="840"/>
      <point x="320" y="765" type="curve" smooth="yes"/>
      <point x="320" y="690"/>
      <point x="260" y="630"/>
    </contour>
    <contour>
      <point x="185" y="730" type="curve" smooth="yes"/>
      <point x="204" y="730"/>
      <point x="220" y="746"/>
      <point x="220" y="765" type="curve" smooth="yes"/>
      <point x="220" y="784"/>
      <point x="204" y="800"/>
      <point x="185" y="800" type="curve" smooth="yes"/>
      <point x="166" y="800"/>
      <point x="150" y="784"/>
      <point x="150" y="765" type="curve" smooth="yes"/>
      <point x="150" y="746"/>
      <point x="166" y="730"/>
    </contour>
  </outline>
</glyph>
<glyph name="plusminus" format="2">
  <advance width="700"/>
  <unicode hex="00B1"/>
  <outline>
    <component base="underscore"/>
    <contour identifier="ID0x120c5e5a0">
      <point x="100" y="400" type="move"/>
      <point x="600" y="400" type="line"/>
    </contour>
    <contour>
      <point x="350" y="580" type="move"/>
      <point x="350" y="220" type="line"/>
    </contour>
  </outline>
</glyph>
<glyph name="twosuperior" format="2">
  <advance width="465"/>
  <unicode hex="00B2"/>
  <outline>
    <contour>
      <point x="70" y="590" type="curve" smooth="yes"/>
      <point x="70" y="590"/>
      <point x="241" y="715"/>
      <point x="293" y="761" type="curve" smooth="yes"/>
      <point x="309" y="775"/>
      <point x="315" y="797"/>
      <point x="315" y="818" type="curve" smooth="yes"/>
      <point x="315" y="864"/>
      <point x="278" y="900"/>
      <point x="232" y="900" type="curve" smooth="yes"/>
      <point x="187" y="900"/>
      <point x="150" y="863"/>
      <point x="150" y="818" type="curve" smooth="yes"/>
      <point x="150" y="791"/>
      <point x="127" y="768"/>
      <point x="100" y="768" type="curve" smooth="yes"/>
      <point x="73" y="768"/>
      <point x="50" y="791"/>
      <point x="50" y="818" type="curve" smooth="yes"/>
      <point x="50" y="919"/>
      <point x="131" y="1000"/>
      <point x="232" y="1000" type="curve" smooth="yes"/>
      <point x="334" y="1000"/>
      <point x="415" y="918"/>
      <point x="415" y="818" type="curve" smooth="yes"/>
      <point x="415" y="765"/>
      <point x="395" y="717"/>
      <point x="359" y="687" type="curve" smooth="yes"/>
      <point x="305" y="639"/>
      <point x="130" y="510"/>
      <point x="130" y="510" type="curve" smooth="yes"/>
      <point x="108" y="494"/>
      <point x="76" y="499"/>
      <point x="60" y="520" type="curve" smooth="yes"/>
      <point x="44" y="542"/>
      <point x="49" y="574"/>
    </contour>
    <contour>
      <point x="365" y="500" type="curve" smooth="yes"/>
      <point x="100" y="500" type="line" smooth="yes"/>
      <point x="73" y="500"/>
      <point x="50" y="523"/>
      <point x="50" y="550" type="curve" smooth="yes"/>
      <point x="50" y="577"/>
      <point x="73" y="600"/>
      <point x="100" y="600" type="curve" smooth="yes"/>
      <point x="365" y="600" type="line" smooth="yes"/>
      <point x="392" y="600"/>
      <point x="415" y="577"/>
      <point x="415" y="550" type="curve" smooth="yes"/>
      <point x="415" y="523"/>
      <point x="392" y="500"/>
    </contour>
  </outline>
</glyph>
<glyph name="threesuperior" format="2">
  <advance width="440"/>
  <unicode hex="00B3"/>
  <outline>
    <contour>
      <point x="68" y="956" type="curve" smooth="yes"/>
      <point x="103" y="984"/>
      <point x="140" y="1000"/>
      <point x="225" y="1000" type="curve" smooth="yes"/>
      <point x="240" y="1000" type="line" smooth="yes"/>
      <point x="324" y="1000"/>
      <point x="390" y="933"/>
      <point x="390" y="850" type="curve" smooth="yes"/>
      <point x="390" y="768"/>
      <point x="324" y="700"/>
      <point x="240" y="700" type="curve" smooth="yes"/>
      <point x="213" y="700"/>
      <point x="190" y="723"/>
      <point x="190" y="750" type="curve" smooth="yes"/>
      <point x="190" y="777"/>
      <point x="213" y="800"/>
      <point x="240" y="800" type="curve" smooth="yes"/>
      <point x="268" y="800"/>
      <point x="290" y="823"/>
      <point x="290" y="850" type="curve" smooth="yes"/>
      <point x="290" y="878"/>
      <point x="268" y="900"/>
      <point x="240" y="900" type="curve" smooth="yes"/>
      <point x="225" y="900" type="line" smooth="yes"/>
      <point x="176" y="900"/>
      <point x="153" y="896"/>
      <point x="132" y="878" type="curve" smooth="yes"/>
      <point x="111" y="861"/>
      <point x="79" y="864"/>
      <point x="61" y="885" type="curve" smooth="yes"/>
      <point x="44" y="906"/>
      <point x="47" y="938"/>
    </contour>
    <contour>
      <point x="132" y="623" type="curve" smooth="yes"/>
      <point x="153" y="605"/>
      <point x="176" y="600"/>
      <point x="225" y="600" type="curve" smooth="yes"/>
      <point x="240" y="600" type="line" smooth="yes"/>
      <point x="268" y="600"/>
      <point x="290" y="623"/>
      <point x="290" y="650" type="curve" smooth="yes"/>
      <point x="290" y="678"/>
      <point x="268" y="700"/>
      <point x="240" y="700" type="curve" smooth="yes"/>
      <point x="213" y="700"/>
      <point x="190" y="723"/>
      <point x="190" y="750" type="curve" smooth="yes"/>
      <point x="190" y="777"/>
      <point x="213" y="800"/>
      <point x="240" y="800" type="curve" smooth="yes"/>
      <point x="324" y="800"/>
      <point x="390" y="733"/>
      <point x="390" y="650" type="curve" smooth="yes"/>
      <point x="390" y="568"/>
      <point x="324" y="500"/>
      <point x="240" y="500" type="curve" smooth="yes"/>
      <point x="225" y="500" type="line" smooth="yes"/>
      <point x="140" y="500"/>
      <point x="103" y="517"/>
      <point x="68" y="545" type="curve" smooth="yes"/>
      <point x="47" y="563"/>
      <point x="44" y="595"/>
      <point x="61" y="616" type="curve" smooth="yes"/>
      <point x="79" y="637"/>
      <point x="111" y="640"/>
    </contour>
    <contour>
      <point x="164" y="800" type="curve" smooth="yes"/>
      <point x="241" y="800" type="line" smooth="yes"/>
      <point x="268" y="800"/>
      <point x="291" y="777"/>
      <point x="291" y="750" type="curve" smooth="yes"/>
      <point x="291" y="723"/>
      <point x="268" y="700"/>
      <point x="241" y="700" type="curve" smooth="yes"/>
      <point x="164" y="700" type="line" smooth="yes"/>
      <point x="137" y="700"/>
      <point x="114" y="723"/>
      <point x="114" y="750" type="curve" smooth="yes"/>
      <point x="114" y="777"/>
      <point x="137" y="800"/>
    </contour>
  </outline>
</glyph>
<glyph name="micro" format="2">
  <advance width="680"/>
  <unicode hex="00B5"/>
  <outline>
    <contour>
      <point x="150" y="580" type="curve" smooth="yes"/>
      <point x="150" y="250" type="line" smooth="yes"/>
      <point x="150" y="168"/>
      <point x="217" y="100"/>
      <point x="300" y="100" type="curve" smooth="yes"/>
      <point x="383" y="100"/>
      <point x="450" y="168"/>
      <point x="450" y="250" type="curve" smooth="yes"/>
      <point x="450" y="580" type="line" smooth="yes"/>
      <point x="450" y="607"/>
      <point x="473" y="630"/>
      <point x="500" y="630" type="curve" smooth="yes"/>
      <point x="527" y="630"/>
      <point x="550" y="607"/>
      <point x="550" y="580" type="curve" smooth="yes"/>
      <point x="550" y="250" type="line" smooth="yes"/>
      <point x="550" y="113"/>
      <point x="438" y="0"/>
      <point x="300" y="0" type="curve" smooth="yes"/>
      <point x="161" y="0"/>
      <point x="50" y="113"/>
      <point x="50" y="250" type="curve" smooth="yes"/>
      <point x="50" y="580" type="line" smooth="yes"/>
      <point x="50" y="607"/>
      <point x="73" y="630"/>
      <point x="100" y="630" type="curve" smooth="yes"/>
      <point x="127" y="630"/>
      <point x="150" y="607"/>
    </contour>
    <contour>
      <point x="550" y="250" type="curve" smooth="yes"/>
      <point x="550" y="130" type="line" smooth="yes"/>
      <point x="550" y="113"/>
      <point x="563" y="100"/>
      <point x="580" y="100" type="curve" smooth="yes"/>
      <point x="607" y="100"/>
      <point x="630" y="77"/>
      <point x="630" y="50" type="curve" smooth="yes"/>
      <point x="630" y="23"/>
      <point x="607" y="0"/>
      <point x="580" y="0" type="curve" smooth="yes"/>
      <point x="507" y="0"/>
      <point x="450" y="59"/>
      <point x="450" y="130" type="curve" smooth="yes"/>
      <point x="450" y="250" type="line" smooth="yes"/>
      <point x="450" y="277"/>
      <point x="473" y="300"/>
      <point x="500" y="300" type="curve" smooth="yes"/>
      <point x="527" y="300"/>
      <point x="550" y="277"/>
    </contour>
    <contour>
      <point x="150" y="250" type="curve" smooth="yes"/>
      <point x="150" y="-220" type="line" smooth="yes"/>
      <point x="150" y="-247"/>
      <point x="127" y="-270"/>
      <point x="100" y="-270" type="curve" smooth="yes"/>
      <point x="73" y="-270"/>
      <point x="50" y="-247"/>
      <point x="50" y="-220" type="curve" smooth="yes"/>
      <point x="50" y="250" type="line" smooth="yes"/>
      <point x="50" y="277"/>
      <point x="73" y="300"/>
      <point x="100" y="300" type="curve" smooth="yes"/>
      <point x="127" y="300"/>
      <point x="150" y="277"/>
    </contour>
  </outline>
</glyph>
<glyph name="paragraph" format="2">
  <advance width="695"/>
  <unicode hex="00B6"/>
  <outline>
    <contour>
      <point x="425" y="400" type="move"/>
      <point x="325" y="400" type="line" smooth="yes"/>
      <point x="200" y="400"/>
      <point x="100" y="500"/>
      <point x="100" y="625" type="curve" smooth="yes"/>
      <point x="100" y="749"/>
      <point x="200" y="850"/>
      <point x="325" y="850" type="curve" smooth="yes"/>
      <point x="425" y="850" type="line"/>
    </contour>
    <contour>
      <point x="595" y="850" type="move"/>
      <point x="595" y="-220" type="line"/>
    </contour>
    <contour>
      <point x="425" y="850" type="move"/>
      <point x="425" y="-220" type="line"/>
    </contour>
  </outline>
</glyph>
<glyph name="onesuperior" format="2">
  <advance width="300"/>
  <unicode hex="00B9"/>
  <outline>
    <contour identifier="ID0x15af77bc0">
      <point x="200" y="950" type="move"/>
      <point x="200" y="550" type="line"/>
    </contour>
    <contour>
      <point x="100" y="896" type="move"/>
      <point x="200" y="950" type="line"/>
    </contour>
  </outline>
</glyph>
<glyph name="ordmasculine" format="2">
  <advance width="502"/>
  <unicode hex="00BA"/>
  <anchor x="251" y="50" name="bottom"/>
  <anchor x="251" y="340" name="center"/>
  <anchor x="361" y="109" name="ogonek"/>
  <anchor x="251" y="630" name="top"/>
  <anchor x="531" y="630" name="topright"/>
  <outline>
    <contour>
      <point x="251" y="400" type="curve" smooth="yes"/>
      <point x="141" y="400"/>
      <point x="50" y="491"/>
      <point x="50" y="601" type="curve" smooth="yes"/>
      <point x="50" y="699" type="line" smooth="yes"/>
      <point x="50" y="809"/>
      <point x="141" y="900"/>
      <point x="251" y="900" type="curve" smooth="yes"/>
      <point x="361" y="900"/>
      <point x="452" y="809"/>
      <point x="452" y="699" type="curve" smooth="yes"/>
      <point x="452" y="601" type="line" smooth="yes"/>
      <point x="452" y="491"/>
      <point x="361" y="400"/>
    </contour>
    <contour>
      <point x="251" y="500" type="curve" smooth="yes"/>
      <point x="307" y="500"/>
      <point x="352" y="545"/>
      <point x="352" y="601" type="curve" smooth="yes"/>
      <point x="352" y="699" type="line" smooth="yes"/>
      <point x="352" y="755"/>
      <point x="307" y="800"/>
      <point x="251" y="800" type="curve" smooth="yes"/>
      <point x="195" y="800"/>
      <point x="150" y="755"/>
      <point x="150" y="699" type="curve" smooth="yes"/>
      <point x="150" y="601" type="line" smooth="yes"/>
      <point x="150" y="545"/>
      <point x="195" y="500"/>
    </contour>
  </outline>
</glyph>
<glyph name="onequarter" format="2">
  <advance width="1005"/>
  <unicode hex="00BC"/>
  <outline>
    <contour identifier="ID0x2bbdd0dd0">
      <point x="220" y="850" type="move"/>
      <point x="220" y="370" type="line"/>
    </contour>
    <contour>
      <point x="100" y="785" type="move"/>
      <point x="220" y="850" type="line"/>
    </contour>
    <component base="fraction" xOffset="120"/>
    <contour identifier="ID0x1184a9dd0">
      <point x="844" y="530" type="move"/>
      <point x="587" y="208" type="line"/>
    </contour>
    <contour>
      <point x="587" y="208" type="move"/>
      <point x="905" y="208" type="line"/>
    </contour>
    <contour>
      <point x="844" y="50" type="move"/>
      <point x="844" y="530" type="line"/>
    </contour>
  </outline>
</glyph>
<glyph name="onehalf" format="2">
  <advance width="1146"/>
  <unicode hex="00BD"/>
  <outline>
    <contour identifier="ID0x2bbdd0dd0">
      <point x="220" y="850" type="move"/>
      <point x="220" y="370" type="line"/>
    </contour>
    <contour>
      <point x="100" y="785" type="move"/>
      <point x="220" y="850" type="line"/>
    </contour>
    <contour identifier="ID0x2bbd46850">
      <point x="728" y="50" type="move"/>
      <point x="728" y="50"/>
      <point x="935" y="202"/>
      <point x="999" y="259" type="curve" smooth="yes"/>
      <point x="1030" y="285"/>
      <point x="1046" y="327"/>
      <point x="1046" y="372" type="curve" smooth="yes"/>
      <point x="1046" y="459"/>
      <point x="975" y="530"/>
      <point x="886" y="530" type="curve" smooth="yes"/>
      <point x="799" y="530"/>
      <point x="728" y="459"/>
      <point x="728" y="372" type="curve"/>
    </contour>
    <contour>
      <point x="1046" y="50" type="move"/>
      <point x="728" y="50" type="line"/>
    </contour>
    <component base="fraction" xOffset="120"/>
  </outline>
</glyph>
<glyph name="threequarters" format="2">
  <advance width="1130"/>
  <unicode hex="00BE"/>
  <outline>
    <contour>
      <point x="1008" y="499" type="curve" smooth="yes"/>
      <point x="751" y="177" type="line" smooth="yes"/>
      <point x="734" y="156"/>
      <point x="702" y="152"/>
      <point x="681" y="169" type="curve" smooth="yes"/>
      <point x="660" y="186"/>
      <point x="656" y="218"/>
      <point x="673" y="239" type="curve" smooth="yes"/>
      <point x="930" y="561" type="line" smooth="yes"/>
      <point x="947" y="582"/>
      <point x="979" y="586"/>
      <point x="1000" y="569" type="curve" smooth="yes"/>
      <point x="1021" y="552"/>
      <point x="1025" y="520"/>
    </contour>
    <contour>
      <point x="712" y="258" type="curve" smooth="yes"/>
      <point x="1030" y="258" type="line" smooth="yes"/>
      <point x="1057" y="258"/>
      <point x="1080" y="235"/>
      <point x="1080" y="208" type="curve" smooth="yes"/>
      <point x="1080" y="181"/>
      <point x="1057" y="158"/>
      <point x="1030" y="158" type="curve" smooth="yes"/>
      <point x="712" y="158" type="line" smooth="yes"/>
      <point x="685" y="158"/>
      <point x="662" y="181"/>
      <point x="662" y="208" type="curve" smooth="yes"/>
      <point x="662" y="235"/>
      <point x="685" y="258"/>
    </contour>
    <contour>
      <point x="919" y="50" type="curve" smooth="yes"/>
      <point x="919" y="530" type="line" smooth="yes"/>
      <point x="919" y="557"/>
      <point x="942" y="580"/>
      <point x="969" y="580" type="curve" smooth="yes"/>
      <point x="996" y="580"/>
      <point x="1019" y="557"/>
      <point x="1019" y="530" type="curve" smooth="yes"/>
      <point x="1019" y="50" type="line" smooth="yes"/>
      <point x="1019" y="23"/>
      <point x="996" y="0"/>
      <point x="969" y="0" type="curve" smooth="yes"/>
      <point x="942" y="0"/>
      <point x="919" y="23"/>
    </contour>
    <contour>
      <point x="69" y="849" type="curve" smooth="yes"/>
      <point x="110" y="882"/>
      <point x="151" y="900"/>
      <point x="249" y="900" type="curve" smooth="yes"/>
      <point x="268" y="900" type="line" smooth="yes"/>
      <point x="363" y="900"/>
      <point x="438" y="824"/>
      <point x="438" y="730" type="curve" smooth="yes"/>
      <point x="438" y="637"/>
      <point x="363" y="560"/>
      <point x="268" y="560" type="curve" smooth="yes"/>
      <point x="241" y="560"/>
      <point x="218" y="583"/>
      <point x="218" y="610" type="curve" smooth="yes"/>
      <point x="218" y="637"/>
      <point x="241" y="660"/>
      <point x="268" y="660" type="curve" smooth="yes"/>
      <point x="307" y="660"/>
      <point x="338" y="692"/>
      <point x="338" y="730" type="curve" smooth="yes"/>
      <point x="338" y="769"/>
      <point x="307" y="800"/>
      <point x="268" y="800" type="curve" smooth="yes"/>
      <point x="249" y="800" type="line" smooth="yes"/>
      <point x="187" y="800"/>
      <point x="158" y="792"/>
      <point x="131" y="771" type="curve" smooth="yes"/>
      <point x="110" y="754"/>
      <point x="78" y="758"/>
      <point x="61" y="779" type="curve" smooth="yes"/>
      <point x="44" y="800"/>
      <point x="48" y="832"/>
    </contour>
    <contour>
      <point x="131" y="449" type="curve" smooth="yes"/>
      <point x="158" y="428"/>
      <point x="187" y="420"/>
      <point x="249" y="420" type="curve" smooth="yes"/>
      <point x="268" y="420" type="line" smooth="yes"/>
      <point x="307" y="420"/>
      <point x="338" y="452"/>
      <point x="338" y="490" type="curve" smooth="yes"/>
      <point x="338" y="529"/>
      <point x="307" y="560"/>
      <point x="268" y="560" type="curve" smooth="yes"/>
      <point x="241" y="560"/>
      <point x="218" y="583"/>
      <point x="218" y="610" type="curve" smooth="yes"/>
      <point x="218" y="637"/>
      <point x="241" y="660"/>
      <point x="268" y="660" type="curve" smooth="yes"/>
      <point x="363" y="660"/>
      <point x="438" y="584"/>
      <point x="438" y="490" type="curve" smooth="yes"/>
      <point x="438" y="397"/>
      <point x="363" y="320"/>
      <point x="268" y="320" type="curve" smooth="yes"/>
      <point x="249" y="320" type="line" smooth="yes"/>
      <point x="151" y="320"/>
      <point x="110" y="338"/>
      <point x="69" y="371" type="curve" smooth="yes"/>
      <point x="48" y="388"/>
      <point x="44" y="420"/>
      <point x="61" y="441" type="curve" smooth="yes"/>
      <point x="78" y="462"/>
      <point x="110" y="466"/>
    </contour>
    <contour>
      <point x="176" y="660" type="curve" smooth="yes"/>
      <point x="269" y="660" type="line" smooth="yes"/>
      <point x="296" y="660"/>
      <point x="319" y="637"/>
      <point x="319" y="610" type="curve" smooth="yes"/>
      <point x="319" y="583"/>
      <point x="296" y="560"/>
      <point x="269" y="560" type="curve" smooth="yes"/>
      <point x="176" y="560" type="line" smooth="yes"/>
      <point x="149" y="560"/>
      <point x="126" y="583"/>
      <point x="126" y="610" type="curve" smooth="yes"/>
      <point x="126" y="637"/>
      <point x="149" y="660"/>
    </contour>
    <component base="fraction" xOffset="245"/>
  </outline>
</glyph>
<glyph name="AE" format="2">
  <advance width="1112"/>
  <unicode hex="00C6"/>
  <anchor x="556" y="0" name="bottom"/>
  <anchor x="556" y="900" name="top"/>
  <outline>
    <contour>
      <point x="621" y="500" type="curve" smooth="yes"/>
      <point x="882" y="500" type="line" smooth="yes"/>
      <point x="909" y="500"/>
      <point x="932" y="477"/>
      <point x="932" y="450" type="curve" smooth="yes"/>
      <point x="932" y="423"/>
      <point x="909" y="400"/>
      <point x="882" y="400" type="curve" smooth="yes"/>
      <point x="621" y="400" type="line" smooth="yes"/>
      <point x="594" y="400"/>
      <point x="571" y="423"/>
      <point x="571" y="450" type="curve" smooth="yes"/>
      <point x="571" y="477"/>
      <point x="594" y="500"/>
    </contour>
    <contour>
      <point x="1021" y="0" type="curve" smooth="yes"/>
      <point x="621" y="0" type="line" smooth="yes"/>
      <point x="594" y="0"/>
      <point x="571" y="23"/>
      <point x="571" y="50" type="curve" smooth="yes"/>
      <point x="571" y="77"/>
      <point x="594" y="100"/>
      <point x="621" y="100" type="curve" smooth="yes"/>
      <point x="1021" y="100" type="line" smooth="yes"/>
      <point x="1048" y="100"/>
      <point x="1071" y="77"/>
      <point x="1071" y="50" type="curve" smooth="yes"/>
      <point x="1071" y="23"/>
      <point x="1048" y="0"/>
    </contour>
    <contour>
      <point x="571" y="50" type="curve" smooth="yes"/>
      <point x="571" y="850" type="line" smooth="yes"/>
      <point x="571" y="877"/>
      <point x="594" y="900"/>
      <point x="621" y="900" type="curve" smooth="yes"/>
      <point x="648" y="900"/>
      <point x="671" y="877"/>
      <point x="671" y="850" type="curve" smooth="yes"/>
      <point x="671" y="50" type="line" smooth="yes"/>
      <point x="671" y="23"/>
      <point x="648" y="0"/>
      <point x="621" y="0" type="curve" smooth="yes"/>
      <point x="594" y="0"/>
      <point x="571" y="23"/>
    </contour>
    <contour>
      <point x="46" y="71" type="curve" smooth="yes"/>
      <point x="401" y="850" type="line" smooth="yes"/>
      <point x="414" y="882"/>
      <point x="445" y="900"/>
      <point x="479" y="900" type="curve" smooth="yes"/>
      <point x="1021" y="900" type="line" smooth="yes"/>
      <point x="1048" y="900"/>
      <point x="1071" y="877"/>
      <point x="1071" y="850" type="curve" smooth="yes"/>
      <point x="1071" y="823"/>
      <point x="1048" y="800"/>
      <point x="1021" y="800" type="curve" smooth="yes"/>
      <point x="479" y="800" type="line"/>
      <point x="485" y="800"/>
      <point x="490" y="804"/>
      <point x="491" y="808" type="curve"/>
      <point x="136" y="29" type="line" smooth="yes"/>
      <point x="125" y="5"/>
      <point x="95" y="-7"/>
      <point x="70" y="5" type="curve" smooth="yes"/>
      <point x="46" y="16"/>
      <point x="34" y="46"/>
    </contour>
    <contour>
      <point x="218" y="377" type="curve" smooth="yes"/>
      <point x="621" y="377" type="line" smooth="yes"/>
      <point x="648" y="377"/>
      <point x="671" y="354"/>
      <point x="671" y="327" type="curve" smooth="yes"/>
      <point x="671" y="300"/>
      <point x="648" y="277"/>
      <point x="621" y="277" type="curve" smooth="yes"/>
      <point x="218" y="277" type="line" smooth="yes"/>
      <point x="191" y="277"/>
      <point x="168" y="300"/>
      <point x="168" y="327" type="curve" smooth="yes"/>
      <point x="168" y="354"/>
      <point x="191" y="377"/>
    </contour>
  </outline>
</glyph>
<glyph name="Eth" format="2">
  <advance width="860"/>
  <unicode hex="00D0"/>
  <outline>
    <contour>
      <point x="100" y="500" type="curve" smooth="yes"/>
      <point x="400" y="500" type="line" smooth="yes"/>
      <point x="427" y="500"/>
      <point x="450" y="477"/>
      <point x="450" y="450" type="curve" smooth="yes"/>
      <point x="450" y="423"/>
      <point x="427" y="400"/>
      <point x="400" y="400" type="curve" smooth="yes"/>
      <point x="100" y="400" type="line" smooth="yes"/>
      <point x="73" y="400"/>
      <point x="50" y="423"/>
      <point x="50" y="450" type="curve" smooth="yes"/>
      <point x="50" y="477"/>
      <point x="73" y="500"/>
    </contour>
    <component base="D" xOffset="130"/>
  </outline>
</glyph>
<glyph name="multiply" format="2">
  <advance width="700"/>
  <unicode hex="00D7"/>
  <outline>
    <contour>
      <point x="195" y="540" type="curve" smooth="yes"/>
      <point x="575" y="160" type="line" smooth="yes"/>
      <point x="594" y="141"/>
      <point x="594" y="109"/>
      <point x="575" y="90" type="curve" smooth="yes"/>
      <point x="556" y="71"/>
      <point x="524" y="71"/>
      <point x="505" y="90" type="curve" smooth="yes"/>
      <point x="125" y="470" type="line" smooth="yes"/>
      <point x="106" y="489"/>
      <point x="106" y="521"/>
      <point x="125" y="540" type="curve" smooth="yes"/>
      <point x="144" y="559"/>
      <point x="176" y="559"/>
    </contour>
    <contour>
      <point x="575" y="470" type="curve" smooth="yes"/>
      <point x="195" y="90" type="line" smooth="yes"/>
      <point x="176" y="71"/>
      <point x="144" y="71"/>
      <point x="125" y="90" type="curve" smooth="yes"/>
      <point x="106" y="109"/>
      <point x="106" y="141"/>
      <point x="125" y="160" type="curve" smooth="yes"/>
      <point x="505" y="540" type="line" smooth="yes"/>
      <point x="524" y="559"/>
      <point x="556" y="559"/>
      <point x="575" y="540" type="curve" smooth="yes"/>
      <point x="594" y="521"/>
      <point x="594" y="489"/>
    </contour>
  </outline>
</glyph>
<glyph name="Oslash" format="2">
  <advance width="730"/>
  <unicode hex="00D8"/>
  <anchor x="365" y="0" name="bottom"/>
  <anchor x="365" y="900" name="top"/>
  <outline>
    <component base="O"/>
    <contour>
      <point x="100" y="50" type="move"/>
      <point x="630" y="850" type="line"/>
    </contour>
  </outline>
</glyph>
<glyph name="Thorn" format="2">
  <advance width="730"/>
  <unicode hex="00DE"/>
  <anchor x="365" y="0" name="bottom"/>
  <anchor x="365" y="900" name="top"/>
  <outline>
    <component base="P"/>
    <contour>
      <point x="100" y="850" type="move"/>
      <point x="100" y="1015" type="line"/>
    </contour>
  </outline>
</glyph>
<glyph name="germandbls" format="2">
  <advance width="600"/>
  <unicode hex="00DF"/>
  <anchor x="300" y="0" name="bottom"/>
  <anchor x="300" y="1015" name="top"/>
  <outline>
    <contour>
      <point x="269" y="101" type="curve" smooth="yes"/>
      <point x="278" y="100"/>
      <point x="290" y="100"/>
      <point x="300" y="100" type="curve" smooth="yes"/>
      <point x="383" y="100"/>
      <point x="450" y="168"/>
      <point x="450" y="250" type="curve" smooth="yes"/>
      <point x="450" y="333"/>
      <point x="383" y="400"/>
      <point x="300" y="400" type="curve" smooth="yes"/>
      <point x="273" y="400"/>
      <point x="250" y="423"/>
      <point x="250" y="450" type="curve" smooth="yes"/>
      <point x="250" y="477"/>
      <point x="273" y="500"/>
      <point x="300" y="500" type="curve" smooth="yes"/>
      <point x="438" y="500"/>
      <point x="550" y="388"/>
      <point x="550" y="250" type="curve" smooth="yes"/>
      <point x="550" y="113"/>
      <point x="438" y="0"/>
      <point x="300" y="0" type="curve" smooth="yes"/>
      <point x="286" y="0"/>
      <point x="272" y="0"/>
      <point x="259" y="1" type="curve" smooth="yes"/>
      <point x="233" y="4"/>
      <point x="212" y="29"/>
      <point x="214" y="56" type="curve" smooth="yes"/>
      <point x="217" y="82"/>
      <point x="242" y="103"/>
    </contour>
    <contour>
      <point x="50" y="50" type="curve" smooth="yes"/>
      <point x="50" y="650" type="line" smooth="yes"/>
      <point x="50" y="788"/>
      <point x="161" y="900"/>
      <point x="300" y="900" type="curve" smooth="yes"/>
      <point x="438" y="900"/>
      <point x="550" y="788"/>
      <point x="550" y="650" type="curve" smooth="yes"/>
      <point x="550" y="511"/>
      <point x="438" y="400"/>
      <point x="300" y="400" type="curve" smooth="yes"/>
      <point x="273" y="400"/>
      <point x="250" y="423"/>
      <point x="250" y="450" type="curve" smooth="yes"/>
      <point x="250" y="477"/>
      <point x="273" y="500"/>
      <point x="300" y="500" type="curve" smooth="yes"/>
      <point x="383" y="500"/>
      <point x="450" y="567"/>
      <point x="450" y="650" type="curve" smooth="yes"/>
      <point x="450" y="733"/>
      <point x="383" y="800"/>
      <point x="300" y="800" type="curve" smooth="yes"/>
      <point x="217" y="800"/>
      <point x="150" y="733"/>
      <point x="150" y="650" type="curve" smooth="yes"/>
      <point x="150" y="50" type="line" smooth="yes"/>
      <point x="150" y="23"/>
      <point x="127" y="0"/>
      <point x="100" y="0" type="curve" smooth="yes"/>
      <point x="73" y="0"/>
      <point x="50" y="23"/>
    </contour>
  </outline>
</glyph>
<glyph name="ae" format="2">
  <advance width="1000"/>
  <unicode hex="00E6"/>
  <anchor x="500" y="0" name="bottom"/>
  <anchor x="500" y="630" name="top"/>
  <outline>
    <contour>
      <point x="917" y="126" type="curve" smooth="yes"/>
      <point x="874" y="51"/>
      <point x="792" y="0"/>
      <point x="700" y="0" type="curve" smooth="yes"/>
      <point x="563" y="0"/>
      <point x="450" y="113"/>
      <point x="450" y="250" type="curve" smooth="yes"/>
      <point x="450" y="380" type="line" smooth="yes"/>
      <point x="450" y="518"/>
      <point x="563" y="630"/>
      <point x="700" y="630" type="curve" smooth="yes"/>
      <point x="839" y="630"/>
      <point x="950" y="518"/>
      <point x="950" y="380" type="curve" smooth="yes"/>
      <point x="950" y="315" type="line" smooth="yes"/>
      <point x="950" y="288"/>
      <point x="927" y="265"/>
      <point x="900" y="265" type="curve" smooth="yes"/>
      <point x="873" y="265"/>
      <point x="850" y="288"/>
      <point x="850" y="315" type="curve" smooth="yes"/>
      <point x="850" y="380" type="line" smooth="yes"/>
      <point x="850" y="463"/>
      <point x="783" y="530"/>
      <point x="700" y="530" type="curve" smooth="yes"/>
      <point x="618" y="530"/>
      <point x="550" y="463"/>
      <point x="550" y="380" type="curve" smooth="yes"/>
      <point x="550" y="250" type="line" smooth="yes"/>
      <point x="550" y="168"/>
      <point x="618" y="100"/>
      <point x="700" y="100" type="curve" smooth="yes"/>
      <point x="756" y="100"/>
      <point x="804" y="131"/>
      <point x="831" y="176" type="curve" smooth="yes"/>
      <point x="844" y="200"/>
      <point x="876" y="208"/>
      <point x="899" y="194" type="curve" smooth="yes"/>
      <point x="923" y="181"/>
      <point x="931" y="149"/>
    </contour>
    <contour>
      <point x="550" y="250" type="curve" smooth="yes"/>
      <point x="550" y="112"/>
      <point x="439" y="0"/>
      <point x="301" y="0" type="curve" smooth="yes"/>
      <point x="231" y="0" type="line" smooth="yes"/>
      <point x="132" y="0"/>
      <point x="50" y="81"/>
      <point x="50" y="183" type="curve" smooth="yes"/>
      <point x="50" y="284"/>
      <point x="132" y="365"/>
      <point x="231" y="365" type="curve" smooth="yes"/>
      <point x="500" y="365" type="line" smooth="yes"/>
      <point x="527" y="365"/>
      <point x="550" y="342"/>
      <point x="550" y="315" type="curve" smooth="yes"/>
      <point x="550" y="288"/>
      <point x="527" y="265"/>
      <point x="500" y="265" type="curve" smooth="yes"/>
      <point x="231" y="265" type="line" smooth="yes"/>
      <point x="186" y="265"/>
      <point x="150" y="228"/>
      <point x="150" y="183" type="curve" smooth="yes"/>
      <point x="150" y="137"/>
      <point x="186" y="100"/>
      <point x="231" y="100" type="curve" smooth="yes"/>
      <point x="301" y="100" type="line" smooth="yes"/>
      <point x="384" y="100"/>
      <point x="450" y="168"/>
      <point x="450" y="250" type="curve" smooth="yes"/>
      <point x="450" y="277"/>
      <point x="473" y="300"/>
      <point x="500" y="300" type="curve" smooth="yes"/>
      <point x="527" y="300"/>
      <point x="550" y="277"/>
    </contour>
    <contour>
      <point x="102" y="535" type="curve" smooth="yes"/>
      <point x="160" y="604"/>
      <point x="212" y="630"/>
      <point x="325" y="630" type="curve" smooth="yes"/>
      <point x="462" y="630"/>
      <point x="550" y="570"/>
      <point x="550" y="408" type="curve" smooth="yes"/>
      <point x="550" y="315" type="line" smooth="yes"/>
      <point x="550" y="288"/>
      <point x="527" y="265"/>
      <point x="500" y="265" type="curve" smooth="yes"/>
      <point x="473" y="265"/>
      <point x="450" y="288"/>
      <point x="450" y="315" type="curve" smooth="yes"/>
      <point x="450" y="408" type="line" smooth="yes"/>
      <point x="450" y="498"/>
      <point x="400" y="530"/>
      <point x="325" y="530" type="curve" smooth="yes"/>
      <point x="252" y="530"/>
      <point x="216" y="516"/>
      <point x="178" y="471" type="curve" smooth="yes"/>
      <point x="161" y="450"/>
      <point x="128" y="447"/>
      <point x="108" y="465" type="curve" smooth="yes"/>
      <point x="87" y="482"/>
      <point x="84" y="515"/>
    </contour>
    <contour>
      <point x="900" y="265" type="curve" smooth="yes"/>
      <point x="500" y="265" type="line" smooth="yes"/>
      <point x="473" y="265"/>
      <point x="450" y="288"/>
      <point x="450" y="315" type="curve" smooth="yes"/>
      <point x="450" y="342"/>
      <point x="473" y="365"/>
      <point x="500" y="365" type="curve" smooth="yes"/>
      <point x="900" y="365" type="line" smooth="yes"/>
      <point x="927" y="365"/>
      <point x="950" y="342"/>
      <point x="950" y="315" type="curve" smooth="yes"/>
      <point x="950" y="288"/>
      <point x="927" y="265"/>
    </contour>
  </outline>
</glyph>
<glyph name="eth" format="2">
  <advance width="600"/>
  <unicode hex="00F0"/>
  <anchor x="300" y="0" name="bottom"/>
  <anchor x="300" y="1015" name="top"/>
  <outline>
    <contour>
      <point x="300" y="50" type="curve" smooth="yes"/>
      <point x="411" y="50"/>
      <point x="500" y="139"/>
      <point x="500" y="250" type="curve" smooth="yes"/>
      <point x="500" y="380" type="line" smooth="yes"/>
      <point x="500" y="490"/>
      <point x="411" y="580"/>
      <point x="300" y="580" type="curve" smooth="yes"/>
      <point x="190" y="580"/>
      <point x="100" y="490"/>
      <point x="100" y="380" type="curve" smooth="yes"/>
      <point x="100" y="250" type="line" smooth="yes"/>
      <point x="100" y="139"/>
      <point x="190" y="50"/>
    </contour>
    <contour>
      <point x="200" y="850" type="move"/>
      <point x="484" y="777"/>
      <point x="500" y="580"/>
      <point x="500" y="380" type="curve"/>
    </contour>
    <contour>
      <point x="460" y="850" type="move"/>
      <point x="242" y="705" type="line"/>
    </contour>
  </outline>
</glyph>
<glyph name="divide" format="2">
  <advance width="700"/>
  <unicode hex="00F7"/>
  <outline>
    <contour>
      <point x="474" y="75" type="curve" smooth="yes"/>
      <point x="474" y="7"/>
      <point x="417" y="-50"/>
      <point x="349" y="-50" type="curve" smooth="yes"/>
      <point x="281" y="-50"/>
      <point x="224" y="7"/>
      <point x="224" y="75" type="curve" smooth="yes"/>
      <point x="224" y="143"/>
      <point x="281" y="200"/>
      <point x="349" y="200" type="curve" smooth="yes"/>
      <point x="417" y="200"/>
      <point x="474" y="143"/>
    </contour>
    <contour>
      <point x="474" y="555" type="curve" smooth="yes"/>
      <point x="474" y="487"/>
      <point x="417" y="430"/>
      <point x="349" y="430" type="curve" smooth="yes"/>
      <point x="281" y="430"/>
      <point x="224" y="487"/>
      <point x="224" y="555" type="curve" smooth="yes"/>
      <point x="224" y="623"/>
      <point x="281" y="680"/>
      <point x="349" y="680" type="curve" smooth="yes"/>
      <point x="417" y="680"/>
      <point x="474" y="623"/>
    </contour>
    <contour>
      <point x="374" y="75" type="curve" smooth="yes"/>
      <point x="374" y="89"/>
      <point x="363" y="100"/>
      <point x="349" y="100" type="curve" smooth="yes"/>
      <point x="335" y="100"/>
      <point x="324" y="89"/>
      <point x="324" y="75" type="curve" smooth="yes"/>
      <point x="324" y="61"/>
      <point x="335" y="50"/>
      <point x="349" y="50" type="curve" smooth="yes"/>
      <point x="363" y="50"/>
      <point x="374" y="61"/>
    </contour>
    <contour>
      <point x="374" y="555" type="curve" smooth="yes"/>
      <point x="374" y="569"/>
      <point x="363" y="580"/>
      <point x="349" y="580" type="curve" smooth="yes"/>
      <point x="335" y="580"/>
      <point x="324" y="569"/>
      <point x="324" y="555" type="curve" smooth="yes"/>
      <point x="324" y="541"/>
      <point x="335" y="530"/>
      <point x="349" y="530" type="curve" smooth="yes"/>
      <point x="363" y="530"/>
      <point x="374" y="541"/>
    </contour>
    <contour>
      <point x="100" y="365" type="curve" smooth="yes"/>
      <point x="600" y="365" type="line" smooth="yes"/>
      <point x="627" y="365"/>
      <point x="650" y="342"/>
      <point x="650" y="315" type="curve" smooth="yes"/>
      <point x="650" y="288"/>
      <point x="627" y="265"/>
      <point x="600" y="265" type="curve" smooth="yes"/>
      <point x="100" y="265" type="line" smooth="yes"/>
      <point x="73" y="265"/>
      <point x="50" y="288"/>
      <point x="50" y="315" type="curve" smooth="yes"/>
      <point x="50" y="342"/>
      <point x="73" y="365"/>
    </contour>
  </outline>
</glyph>
<glyph name="oslash" format="2">
  <advance width="600"/>
  <unicode hex="00F8"/>
  <anchor x="300" y="630" name="top"/>
  <outline>
    <component base="o"/>
    <contour>
      <point x="100" y="50" type="move"/>
      <point x="500" y="580" type="line"/>
    </contour>
  </outline>
</glyph>
<glyph name="thorn" format="2">
  <advance width="600"/>
  <unicode hex="00FE"/>
  <anchor x="300" y="0" name="bottom"/>
  <anchor x="300" y="630" name="top"/>
  <outline>
    <contour identifier="ID0x168d678c0">
      <point x="100" y="-220" type="move"/>
      <point x="100" y="850" type="line"/>
    </contour>
    <contour>
      <point x="100" y="380" type="move"/>
      <point x="100" y="490"/>
      <point x="190" y="580"/>
      <point x="300" y="580" type="curve" smooth="yes"/>
      <point x="410" y="580"/>
      <point x="500" y="490"/>
      <point x="500" y="380" type="curve" smooth="yes"/>
      <point x="500" y="250" type="line" smooth="yes"/>
      <point x="500" y="140"/>
      <point x="410" y="50"/>
      <point x="300" y="50" type="curve" smooth="yes"/>
      <point x="190" y="50"/>
      <point x="100" y="140"/>
      <point x="100" y="250" type="curve"/>
    </contour>
  </outline>
</glyph>
<glyph name="dcroat" format="2">
  <advance width="600"/>
  <unicode hex="0111"/>
  <outline>
    <component base="d"/>
    <contour>
      <point x="369" y="750" type="move"/>
      <point x="580" y="750" type="line"/>
    </contour>
  </outline>
</glyph>
<glyph name="eogonek" format="2">
  <advance width="560"/>
  <unicode hex="0119"/>
  <anchor x="300" y="630" name="top"/>
  <outline>
    <component base="e"/>
    <component base="ogonekcomb" xOffset="82" yOffset="4"/>
    <contour>
      <point x="474" y="151" type="move"/>
      <point x="446" y="95"/>
      <point x="423" y="76"/>
      <point x="377" y="51" type="curve" smooth="yes"/>
    </contour>
  </outline>
</glyph>
<glyph name="Hbar" format="2">
  <advance width="870"/>
  <unicode hex="0126"/>
  <outline>
    <component base="H" xOffset="80"/>
    <contour>
      <point x="100" y="680" type="move"/>
      <point x="770" y="680" type="line"/>
    </contour>
  </outline>
</glyph>
<glyph name="hbar" format="2">
  <advance width="680"/>
  <unicode hex="0127"/>
  <outline>
    <component base="h" xOffset="80"/>
    <contour>
      <point x="100" y="750" type="move"/>
      <point x="311" y="750" type="line"/>
    </contour>
  </outline>
</glyph>
<glyph name="idotless" format="2">
  <advance width="200"/>
  <unicode hex="0131"/>
  <anchor x="100" y="50" name="bottom"/>
  <anchor x="151" y="0" name="ogonek"/>
  <anchor x="100" y="630" name="top"/>
  <outline>
    <contour>
      <point x="100" y="580" type="move"/>
      <point x="100" y="50" type="line"/>
    </contour>
  </outline>
</glyph>
<glyph name="Lslash" format="2">
  <advance width="700"/>
  <unicode hex="0141"/>
  <outline>
    <component base="L" xOffset="100"/>
    <contour>
      <point x="380" y="580" type="move"/>
      <point x="100" y="450" type="line"/>
    </contour>
  </outline>
</glyph>
<glyph name="lslash" format="2">
  <advance width="330"/>
  <unicode hex="0142"/>
  <outline>
    <contour>
      <point x="232" y="431" type="curve" smooth="yes"/>
      <point x="-8" y="371" type="line" smooth="yes"/>
      <point x="-34" y="365"/>
      <point x="-62" y="382"/>
      <point x="-69" y="408" type="curve" smooth="yes"/>
      <point x="-75" y="434"/>
      <point x="-58" y="462"/>
      <point x="-32" y="469" type="curve" smooth="yes"/>
      <point x="208" y="529" type="line" smooth="yes"/>
      <point x="234" y="535"/>
      <point x="262" y="518"/>
      <point x="269" y="492" type="curve" smooth="yes"/>
      <point x="275" y="466"/>
      <point x="258" y="438"/>
    </contour>
    <component base="l"/>
  </outline>
</glyph>
<glyph name="OE" format="2">
  <advance width="1130"/>
  <unicode hex="0152"/>
  <anchor x="565" y="0" name="bottom"/>
  <anchor x="565" y="900" name="top"/>
  <outline>
    <contour>
      <point x="365" y="50" type="curve" smooth="yes"/>
      <point x="512" y="50"/>
      <point x="630" y="169"/>
      <point x="630" y="315" type="curve" smooth="yes"/>
      <point x="630" y="585" type="line" smooth="yes"/>
      <point x="630" y="731"/>
      <point x="512" y="850"/>
      <point x="365" y="850" type="curve" smooth="yes"/>
      <point x="219" y="850"/>
      <point x="100" y="731"/>
      <point x="100" y="585" type="curve" smooth="yes"/>
      <point x="100" y="315" type="line" smooth="yes"/>
      <point x="100" y="169"/>
      <point x="219" y="50"/>
    </contour>
    <contour>
      <point x="1030" y="50" type="move"/>
      <point x="630" y="50" type="line"/>
    </contour>
    <contour>
      <point x="630" y="50" type="move"/>
      <point x="630" y="850" type="line"/>
    </contour>
    <contour>
      <point x="630" y="450" type="move"/>
      <point x="891" y="450" type="line"/>
    </contour>
    <contour>
      <point x="630" y="850" type="move"/>
      <point x="1030" y="850" type="line"/>
    </contour>
  </outline>
</glyph>
<glyph name="oe" format="2">
  <advance width="1000"/>
  <unicode hex="0153"/>
  <anchor x="500" y="0" name="bottom"/>
  <anchor x="500" y="630" name="top"/>
  <outline>
    <contour>
      <point x="500" y="250" type="move"/>
      <point x="500" y="140"/>
      <point x="411" y="50"/>
      <point x="300" y="50" type="curve" smooth="yes"/>
      <point x="190" y="50"/>
      <point x="100" y="140"/>
      <point x="100" y="250" type="curve" smooth="yes"/>
      <point x="100" y="380" type="line" smooth="yes"/>
      <point x="100" y="490"/>
      <point x="190" y="580"/>
      <point x="300" y="580" type="curve" smooth="yes"/>
      <point x="411" y="580"/>
      <point x="500" y="490"/>
      <point x="500" y="380" type="curve"/>
    </contour>
    <contour>
      <point x="900" y="315" type="move"/>
      <point x="500" y="315" type="line"/>
    </contour>
    <contour>
      <point x="874" y="151" type="move"/>
      <point x="840" y="91"/>
      <point x="775" y="50"/>
      <point x="700" y="50" type="curve" smooth="yes"/>
      <point x="590" y="50"/>
      <point x="500" y="140"/>
      <point x="500" y="250" type="curve" smooth="yes"/>
      <point x="500" y="380" type="line" smooth="yes"/>
      <point x="500" y="490"/>
      <point x="590" y="580"/>
      <point x="700" y="580" type="curve" smooth="yes"/>
      <point x="811" y="580"/>
      <point x="900" y="490"/>
      <point x="900" y="380" type="curve" smooth="yes"/>
      <point x="900" y="315" type="line"/>
    </contour>
  </outline>
</glyph>
<glyph name="longs" format="2">
  <advance width="492"/>
  <unicode hex="017F"/>
  <anchor x="193" y="0" name="bottom"/>
  <anchor x="193" y="1015" name="top"/>
  <outline>
    <contour identifier="ID0x144e7fe30">
      <point x="100" y="50" type="move"/>
      <point x="100" y="710" type="line" smooth="yes"/>
      <point x="100" y="787"/>
      <point x="163" y="850"/>
      <point x="240" y="850" type="curve" smooth="yes"/>
      <point x="309" y="850"/>
      <point x="352" y="830"/>
      <point x="382" y="791" type="curve"/>
    </contour>
  </outline>
</glyph>
<glyph name="Schwa" format="2">
  <advance width="803"/>
  <unicode hex="018F"/>
  <anchor x="402" y="0" name="bottom"/>
  <anchor x="402" y="900" name="top"/>
  <outline>
    <contour>
      <point x="100" y="450" type="move"/>
      <point x="703" y="450" type="line"/>
    </contour>
    <contour>
      <point x="139" y="698" type="move"/>
      <point x="191" y="788"/>
      <point x="289" y="850"/>
      <point x="402" y="850" type="curve" smooth="yes"/>
      <point x="568" y="850"/>
      <point x="703" y="714"/>
      <point x="703" y="548" type="curve" smooth="yes"/>
      <point x="703" y="351" type="line" smooth="yes"/>
      <point x="703" y="185"/>
      <point x="568" y="50"/>
      <point x="402" y="50" type="curve" smooth="yes"/>
      <point x="235" y="50"/>
      <point x="100" y="185"/>
      <point x="100" y="351" type="curve" smooth="yes"/>
      <point x="100" y="450" type="line"/>
    </contour>
  </outline>
</glyph>
<glyph name="florin" format="2">
  <advance width="700"/>
  <unicode hex="0192"/>
  <outline>
    <contour>
      <point x="480" y="480" type="curve" smooth="yes"/>
      <point x="220" y="480" type="line" smooth="yes"/>
      <point x="193" y="480"/>
      <point x="170" y="503"/>
      <point x="170" y="530" type="curve" smooth="yes"/>
      <point x="170" y="557"/>
      <point x="193" y="580"/>
      <point x="220" y="580" type="curve" smooth="yes"/>
      <point x="480" y="580" type="line" smooth="yes"/>
      <point x="507" y="580"/>
      <point x="530" y="557"/>
      <point x="530" y="530" type="curve" smooth="yes"/>
      <point x="530" y="503"/>
      <point x="507" y="480"/>
    </contour>
    <component base="integral"/>
  </outline>
</glyph>
<glyph name="Ohorn" format="2">
  <advance width="730"/>
  <unicode hex="01A0"/>
  <anchor x="557" y="850" name="horn"/>
  <outline>
    <component base="O"/>
    <contour>
      <point x="365" y="850" type="move"/>
      <point x="567" y="850" type="line" smooth="yes"/>
      <point x="641" y="850"/>
      <point x="698" y="869"/>
      <point x="688" y="964" type="curve" smooth="yes"/>
    </contour>
  </outline>
</glyph>
<glyph name="ohorn" format="2">
  <advance width="670"/>
  <unicode hex="01A1"/>
  <anchor x="300" y="50" name="bottom"/>
  <anchor x="300" y="340" name="center"/>
  <anchor x="410" y="109" name="ogonek"/>
  <anchor x="300" y="630" name="top"/>
  <anchor x="580" y="630" name="topright"/>
  <outline>
    <contour>
      <point x="300" y="0" type="curve" smooth="yes"/>
      <point x="162" y="0"/>
      <point x="50" y="113"/>
      <point x="50" y="250" type="curve" smooth="yes"/>
      <point x="50" y="380" type="line" smooth="yes"/>
      <point x="50" y="518"/>
      <point x="163" y="630"/>
      <point x="300" y="630" type="curve" smooth="yes"/>
      <point x="438" y="630"/>
      <point x="550" y="518"/>
      <point x="550" y="380" type="curve" smooth="yes"/>
      <point x="550" y="250" type="line" smooth="yes"/>
      <point x="550" y="113"/>
      <point x="438" y="0"/>
    </contour>
    <contour>
      <point x="300" y="100" type="curve" smooth="yes"/>
      <point x="383" y="100"/>
      <point x="450" y="168"/>
      <point x="450" y="250" type="curve" smooth="yes"/>
      <point x="450" y="380" type="line" smooth="yes"/>
      <point x="450" y="463"/>
      <point x="383" y="530"/>
      <point x="300" y="530" type="curve" smooth="yes"/>
      <point x="218" y="530"/>
      <point x="150" y="463"/>
      <point x="150" y="380" type="curve" smooth="yes"/>
      <point x="150" y="250" type="line" smooth="yes"/>
      <point x="150" y="168"/>
      <point x="218" y="100"/>
    </contour>
    <contour>
      <point x="300" y="630" type="curve" smooth="yes"/>
      <point x="448" y="630" type="line" smooth="yes"/>
      <point x="485" y="630"/>
      <point x="525" y="633"/>
      <point x="519" y="689" type="curve" smooth="yes"/>
      <point x="516" y="716"/>
      <point x="537" y="741"/>
      <point x="564" y="744" type="curve" smooth="yes"/>
      <point x="591" y="747"/>
      <point x="616" y="726"/>
      <point x="619" y="699" type="curve" smooth="yes"/>
      <point x="633" y="565"/>
      <point x="559" y="530"/>
      <point x="448" y="530" type="curve" smooth="yes"/>
      <point x="300" y="530" type="line" smooth="yes"/>
      <point x="273" y="530"/>
      <point x="250" y="553"/>
      <point x="250" y="580" type="curve" smooth="yes"/>
      <point x="250" y="607"/>
      <point x="273" y="630"/>
    </contour>
  </outline>
</glyph>
<glyph name="Gstroke" format="2">
  <advance width="730"/>
  <unicode hex="01E4"/>
  <outline>
    <component base="G"/>
    <contour identifier="ID0x1243ab640">
      <point x="429" y="188" type="move"/>
      <point x="725" y="188" type="line"/>
    </contour>
  </outline>
</glyph>
<glyph name="gstroke" format="2">
  <advance width="700"/>
  <unicode hex="01E5"/>
  <outline>
    <component base="g"/>
    <contour identifier="ID0x1243ab640">
      <point x="305" y="313" type="move"/>
      <point x="600" y="313" type="line"/>
    </contour>
  </outline>
</glyph>
<glyph name="jdotless" format="2">
  <advance width="416"/>
  <unicode hex="0237"/>
  <anchor x="118" y="-254" name="bottom"/>
  <anchor x="316" y="630" name="top"/>
  <outline>
    <contour>
      <point x="366" y="580" type="curve" smooth="yes"/>
      <point x="366" y="-92" type="line" smooth="yes"/>
      <point x="366" y="-191"/>
      <point x="287" y="-270"/>
      <point x="190" y="-270" type="curve" smooth="yes"/>
      <point x="141" y="-270"/>
      <point x="96" y="-250"/>
      <point x="64" y="-217" type="curve" smooth="yes"/>
      <point x="45" y="-197"/>
      <point x="46" y="-165"/>
      <point x="65" y="-146" type="curve" smooth="yes"/>
      <point x="85" y="-127"/>
      <point x="117" y="-128"/>
      <point x="136" y="-147" type="curve" smooth="yes"/>
      <point x="150" y="-162"/>
      <point x="169" y="-170"/>
      <point x="190" y="-170" type="curve" smooth="yes"/>
      <point x="233" y="-170"/>
      <point x="266" y="-135"/>
      <point x="266" y="-92" type="curve" smooth="yes"/>
      <point x="266" y="580" type="line" smooth="yes"/>
      <point x="266" y="607"/>
      <point x="289" y="630"/>
      <point x="316" y="630" type="curve" smooth="yes"/>
      <point x="343" y="630"/>
      <point x="366" y="607"/>
    </contour>
  </outline>
</glyph>
<glyph name="schwa" format="2">
  <advance width="600"/>
  <unicode hex="0259"/>
  <outline>
    <contour>
      <point x="100" y="315" type="move"/>
      <point x="500" y="315" type="line"/>
    </contour>
    <contour>
      <point x="126" y="479" type="move"/>
      <point x="161" y="539"/>
      <point x="226" y="580"/>
      <point x="300" y="580" type="curve" smooth="yes"/>
      <point x="410" y="580"/>
      <point x="500" y="490"/>
      <point x="500" y="380" type="curve" smooth="yes"/>
      <point x="500" y="250" type="line" smooth="yes"/>
      <point x="500" y="140"/>
      <point x="410" y="50"/>
      <point x="300" y="50" type="curve" smooth="yes"/>
      <point x="189" y="50"/>
      <point x="100" y="140"/>
      <point x="100" y="250" type="curve" smooth="yes"/>
      <point x="100" y="315" type="line"/>
    </contour>
  </outline>
</glyph>
<glyph name="acutecomb" format="2">
  <advance width="274"/>
  <unicode hex="0301"/>
  <anchor x="100" y="630" name="_top"/>
  <anchor x="100" y="900" name="top"/>
  <outline>
    <contour>
      <point x="100" y="725" type="move"/>
      <point x="174" y="850" type="line"/>
    </contour>
  </outline>
</glyph>
<glyph name="circumflexcomb" format="2">
  <advance width="441"/>
  <unicode hex="0302"/>
  <anchor x="220" y="630" name="_top"/>
  <anchor x="220" y="860" name="top"/>
  <anchor x="361" y="804" name="top_viet"/>
  <outline>
    <contour>
      <point x="130" y="741" type="move"/>
      <point x="220" y="811" type="line"/>
    </contour>
    <contour>
      <point x="220" y="811" type="move"/>
      <point x="311" y="741" type="line"/>
    </contour>
  </outline>
</glyph>
<glyph name="tildecomb" format="2">
  <advance width="552"/>
  <unicode hex="0303"/>
  <anchor x="276" y="630" name="_top"/>
  <anchor x="276" y="900" name="top"/>
  <outline>
    <contour>
      <point x="498" y="762" type="curve" smooth="yes"/>
      <point x="476" y="715"/>
      <point x="429" y="679"/>
      <point x="366" y="679" type="curve" smooth="yes"/>
      <point x="292" y="679"/>
      <point x="268" y="709"/>
      <point x="246" y="726" type="curve" smooth="yes"/>
      <point x="234" y="735"/>
      <point x="224" y="753"/>
      <point x="186" y="753" type="curve" smooth="yes"/>
      <point x="167" y="753"/>
      <point x="152" y="743"/>
      <point x="146" y="728" type="curve" smooth="yes"/>
      <point x="134" y="704"/>
      <point x="104" y="692"/>
      <point x="79" y="703" type="curve" smooth="yes"/>
      <point x="55" y="715"/>
      <point x="43" y="745"/>
      <point x="54" y="770" type="curve" smooth="yes"/>
      <point x="76" y="817"/>
      <point x="123" y="853"/>
      <point x="186" y="853" type="curve" smooth="yes"/>
      <point x="260" y="853"/>
      <point x="284" y="823"/>
      <point x="306" y="806" type="curve" smooth="yes"/>
      <point x="318" y="797"/>
      <point x="328" y="779"/>
      <point x="366" y="779" type="curve" smooth="yes"/>
      <point x="385" y="779"/>
      <point x="400" y="789"/>
      <point x="406" y="804" type="curve" smooth="yes"/>
      <point x="418" y="828"/>
      <point x="448" y="840"/>
      <point x="473" y="829" type="curve" smooth="yes"/>
      <point x="497" y="817"/>
      <point x="509" y="787"/>
    </contour>
  </outline>
</glyph>
<glyph name="macroncomb" format="2">
  <advance width="660"/>
  <unicode hex="0304"/>
  <anchor x="330" y="630" name="_top"/>
  <anchor x="330" y="844" name="top"/>
  <outline>
    <contour>
      <point x="180" y="844" type="curve" smooth="yes"/>
      <point x="480" y="844" type="line" smooth="yes"/>
      <point x="507" y="844"/>
      <point x="530" y="821"/>
      <point x="530" y="794" type="curve" smooth="yes"/>
      <point x="530" y="767"/>
      <point x="507" y="744"/>
      <point x="480" y="744" type="curve" smooth="yes"/>
      <point x="180" y="744" type="line" smooth="yes"/>
      <point x="153" y="744"/>
      <point x="130" y="767"/>
      <point x="130" y="794" type="curve" smooth="yes"/>
      <point x="130" y="821"/>
      <point x="153" y="844"/>
    </contour>
  </outline>
</glyph>
<glyph name="brevecomb" format="2">
  <advance width="561"/>
  <unicode hex="0306"/>
  <anchor x="280" y="630" name="_top"/>
  <anchor x="280" y="860" name="top"/>
  <outline>
    <contour>
      <point x="208" y="824" type="curve" smooth="yes"/>
      <point x="217" y="793"/>
      <point x="246" y="769"/>
      <point x="280" y="769" type="curve" smooth="yes"/>
      <point x="315" y="769"/>
      <point x="344" y="794"/>
      <point x="353" y="826" type="curve" smooth="yes"/>
      <point x="360" y="852"/>
      <point x="389" y="867"/>
      <point x="415" y="860" type="curve" smooth="yes"/>
      <point x="441" y="853"/>
      <point x="456" y="824"/>
      <point x="449" y="798" type="curve" smooth="yes"/>
      <point x="428" y="724"/>
      <point x="361" y="669"/>
      <point x="280" y="669" type="curve" smooth="yes"/>
      <point x="200" y="669"/>
      <point x="131" y="725"/>
      <point x="112" y="798" type="curve" smooth="yes"/>
      <point x="105" y="824"/>
      <point x="121" y="852"/>
      <point x="147" y="859" type="curve" smooth="yes"/>
      <point x="173" y="866"/>
      <point x="201" y="850"/>
    </contour>
  </outline>
</glyph>
<glyph name="dotaccentcomb" format="2">
  <advance width="210"/>
  <unicode hex="0307"/>
  <anchor x="105" y="630" name="_top"/>
  <anchor x="105" y="850" name="top"/>
  <outline>
    <contour>
      <point x="180" y="775" type="curve" smooth="yes"/>
      <point x="180" y="817"/>
      <point x="147" y="850"/>
      <point x="105" y="850" type="curve" smooth="yes"/>
      <point x="64" y="850"/>
      <point x="30" y="817"/>
      <point x="30" y="775" type="curve" smooth="yes"/>
      <point x="30" y="734"/>
      <point x="64" y="700"/>
      <point x="105" y="700" type="curve" smooth="yes"/>
      <point x="147" y="700"/>
      <point x="180" y="734"/>
    </contour>
  </outline>
</glyph>
<glyph name="dieresiscomb" format="2">
  <advance width="560"/>
  <unicode hex="0308"/>
  <anchor x="280" y="630" name="_top"/>
  <anchor x="280" y="850" name="top"/>
  <outline>
    <contour>
      <point x="492" y="775" type="curve" smooth="yes"/>
      <point x="492" y="817"/>
      <point x="459" y="850"/>
      <point x="417" y="850" type="curve" smooth="yes"/>
      <point x="376" y="850"/>
      <point x="342" y="817"/>
      <point x="342" y="775" type="curve" smooth="yes"/>
      <point x="342" y="734"/>
      <point x="376" y="700"/>
      <point x="417" y="700" type="curve" smooth="yes"/>
      <point x="459" y="700"/>
      <point x="492" y="734"/>
    </contour>
    <contour>
      <point x="217" y="775" type="curve" smooth="yes"/>
      <point x="217" y="817"/>
      <point x="184" y="850"/>
      <point x="142" y="850" type="curve" smooth="yes"/>
      <point x="101" y="850"/>
      <point x="67" y="817"/>
      <point x="67" y="775" type="curve" smooth="yes"/>
      <point x="67" y="734"/>
      <point x="101" y="700"/>
      <point x="142" y="700" type="curve" smooth="yes"/>
      <point x="184" y="700"/>
      <point x="217" y="734"/>
    </contour>
  </outline>
</glyph>
<glyph name="hookabovecomb" format="2">
  <advance width="318"/>
  <unicode hex="0309"/>
  <anchor x="169" y="630" name="_top"/>
  <anchor x="164" y="900" name="top"/>
  <outline>
    <contour>
      <point x="77" y="883" type="curve" smooth="yes"/>
      <point x="133" y="912"/>
      <point x="215" y="910"/>
      <point x="253" y="837" type="curve" smooth="yes"/>
      <point x="295" y="758"/>
      <point x="233" y="685"/>
      <point x="191" y="665" type="curve" smooth="yes"/>
      <point x="166" y="653"/>
      <point x="136" y="664"/>
      <point x="124" y="688" type="curve" smooth="yes"/>
      <point x="112" y="713"/>
      <point x="123" y="743"/>
      <point x="147" y="755" type="curve" smooth="yes"/>
      <point x="155" y="759"/>
      <point x="175" y="772"/>
      <point x="165" y="791" type="curve" smooth="yes"/>
      <point x="155" y="810"/>
      <point x="133" y="800"/>
      <point x="123" y="795" type="curve" smooth="yes"/>
      <point x="99" y="782"/>
      <point x="68" y="792"/>
      <point x="56" y="816" type="curve" smooth="yes"/>
      <point x="43" y="840"/>
      <point x="53" y="871"/>
    </contour>
  </outline>
</glyph>
<glyph name="ringcomb" format="2">
  <advance width="560"/>
  <unicode hex="030A"/>
  <anchor x="280" y="630" name="_top"/>
  <anchor x="280" y="935" name="top"/>
  <outline>
    <contour>
      <point x="370" y="795" type="curve" smooth="yes"/>
      <point x="370" y="845"/>
      <point x="330" y="885"/>
      <point x="280" y="885" type="curve" smooth="yes"/>
      <point x="231" y="885"/>
      <point x="190" y="845"/>
      <point x="190" y="795" type="curve" smooth="yes"/>
      <point x="190" y="745"/>
      <point x="231" y="705"/>
      <point x="280" y="705" type="curve" smooth="yes"/>
      <point x="330" y="705"/>
      <point x="370" y="745"/>
    </contour>
  </outline>
</glyph>
<glyph name="hungarumlautcomb" format="2">
  <advance width="852"/>
  <unicode hex="030B"/>
  <anchor x="426" y="630" name="_top"/>
  <anchor x="426" y="900" name="top"/>
  <outline>
    <contour>
      <point x="296" y="745" type="move"/>
      <point x="366" y="850" type="line"/>
    </contour>
    <contour>
      <point x="486" y="745" type="move"/>
      <point x="556" y="850" type="line"/>
    </contour>
  </outline>
</glyph>
<glyph name="horncomb" format="2">
  <advance width="322"/>
  <unicode hex="031B"/>
  <anchor x="51" y="630" name="_top_viet"/>
  <outline>
    <contour>
      <point x="100" y="630" type="curve" smooth="yes"/>
      <point x="137" y="630"/>
      <point x="177" y="633"/>
      <point x="171" y="689" type="curve" smooth="yes"/>
      <point x="168" y="716"/>
      <point x="189" y="741"/>
      <point x="216" y="744" type="curve" smooth="yes"/>
      <point x="243" y="747"/>
      <point x="268" y="726"/>
      <point x="271" y="699" type="curve" smooth="yes"/>
      <point x="285" y="565"/>
      <point x="211" y="530"/>
      <point x="100" y="530" type="curve" smooth="yes"/>
      <point x="73" y="530"/>
      <point x="50" y="553"/>
      <point x="50" y="580" type="curve" smooth="yes"/>
      <point x="50" y="607"/>
      <point x="73" y="630"/>
    </contour>
  </outline>
</glyph>
<glyph name="commaaccentcomb" format="2">
  <advance width="662"/>
  <unicode hex="0326"/>
  <anchor x="366" y="0" name="_bottom"/>
  <anchor x="366" y="-270" name="bottom"/>
  <outline>
    <contour>
      <point x="296" y="-220" type="move"/>
      <point x="366" y="-115" type="line"/>
    </contour>
  </outline>
</glyph>
<glyph name="cedillacomb" format="2">
  <advance width="414"/>
  <unicode hex="0327"/>
  <anchor x="229" y="0" name="_bottom"/>
  <anchor x="207" y="-260" name="bottom"/>
  <outline>
    <contour>
      <point x="179" y="-60" type="move"/>
      <point x="229" y="-60" type="line" smooth="yes"/>
      <point x="270" y="-60"/>
      <point x="304" y="-94"/>
      <point x="304" y="-135" type="curve" smooth="yes"/>
      <point x="304" y="-177"/>
      <point x="270" y="-210"/>
      <point x="229" y="-210" type="curve" smooth="yes"/>
      <point x="110" y="-210" type="line"/>
    </contour>
    <contour>
      <point x="229" y="50" type="move"/>
      <point x="179" y="-60" type="line"/>
    </contour>
  </outline>
</glyph>
<glyph name="ogonekcomb" format="2">
  <advance width="480"/>
  <unicode hex="0328"/>
  <anchor x="350" y="0" name="_ogonek"/>
  <outline>
    <contour>
      <point x="300" y="50" type="move"/>
      <point x="218" y="6"/>
      <point x="180" y="-58"/>
      <point x="180" y="-115" type="curve" smooth="yes"/>
      <point x="180" y="-165"/>
      <point x="215" y="-210"/>
      <point x="300" y="-210" type="curve"/>
    </contour>
  </outline>
</glyph>
<glyph name="dieresistonos" format="2">
  <advance width="556"/>
  <unicode hex="0385"/>
  <anchor x="278" y="630" name="_top"/>
  <outline>
    <contour>
      <point x="265" y="745" type="move"/>
      <point x="313" y="867" type="line"/>
    </contour>
    <contour>
      <point x="506" y="775" type="curve" smooth="yes"/>
      <point x="506" y="817"/>
      <point x="473" y="850"/>
      <point x="431" y="850" type="curve" smooth="yes"/>
      <point x="390" y="850"/>
      <point x="356" y="817"/>
      <point x="356" y="775" type="curve" smooth="yes"/>
      <point x="356" y="734"/>
      <point x="390" y="700"/>
      <point x="431" y="700" type="curve" smooth="yes"/>
      <point x="473" y="700"/>
      <point x="506" y="734"/>
    </contour>
    <contour>
      <point x="200" y="775" type="curve" smooth="yes"/>
      <point x="200" y="817"/>
      <point x="167" y="850"/>
      <point x="125" y="850" type="curve" smooth="yes"/>
      <point x="84" y="850"/>
      <point x="50" y="817"/>
      <point x="50" y="775" type="curve" smooth="yes"/>
      <point x="50" y="734"/>
      <point x="84" y="700"/>
      <point x="125" y="700" type="curve" smooth="yes"/>
      <point x="167" y="700"/>
      <point x="200" y="734"/>
    </contour>
  </outline>
</glyph>
<glyph name="Delta" format="2">
  <advance width="730"/>
  <unicode hex="0394"/>
  <outline>
    <contour>
      <point x="412" y="866" type="curve" smooth="yes"/>
      <point x="677" y="66" type="line" smooth="yes"/>
      <point x="686" y="40"/>
      <point x="671" y="11"/>
      <point x="646" y="3" type="curve" smooth="yes"/>
      <point x="620" y="-6"/>
      <point x="591" y="9"/>
      <point x="583" y="34" type="curve" smooth="yes"/>
      <point x="318" y="834" type="line" smooth="yes"/>
      <point x="309" y="860"/>
      <point x="324" y="889"/>
      <point x="349" y="897" type="curve" smooth="yes"/>
      <point x="375" y="906"/>
      <point x="404" y="891"/>
    </contour>
    <contour>
      <point x="630" y="0" type="curve" smooth="yes"/>
      <point x="100" y="0" type="line" smooth="yes"/>
      <point x="73" y="0"/>
      <point x="50" y="23"/>
      <point x="50" y="50" type="curve" smooth="yes"/>
      <point x="50" y="77"/>
      <point x="73" y="100"/>
      <point x="100" y="100" type="curve" smooth="yes"/>
      <point x="630" y="100" type="line" smooth="yes"/>
      <point x="657" y="100"/>
      <point x="680" y="77"/>
      <point x="680" y="50" type="curve" smooth="yes"/>
      <point x="680" y="23"/>
      <point x="657" y="0"/>
    </contour>
    <contour>
      <point x="53" y="66" type="curve" smooth="yes"/>
      <point x="318" y="866" type="line" smooth="yes"/>
      <point x="326" y="891"/>
      <point x="355" y="906"/>
      <point x="381" y="897" type="curve" smooth="yes"/>
      <point x="406" y="889"/>
      <point x="421" y="860"/>
      <point x="412" y="834" type="curve" smooth="yes"/>
      <point x="147" y="34" type="line" smooth="yes"/>
      <point x="139" y="9"/>
      <point x="110" y="-6"/>
      <point x="84" y="3" type="curve" smooth="yes"/>
      <point x="59" y="11"/>
      <point x="44" y="40"/>
    </contour>
  </outline>
</glyph>
<glyph name="Theta" format="2">
  <advance width="730"/>
  <unicode hex="0398"/>
  <outline>
    <contour>
      <point x="255" y="500" type="curve" smooth="yes"/>
      <point x="475" y="500" type="line" smooth="yes"/>
      <point x="502" y="500"/>
      <point x="525" y="477"/>
      <point x="525" y="450" type="curve" smooth="yes"/>
      <point x="525" y="423"/>
      <point x="502" y="400"/>
      <point x="475" y="400" type="curve" smooth="yes"/>
      <point x="255" y="400" type="line" smooth="yes"/>
      <point x="228" y="400"/>
      <point x="205" y="423"/>
      <point x="205" y="450" type="curve" smooth="yes"/>
      <point x="205" y="477"/>
      <point x="228" y="500"/>
    </contour>
    <component base="O"/>
  </outline>
</glyph>
<glyph name="Lambda" format="2">
  <advance width="730"/>
  <unicode hex="039B"/>
  <outline>
    <contour>
      <point x="412" y="866" type="curve" smooth="yes"/>
      <point x="677" y="66" type="line" smooth="yes"/>
      <point x="686" y="40"/>
      <point x="671" y="11"/>
      <point x="646" y="3" type="curve" smooth="yes"/>
      <point x="620" y="-6"/>
      <point x="591" y="9"/>
      <point x="583" y="34" type="curve" smooth="yes"/>
      <point x="318" y="834" type="line" smooth="yes"/>
      <point x="309" y="860"/>
      <point x="324" y="889"/>
      <point x="349" y="897" type="curve" smooth="yes"/>
      <point x="375" y="906"/>
      <point x="404" y="891"/>
    </contour>
    <contour>
      <point x="53" y="66" type="curve" smooth="yes"/>
      <point x="318" y="866" type="line" smooth="yes"/>
      <point x="326" y="891"/>
      <point x="355" y="906"/>
      <point x="381" y="897" type="curve" smooth="yes"/>
      <point x="406" y="889"/>
      <point x="421" y="860"/>
      <point x="412" y="834" type="curve" smooth="yes"/>
      <point x="147" y="34" type="line" smooth="yes"/>
      <point x="139" y="9"/>
      <point x="110" y="-6"/>
      <point x="84" y="3" type="curve" smooth="yes"/>
      <point x="59" y="11"/>
      <point x="44" y="40"/>
    </contour>
  </outline>
</glyph>
<glyph name="Xi" format="2">
  <advance width="600"/>
  <unicode hex="039E"/>
  <outline>
    <contour>
      <point x="150" y="500" type="curve" smooth="yes"/>
      <point x="450" y="500" type="line" smooth="yes"/>
      <point x="477" y="500"/>
      <point x="500" y="477"/>
      <point x="500" y="450" type="curve" smooth="yes"/>
      <point x="500" y="423"/>
      <point x="477" y="400"/>
      <point x="450" y="400" type="curve" smooth="yes"/>
      <point x="150" y="400" type="line" smooth="yes"/>
      <point x="123" y="400"/>
      <point x="100" y="423"/>
      <point x="100" y="450" type="curve" smooth="yes"/>
      <point x="100" y="477"/>
      <point x="123" y="500"/>
    </contour>
    <contour>
      <point x="100" y="900" type="curve" smooth="yes"/>
      <point x="500" y="900" type="line" smooth="yes"/>
      <point x="527" y="900"/>
      <point x="550" y="877"/>
      <point x="550" y="850" type="curve" smooth="yes"/>
      <point x="550" y="823"/>
      <point x="527" y="800"/>
      <point x="500" y="800" type="curve" smooth="yes"/>
      <point x="100" y="800" type="line" smooth="yes"/>
      <point x="73" y="800"/>
      <point x="50" y="823"/>
      <point x="50" y="850" type="curve" smooth="yes"/>
      <point x="50" y="877"/>
      <point x="73" y="900"/>
    </contour>
    <contour>
      <point x="500" y="0" type="curve" smooth="yes"/>
      <point x="100" y="0" type="line" smooth="yes"/>
      <point x="73" y="0"/>
      <point x="50" y="23"/>
      <point x="50" y="50" type="curve" smooth="yes"/>
      <point x="50" y="77"/>
      <point x="73" y="100"/>
      <point x="100" y="100" type="curve" smooth="yes"/>
      <point x="500" y="100" type="line" smooth="yes"/>
      <point x="527" y="100"/>
      <point x="550" y="77"/>
      <point x="550" y="50" type="curve" smooth="yes"/>
      <point x="550" y="23"/>
      <point x="527" y="0"/>
    </contour>
  </outline>
</glyph>
<glyph name="Pi" format="2">
  <advance width="690"/>
  <unicode hex="03A0"/>
  <outline>
    <contour>
      <point x="610" y="850" type="move"/>
      <point x="610" y="50" type="line"/>
    </contour>
    <contour>
      <point x="80" y="50" type="move"/>
      <point x="80" y="850" type="line"/>
    </contour>
    <contour>
      <point x="80" y="850" type="move"/>
      <point x="610" y="850" type="line"/>
    </contour>
  </outline>
</glyph>
<glyph name="Sigma" format="2">
  <advance width="730"/>
  <unicode hex="03A3"/>
  <outline>
    <contour>
      <point x="498" y="450" type="move"/>
      <point x="100" y="50" type="line"/>
    </contour>
    <contour>
      <point x="100" y="50" type="move"/>
      <point x="630" y="50" type="line"/>
    </contour>
    <contour>
      <point x="630" y="850" type="move"/>
      <point x="100" y="850" type="line"/>
    </contour>
    <contour>
      <point x="100" y="850" type="move"/>
      <point x="498" y="450" type="line"/>
    </contour>
  </outline>
</glyph>
<glyph name="Psi" format="2">
  <advance width="1000"/>
  <unicode hex="03A8"/>
  <outline>
    <contour>
      <point x="500" y="300" type="curve" smooth="yes"/>
      <point x="380" y="300" type="line" smooth="yes"/>
      <point x="199" y="300"/>
      <point x="50" y="447"/>
      <point x="50" y="630" type="curve" smooth="yes"/>
      <point x="50" y="850" type="line" smooth="yes"/>
      <point x="50" y="877"/>
      <point x="73" y="900"/>
      <point x="100" y="900" type="curve" smooth="yes"/>
      <point x="127" y="900"/>
      <point x="150" y="877"/>
      <point x="150" y="850" type="curve" smooth="yes"/>
      <point x="150" y="630" type="line" smooth="yes"/>
      <point x="150" y="503"/>
      <point x="254" y="400"/>
      <point x="380" y="400" type="curve" smooth="yes"/>
      <point x="500" y="400" type="line" smooth="yes"/>
      <point x="527" y="400"/>
      <point x="550" y="377"/>
      <point x="550" y="350" type="curve" smooth="yes"/>
      <point x="550" y="323"/>
      <point x="527" y="300"/>
    </contour>
    <contour>
      <point x="500" y="400" type="curve" smooth="yes"/>
      <point x="620" y="400" type="line" smooth="yes"/>
      <point x="747" y="400"/>
      <point x="850" y="503"/>
      <point x="850" y="630" type="curve" smooth="yes"/>
      <point x="850" y="850" type="line" smooth="yes"/>
      <point x="850" y="877"/>
      <point x="873" y="900"/>
      <point x="900" y="900" type="curve" smooth="yes"/>
      <point x="927" y="900"/>
      <point x="950" y="877"/>
      <point x="950" y="850" type="curve" smooth="yes"/>
      <point x="950" y="630" type="line" smooth="yes"/>
      <point x="950" y="447"/>
      <point x="803" y="300"/>
      <point x="620" y="300" type="curve" smooth="yes"/>
      <point x="500" y="300" type="line" smooth="yes"/>
      <point x="473" y="300"/>
      <point x="450" y="323"/>
      <point x="450" y="350" type="curve" smooth="yes"/>
      <point x="450" y="377"/>
      <point x="473" y="400"/>
    </contour>
    <contour>
      <point x="550" y="850" type="curve" smooth="yes"/>
      <point x="550" y="50" type="line" smooth="yes"/>
      <point x="550" y="23"/>
      <point x="527" y="0"/>
      <point x="500" y="0" type="curve" smooth="yes"/>
      <point x="473" y="0"/>
      <point x="450" y="23"/>
      <point x="450" y="50" type="curve" smooth="yes"/>
      <point x="450" y="850" type="line" smooth="yes"/>
      <point x="450" y="877"/>
      <point x="473" y="900"/>
      <point x="500" y="900" type="curve" smooth="yes"/>
      <point x="527" y="900"/>
      <point x="550" y="877"/>
    </contour>
  </outline>
</glyph>
<glyph name="Omega" format="2">
  <advance width="1000"/>
  <unicode hex="03A9"/>
  <anchor x="500" y="50" name="bottom"/>
  <anchor x="0" y="630" name="top"/>
  <anchor x="148" y="900" name="topleft"/>
  <outline>
    <contour>
      <point x="367" y="73" type="move"/>
      <point x="212" y="127"/>
      <point x="100" y="276"/>
      <point x="100" y="450" type="curve" smooth="yes"/>
      <point x="100" y="671"/>
      <point x="279" y="850"/>
      <point x="500" y="850" type="curve" smooth="yes"/>
      <point x="721" y="850"/>
      <point x="900" y="671"/>
      <point x="900" y="450" type="curve" smooth="yes"/>
      <point x="900" y="276"/>
      <point x="789" y="127"/>
      <point x="633" y="73" type="curve"/>
    </contour>
    <contour>
      <point x="633" y="50" type="move"/>
      <point x="900" y="50" type="line"/>
    </contour>
    <contour>
      <point x="100" y="50" type="move"/>
      <point x="367" y="50" type="line"/>
    </contour>
    <contour>
      <point x="633" y="73" type="move"/>
      <point x="633" y="50" type="line"/>
    </contour>
    <contour>
      <point x="367" y="50" type="move"/>
      <point x="367" y="73" type="line"/>
    </contour>
  </outline>
</glyph>
